<svg width="518" height="98" viewBox="0 0 518 98" fill="none" xmlns="http://www.w3.org/2000/svg">
<g filter="url(#filter0_d_115_1880)">
<path d="M4.45455 70V0.181816H28.8636C33.7273 0.181816 37.7386 1.02273 40.8977 2.70455C44.0568 4.36363 46.4091 6.60227 47.9545 9.42045C49.5 12.2159 50.2727 15.3182 50.2727 18.7273C50.2727 21.7273 49.7386 24.2045 48.6705 26.1591C47.625 28.1136 46.2386 29.6591 44.5114 30.7955C42.8068 31.9318 40.9545 32.7727 38.9545 33.3182V34C41.0909 34.1364 43.2386 34.8864 45.3977 36.25C47.5568 37.6136 49.3636 39.5682 50.8182 42.1136C52.2727 44.6591 53 47.7727 53 51.4545C53 54.9545 52.2045 58.1023 50.6136 60.8977C49.0227 63.6932 46.5114 65.9091 43.0795 67.5455C39.6477 69.1818 35.1818 70 29.6818 70H4.45455ZM12.9091 62.5H29.6818C35.2045 62.5 39.125 61.4318 41.4432 59.2955C43.7841 57.1364 44.9545 54.5227 44.9545 51.4545C44.9545 49.0909 44.3523 46.9091 43.1477 44.9091C41.9432 42.8864 40.2273 41.2727 38 40.0682C35.7727 38.8409 33.1364 38.2273 30.0909 38.2273H12.9091V62.5ZM12.9091 30.8636H28.5909C31.1364 30.8636 33.4318 30.3636 35.4773 29.3636C37.5455 28.3636 39.1818 26.9545 40.3864 25.1364C41.6136 23.3182 42.2273 21.1818 42.2273 18.7273C42.2273 15.6591 41.1591 13.0568 39.0227 10.9205C36.8864 8.76136 33.5 7.68182 28.8636 7.68182H12.9091V30.8636ZM81.2102 71.2273C77.892 71.2273 74.8807 70.6023 72.1761 69.3523C69.4716 68.0795 67.3239 66.25 65.733 63.8636C64.142 61.4545 63.3466 58.5455 63.3466 55.1364C63.3466 52.1364 63.9375 49.7045 65.1193 47.8409C66.3011 45.9545 67.8807 44.4773 69.858 43.4091C71.8352 42.3409 74.017 41.5455 76.4034 41.0227C78.8125 40.4773 81.233 40.0455 83.6648 39.7273C86.8466 39.3182 89.4261 39.0114 91.4034 38.8068C93.4034 38.5795 94.858 38.2045 95.767 37.6818C96.6989 37.1591 97.1648 36.25 97.1648 34.9545V34.6818C97.1648 31.3182 96.2443 28.7045 94.4034 26.8409C92.5852 24.9773 89.8239 24.0455 86.1193 24.0455C82.2784 24.0455 79.267 24.8864 77.0852 26.5682C74.9034 28.25 73.3693 30.0455 72.483 31.9545L64.8466 29.2273C66.2102 26.0455 68.0284 23.5682 70.3011 21.7955C72.5966 20 75.0966 18.75 77.8011 18.0455C80.5284 17.3182 83.2102 16.9545 85.8466 16.9545C87.5284 16.9545 89.4602 17.1591 91.642 17.5682C93.8466 17.9545 95.9716 18.7614 98.017 19.9886C100.085 21.2159 101.801 23.0682 103.165 25.5455C104.528 28.0227 105.21 31.3409 105.21 35.5V70H97.1648V62.9091H96.7557C96.2102 64.0455 95.3011 65.2614 94.0284 66.5568C92.7557 67.8523 91.0625 68.9545 88.9489 69.8636C86.8352 70.7727 84.2557 71.2273 81.2102 71.2273ZM82.4375 64C85.6193 64 88.3011 63.375 90.483 62.125C92.6875 60.875 94.3466 59.2614 95.4602 57.2841C96.5966 55.3068 97.1648 53.2273 97.1648 51.0455V43.6818C96.8239 44.0909 96.0739 44.4659 94.9148 44.8068C93.7784 45.125 92.4602 45.4091 90.9602 45.6591C89.483 45.8864 88.0398 46.0909 86.6307 46.2727C85.2443 46.4318 84.1193 46.5682 83.2557 46.6818C81.1648 46.9545 79.2102 47.3977 77.392 48.0114C75.5966 48.6023 74.142 49.5 73.0284 50.7045C71.9375 51.8864 71.392 53.5 71.392 55.5455C71.392 58.3409 72.4261 60.4545 74.4943 61.8864C76.5852 63.2955 79.233 64 82.4375 64ZM127.395 50.9091L127.259 40.9545H128.895L151.804 17.6364H161.759L137.349 42.3182H136.668L127.395 50.9091ZM119.895 70V0.181816H127.94V70H119.895ZM153.168 70L132.713 44.0909L138.44 38.5L163.395 70H153.168ZM191.912 71.0909C186.866 71.0909 182.514 69.9773 178.855 67.75C175.219 65.5 172.412 62.3636 170.435 58.3409C168.48 54.2955 167.503 49.5909 167.503 44.2273C167.503 38.8636 168.48 34.1364 170.435 30.0455C172.412 25.9318 175.162 22.7273 178.685 20.4318C182.23 18.1136 186.366 16.9545 191.094 16.9545C193.821 16.9545 196.514 17.4091 199.173 18.3182C201.832 19.2273 204.253 20.7045 206.435 22.75C208.616 24.7727 210.355 27.4545 211.651 30.7955C212.946 34.1364 213.594 38.25 213.594 43.1364V46.5455H173.23V39.5909H205.412C205.412 36.6364 204.821 34 203.639 31.6818C202.48 29.3636 200.821 27.5341 198.662 26.1932C196.526 24.8523 194.003 24.1818 191.094 24.1818C187.889 24.1818 185.116 24.9773 182.776 26.5682C180.457 28.1364 178.673 30.1818 177.423 32.7045C176.173 35.2273 175.548 37.9318 175.548 40.8182V45.4545C175.548 49.4091 176.23 52.7614 177.594 55.5114C178.98 58.2386 180.901 60.3182 183.355 61.75C185.81 63.1591 188.662 63.8636 191.912 63.8636C194.026 63.8636 195.935 63.5682 197.639 62.9773C199.366 62.3636 200.855 61.4545 202.105 60.25C203.355 59.0227 204.321 57.5 205.003 55.6818L212.776 57.8636C211.957 60.5 210.582 62.8182 208.651 64.8182C206.719 66.7955 204.332 68.3409 201.491 69.4545C198.651 70.5455 195.457 71.0909 191.912 71.0909ZM225.832 70V17.6364H233.605V25.5455H234.151C235.105 22.9545 236.832 20.8523 239.332 19.2386C241.832 17.625 244.651 16.8182 247.787 16.8182C248.378 16.8182 249.116 16.8295 250.003 16.8523C250.889 16.875 251.56 16.9091 252.014 16.9545V25.1364C251.741 25.0682 251.116 24.9659 250.139 24.8295C249.185 24.6705 248.173 24.5909 247.105 24.5909C244.56 24.5909 242.287 25.125 240.287 26.1932C238.31 27.2386 236.741 28.6932 235.582 30.5568C234.446 32.3977 233.878 34.5 233.878 36.8636V70H225.832ZM268.327 89.6364C266.963 89.6364 265.747 89.5227 264.679 89.2955C263.611 89.0909 262.872 88.8864 262.463 88.6818L264.509 81.5909C266.463 82.0909 268.19 82.2727 269.69 82.1364C271.19 82 272.52 81.3295 273.679 80.125C274.861 78.9432 275.94 77.0227 276.918 74.3636L278.418 70.2727L259.054 17.6364H267.781L282.236 59.3636H282.781L297.236 17.6364H305.963L283.736 77.6364C282.736 80.3409 281.497 82.5795 280.02 84.3523C278.543 86.1477 276.827 87.4773 274.872 88.3409C272.94 89.2045 270.759 89.6364 268.327 89.6364ZM347.537 70H338.673L364.31 0.181816H373.037L398.673 70H389.81L368.946 11.2273H368.401L347.537 70ZM350.81 42.7273H386.537V50.2273H350.81V42.7273ZM408.457 89.6364V17.6364H416.23V25.9545H417.185C417.776 25.0455 418.594 23.8864 419.639 22.4773C420.707 21.0455 422.23 19.7727 424.207 18.6591C426.207 17.5227 428.912 16.9545 432.321 16.9545C436.73 16.9545 440.616 18.0568 443.98 20.2614C447.344 22.4659 449.969 25.5909 451.855 29.6364C453.741 33.6818 454.685 38.4545 454.685 43.9545C454.685 49.5 453.741 54.3068 451.855 58.375C449.969 62.4205 447.355 65.5568 444.014 67.7841C440.673 69.9886 436.821 71.0909 432.457 71.0909C429.094 71.0909 426.401 70.5341 424.378 69.4205C422.355 68.2841 420.798 67 419.707 65.5682C418.616 64.1136 417.776 62.9091 417.185 61.9545H416.503V89.6364H408.457ZM416.366 43.8182C416.366 47.7727 416.946 51.2614 418.105 54.2841C419.264 57.2841 420.957 59.6364 423.185 61.3409C425.412 63.0227 428.139 63.8636 431.366 63.8636C434.73 63.8636 437.537 62.9773 439.787 61.2045C442.06 59.4091 443.764 57 444.901 53.9773C446.06 50.9318 446.639 47.5455 446.639 43.8182C446.639 40.1364 446.071 36.8182 444.935 33.8636C443.821 30.8864 442.128 28.5341 439.855 26.8068C437.605 25.0568 434.776 24.1818 431.366 24.1818C428.094 24.1818 425.344 25.0114 423.116 26.6705C420.889 28.3068 419.207 30.6023 418.071 33.5568C416.935 36.4886 416.366 39.9091 416.366 43.8182ZM466.957 89.6364V17.6364H474.73V25.9545H475.685C476.276 25.0455 477.094 23.8864 478.139 22.4773C479.207 21.0455 480.73 19.7727 482.707 18.6591C484.707 17.5227 487.412 16.9545 490.821 16.9545C495.23 16.9545 499.116 18.0568 502.48 20.2614C505.844 22.4659 508.469 25.5909 510.355 29.6364C512.241 33.6818 513.185 38.4545 513.185 43.9545C513.185 49.5 512.241 54.3068 510.355 58.375C508.469 62.4205 505.855 65.5568 502.514 67.7841C499.173 69.9886 495.321 71.0909 490.957 71.0909C487.594 71.0909 484.901 70.5341 482.878 69.4205C480.855 68.2841 479.298 67 478.207 65.5682C477.116 64.1136 476.276 62.9091 475.685 61.9545H475.003V89.6364H466.957ZM474.866 43.8182C474.866 47.7727 475.446 51.2614 476.605 54.2841C477.764 57.2841 479.457 59.6364 481.685 61.3409C483.912 63.0227 486.639 63.8636 489.866 63.8636C493.23 63.8636 496.037 62.9773 498.287 61.2045C500.56 59.4091 502.264 57 503.401 53.9773C504.56 50.9318 505.139 47.5455 505.139 43.8182C505.139 40.1364 504.571 36.8182 503.435 33.8636C502.321 30.8864 500.628 28.5341 498.355 26.8068C496.105 25.0568 493.276 24.1818 489.866 24.1818C486.594 24.1818 483.844 25.0114 481.616 26.6705C479.389 28.3068 477.707 30.6023 476.571 33.5568C475.435 36.4886 474.866 39.9091 474.866 43.8182Z" fill="black"/>
<path d="M4.45455 70H3.45455V71H4.45455V70ZM4.45455 0.181816V-0.818184H3.45455V0.181816H4.45455ZM40.8977 2.70455L40.4278 3.58727L40.4328 3.58988L40.8977 2.70455ZM47.9545 9.42046L47.0777 9.90129L47.0794 9.90429L47.9545 9.42046ZM48.6705 26.1591L47.7929 25.6795L47.7887 25.6874L48.6705 26.1591ZM44.5114 30.7955L43.9617 29.96L43.9567 29.9634L44.5114 30.7955ZM38.9545 33.3182L38.6914 32.3534L37.9545 32.5544V33.3182H38.9545ZM38.9545 34H37.9545V34.9382L38.8908 34.998L38.9545 34ZM45.3977 36.25L44.8637 37.0955H44.8637L45.3977 36.25ZM50.6136 60.8977L51.4827 61.3923L50.6136 60.8977ZM43.0795 67.5455L42.6491 66.6428L43.0795 67.5455ZM12.9091 62.5H11.9091V63.5H12.9091V62.5ZM41.4432 59.2955L42.1209 60.0308L42.1212 60.0305L41.4432 59.2955ZM43.1477 44.9091L42.2885 45.4207L42.2911 45.425L43.1477 44.9091ZM38 40.0682L37.5174 40.944L37.5243 40.9478L38 40.0682ZM12.9091 38.2273V37.2273H11.9091V38.2273H12.9091ZM12.9091 30.8636H11.9091V31.8636H12.9091V30.8636ZM35.4773 29.3636L35.042 28.4633L35.0381 28.4653L35.4773 29.3636ZM40.3864 25.1364L39.5575 24.5769L39.5527 24.5841L40.3864 25.1364ZM39.0227 10.9205L38.3119 11.6238L38.3156 11.6276L39.0227 10.9205ZM12.9091 7.68182V6.68182H11.9091V7.68182H12.9091ZM5.45455 70V0.181816H3.45455V70H5.45455ZM4.45455 1.18182H28.8636V-0.818184H4.45455V1.18182ZM28.8636 1.18182C33.6195 1.18182 37.4559 2.00509 40.4278 3.58725L41.3677 1.82184C38.0214 0.0403576 33.835 -0.818184 28.8636 -0.818184V1.18182ZM40.4328 3.58988C43.4377 5.16801 45.6371 7.27421 47.0777 9.90129L48.8314 8.93962C47.1811 5.93033 44.6759 3.55926 41.3627 1.81921L40.4328 3.58988ZM47.0794 9.90429C48.5375 12.5417 49.2727 15.4757 49.2727 18.7273H51.2727C51.2727 15.1607 50.4626 11.8901 48.8297 8.93662L47.0794 9.90429ZM49.2727 18.7273C49.2727 21.6154 48.7577 23.9142 47.7929 25.6795L49.548 26.6387C50.7196 24.4949 51.2727 21.8391 51.2727 18.7273H49.2727ZM47.7887 25.6874C46.816 27.5058 45.5397 28.9219 43.9618 29.96L45.061 31.6309C46.9376 30.3963 48.434 28.7214 49.5522 26.6307L47.7887 25.6874ZM43.9567 29.9634C42.3426 31.0394 40.589 31.8359 38.6914 32.3534L39.2177 34.2829C41.3201 33.7096 43.271 32.8242 45.0661 31.6275L43.9567 29.9634ZM37.9545 33.3182V34H39.9545V33.3182H37.9545ZM38.8908 34.998C40.8307 35.1218 42.8189 35.804 44.8637 37.0955L45.9317 35.4045C43.6584 33.9687 41.3511 33.1509 39.0182 33.002L38.8908 34.998ZM44.8637 37.0955C46.8653 38.3596 48.5645 40.1852 49.9499 42.6098L51.6864 41.6175C50.1628 38.9512 48.2484 36.8677 45.9317 35.4045L44.8637 37.0955ZM49.9499 42.6098C51.2987 44.9701 52 47.9029 52 51.4545H54C54 47.6426 53.2467 44.3481 51.6864 41.6175L49.9499 42.6098ZM52 51.4545C52 54.7968 51.2422 57.7715 49.7445 60.4031L51.4827 61.3923C53.1669 58.433 54 55.1122 54 51.4545H52ZM49.7445 60.4031C48.2721 62.9904 45.9309 65.078 42.6491 66.6428L43.5099 68.4481C47.0919 66.7402 49.7734 64.3959 51.4827 61.3923L49.7445 60.4031ZM42.6491 66.6428C39.398 68.193 35.0944 69 29.6818 69V71C35.2692 71 39.8974 70.1706 43.5099 68.4481L42.6491 66.6428ZM29.6818 69H4.45455V71H29.6818V69ZM12.9091 63.5H29.6818V61.5H12.9091V63.5ZM29.6818 63.5C35.2831 63.5 39.5216 62.4262 42.1209 60.0308L40.7655 58.5601C38.7284 60.4374 35.126 61.5 29.6818 61.5V63.5ZM42.1212 60.0305C44.6585 57.6902 45.9545 54.8137 45.9545 51.4545H43.9545C43.9545 54.2317 42.9097 56.5825 40.7652 58.5604L42.1212 60.0305ZM45.9545 51.4545C45.9545 48.9115 45.3039 46.5509 44.0044 44.3932L42.2911 45.425C43.4006 47.2673 43.9545 49.2703 43.9545 51.4545H45.9545ZM44.0069 44.3974C42.7031 42.208 40.8492 40.4722 38.4757 39.1886L37.5243 40.9478C39.6053 42.0732 41.1833 43.5647 42.2885 45.4207L44.0069 44.3974ZM38.4826 39.1923C36.0809 37.8689 33.2719 37.2273 30.0909 37.2273V39.2273C33.0009 39.2273 35.4646 39.8129 37.5174 40.944L38.4826 39.1923ZM30.0909 37.2273H12.9091V39.2273H30.0909V37.2273ZM11.9091 38.2273V62.5H13.9091V38.2273H11.9091ZM12.9091 31.8636H28.5909V29.8636H12.9091V31.8636ZM28.5909 31.8636C31.2705 31.8636 33.7189 31.3364 35.9165 30.262L35.0381 28.4653C33.1448 29.3909 31.0023 29.8636 28.5909 29.8636V31.8636ZM35.9126 30.2639C38.1334 29.1901 39.911 27.6646 41.22 25.6887L39.5527 24.5841C38.4527 26.2445 36.9575 27.5372 35.042 28.4634L35.9126 30.2639ZM41.2152 25.6958C42.5671 23.6931 43.2273 21.3566 43.2273 18.7273H41.2273C41.2273 21.007 40.6602 22.9433 39.5575 24.5769L41.2152 25.6958ZM43.2273 18.7273C43.2273 15.3985 42.057 12.5405 39.7298 10.2133L38.3156 11.6276C40.2612 13.5731 41.2273 15.9197 41.2273 18.7273H43.2273ZM39.7336 10.2171C37.3305 7.78846 33.6289 6.68182 28.8636 6.68182V8.68182C33.3711 8.68182 36.4422 9.73426 38.3119 11.6238L39.7336 10.2171ZM28.8636 6.68182H12.9091V8.68182H28.8636V6.68182ZM11.9091 7.68182V30.8636H13.9091V7.68182H11.9091ZM72.1761 69.3523L71.7503 70.2571L71.7566 70.26L72.1761 69.3523ZM65.733 63.8636L64.8985 64.4147L64.9009 64.4183L65.733 63.8636ZM65.1193 47.8409L65.9638 48.3765L65.9667 48.3718L65.1193 47.8409ZM76.4034 41.0227L76.6174 41.9996L76.6242 41.998L76.4034 41.0227ZM83.6648 39.7273L83.5373 38.7354L83.535 38.7357L83.6648 39.7273ZM91.4034 38.8068L91.5063 39.8016L91.5163 39.8004L91.4034 38.8068ZM95.767 37.6818L95.2778 36.8096L95.2686 36.8149L95.767 37.6818ZM94.4034 26.8409L93.6876 27.5392L93.692 27.5437L94.4034 26.8409ZM77.0852 26.5682L77.6957 27.3602L77.0852 26.5682ZM72.483 31.9545L72.1466 32.8963L73.0058 33.2031L73.39 32.3757L72.483 31.9545ZM64.8466 29.2273L63.9274 28.8334L63.5084 29.8112L64.5103 30.169L64.8466 29.2273ZM70.3011 21.7955L70.9162 22.584L70.9172 22.5831L70.3011 21.7955ZM77.8011 18.0455L78.0532 19.0132L78.0588 19.0117L77.8011 18.0455ZM91.642 17.5682L91.4577 18.5511L91.4694 18.5532L91.642 17.5682ZM98.017 19.9886L97.5025 20.8461L97.5067 20.8486L98.017 19.9886ZM103.165 25.5455L102.289 26.0277V26.0277L103.165 25.5455ZM105.21 70V71H106.21V70H105.21ZM97.1648 70H96.1648V71H97.1648V70ZM97.1648 62.9091H98.1648V61.9091H97.1648V62.9091ZM96.7557 62.9091V61.9091H96.1264L95.8542 62.4764L96.7557 62.9091ZM94.0284 66.5568L94.7417 67.2576L94.0284 66.5568ZM88.9489 69.8636L88.5538 68.945L88.9489 69.8636ZM90.483 62.125L89.9897 61.2551L89.9858 61.2573L90.483 62.125ZM95.4602 57.2841L94.5932 56.7858L94.5889 56.7934L95.4602 57.2841ZM97.1648 43.6818H98.1648V40.9198L96.3966 43.0416L97.1648 43.6818ZM94.9148 44.8068L95.1844 45.7699L95.1969 45.7662L94.9148 44.8068ZM90.9602 45.6591L91.1123 46.6475L91.1246 46.6455L90.9602 45.6591ZM86.6307 46.2727L86.7447 47.2663L86.7587 47.2645L86.6307 46.2727ZM83.2557 46.6818L83.385 47.6734L83.3861 47.6733L83.2557 46.6818ZM77.392 48.0114L77.7047 48.9613L77.7118 48.9589L77.392 48.0114ZM73.0284 50.7045L72.2941 50.0257L72.2936 50.0263L73.0284 50.7045ZM74.4943 61.8864L73.9251 62.7086L73.9355 62.7156L74.4943 61.8864ZM81.2102 70.2273C78.0203 70.2273 75.1544 69.6272 72.5957 68.4445L71.7566 70.26C74.6069 71.5774 77.7637 72.2273 81.2102 72.2273V70.2273ZM72.6019 68.4475C70.0549 67.2488 68.0505 65.5372 66.565 63.3089L64.9009 64.4183C66.5972 66.9628 68.8883 68.9102 71.7503 70.2571L72.6019 68.4475ZM66.5674 63.3126C65.1028 61.0947 64.3466 58.3856 64.3466 55.1364H62.3466C62.3466 58.7053 63.1813 61.8144 64.8985 64.4147L66.5674 63.3126ZM64.3466 55.1364C64.3466 52.26 64.9139 50.0321 65.9638 48.3764L64.2748 47.3054C62.9611 49.377 62.3466 52.0127 62.3466 55.1364H64.3466ZM65.9667 48.3718C67.0558 46.6334 68.5066 45.2757 70.3333 44.2889L69.3827 42.5293C67.2548 43.6788 65.5464 45.2756 64.2719 47.31L65.9667 48.3718ZM70.3333 44.2889C72.2216 43.2688 74.3144 42.504 76.6174 41.9996L76.1894 40.0459C73.7197 40.5869 71.4489 41.413 69.3827 42.5293L70.3333 44.2889ZM76.6242 41.998C79.0034 41.4594 81.3935 41.033 83.7945 40.7188L83.535 38.7357C81.0724 39.0579 78.6216 39.4952 76.1826 40.0474L76.6242 41.998ZM83.7923 40.7191C86.9702 40.3105 89.5407 40.0049 91.5063 39.8015L91.3005 37.8121C89.3116 38.0179 86.723 38.3258 83.5373 38.7354L83.7923 40.7191ZM91.5163 39.8004C93.5502 39.5693 95.1731 39.1768 96.2655 38.5487L95.2686 36.8149C94.5428 37.2322 93.2566 37.5898 91.2905 37.8132L91.5163 39.8004ZM96.2563 38.554C97.5756 37.8139 98.1648 36.5208 98.1648 34.9545H96.1648C96.1648 35.9792 95.8221 36.5043 95.2778 36.8097L96.2563 38.554ZM98.1648 34.9545V34.6818H96.1648V34.9545H98.1648ZM98.1648 34.6818C98.1648 31.1332 97.1891 28.238 95.1148 26.1382L93.692 27.5437C95.2996 29.1711 96.1648 31.5032 96.1648 34.6818H98.1648ZM95.1192 26.1426C93.0452 24.0167 89.978 23.0455 86.1193 23.0455V25.0455C89.6698 25.0455 92.1253 25.9379 93.6876 27.5392L95.1192 26.1426ZM86.1193 23.0455C82.1429 23.0455 78.8888 23.9153 76.4747 25.7762L77.6957 27.3602C79.6453 25.8574 82.4139 25.0455 86.1193 25.0455V23.0455ZM76.4747 25.7762C74.2036 27.5268 72.5476 29.4407 71.5759 31.5334L73.39 32.3757C74.1911 30.6502 75.6032 28.9732 77.6957 27.3602L76.4747 25.7762ZM72.8193 31.0128L65.1829 28.2855L64.5103 30.169L72.1466 32.8963L72.8193 31.0128ZM65.7657 29.6212C67.0762 26.5634 68.8008 24.2339 70.9162 22.584L69.6861 21.007C67.256 22.9024 65.3442 25.5275 63.9274 28.8334L65.7657 29.6212ZM70.9172 22.5831C73.1096 20.8683 75.4867 19.6817 78.0532 19.0132L77.549 17.0778C74.7065 17.8183 72.0835 19.1317 69.685 21.0078L70.9172 22.5831ZM78.0588 19.0117C80.7079 18.3053 83.3031 17.9545 85.8466 17.9545V15.9545C83.1173 15.9545 80.3489 16.3311 77.5435 17.0792L78.0588 19.0117ZM85.8466 17.9545C87.4506 17.9545 89.3187 18.15 91.4578 18.5511L91.8263 16.5853C89.6018 16.1682 87.6062 15.9545 85.8466 15.9545V17.9545ZM91.4694 18.5532C93.5454 18.917 95.5553 19.6778 97.5025 20.8461L98.5315 19.1311C96.3879 17.845 94.1478 16.9921 91.8147 16.5832L91.4694 18.5532ZM97.5067 20.8486C99.3964 21.97 100.996 23.679 102.289 26.0277L104.041 25.0632C102.606 22.4574 100.774 20.4619 98.5274 19.1286L97.5067 20.8486ZM102.289 26.0277C103.542 28.3039 104.21 31.4358 104.21 35.5H106.21C106.21 31.246 105.515 27.7416 104.041 25.0632L102.289 26.0277ZM104.21 35.5V70H106.21V35.5H104.21ZM105.21 69H97.1648V71H105.21V69ZM98.1648 70V62.9091H96.1648V70H98.1648ZM97.1648 61.9091H96.7557V63.9091H97.1648V61.9091ZM95.8542 62.4764C95.3722 63.4804 94.5417 64.6075 93.3151 65.856L94.7417 67.2576C96.0606 65.9153 97.0482 64.6105 97.6572 63.3418L95.8542 62.4764ZM93.3151 65.856C92.154 67.0378 90.5788 68.074 88.5538 68.945L89.344 70.7823C91.5462 69.8351 93.3573 68.6668 94.7417 67.2576L93.3151 65.856ZM88.5538 68.945C86.5983 69.7861 84.1616 70.2273 81.2102 70.2273V72.2273C84.3498 72.2273 87.0722 71.7594 89.344 70.7823L88.5538 68.945ZM82.4375 65C85.7482 65 88.6118 64.3495 90.9801 62.9927L89.9858 61.2573C87.9905 62.4005 85.4904 63 82.4375 63V65ZM90.9762 62.9949C93.3199 61.666 95.1186 59.9285 96.3315 57.7748L94.5889 56.7934C93.5746 58.5943 92.0551 60.084 89.9897 61.2551L90.9762 62.9949ZM96.3272 57.7824C97.5466 55.6606 98.1648 53.4102 98.1648 51.0455H96.1648C96.1648 53.0443 95.6466 54.953 94.5932 56.7858L96.3272 57.7824ZM98.1648 51.0455V43.6818H96.1648V51.0455H98.1648ZM96.3966 43.0416C96.3505 43.0968 96.2141 43.2181 95.8994 43.3755C95.5949 43.5277 95.1778 43.6871 94.6326 43.8475L95.1969 45.7662C95.8108 45.5856 96.3483 45.3871 96.7938 45.1643C97.229 44.9467 97.6381 44.6759 97.933 44.322L96.3966 43.0416ZM94.6451 43.8438C93.5516 44.15 92.2699 44.427 90.7958 44.6727L91.1246 46.6455C92.6506 46.3912 94.0052 46.1 95.1844 45.7698L94.6451 43.8438ZM90.8082 44.6707C89.3385 44.8968 87.9034 45.1002 86.5027 45.281L86.7587 47.2645C88.1762 47.0816 89.6274 46.8759 91.1123 46.6475L90.8082 44.6707ZM86.5167 45.2792C85.1277 45.4386 83.9966 45.5757 83.1252 45.6904L83.3861 47.6733C84.2421 47.5607 85.361 47.425 86.7447 47.2662L86.5167 45.2792ZM83.1263 45.6902C80.977 45.9706 78.9581 46.4274 77.0723 47.0639L77.7118 48.9589C79.4624 48.368 81.3526 47.9385 83.385 47.6734L83.1263 45.6902ZM77.0794 47.0615C75.1475 47.6973 73.5396 48.6786 72.2941 50.0257L73.7627 51.3834C74.7445 50.3214 76.0457 49.5072 77.7047 48.9612L77.0794 47.0615ZM72.2936 50.0263C70.9895 51.439 70.392 53.3195 70.392 55.5455H72.392C72.392 53.6805 72.8855 52.3337 73.7632 51.3828L72.2936 50.0263ZM70.392 55.5455C70.392 58.6264 71.5539 61.0669 73.9251 62.7086L75.0635 61.0642C73.2984 59.8422 72.392 58.0554 72.392 55.5455H70.392ZM73.9355 62.7156C76.2311 64.2627 79.0876 65 82.4375 65V63C79.3783 63 76.9393 62.3282 75.0532 61.0571L73.9355 62.7156ZM127.395 50.9091L126.395 50.9228L126.426 53.1702L128.075 51.6427L127.395 50.9091ZM127.259 40.9545V39.9545H126.245L126.259 40.9682L127.259 40.9545ZM128.895 40.9545V41.9545H129.314L129.608 41.6554L128.895 40.9545ZM151.804 17.6364V16.6364H151.385L151.091 16.9355L151.804 17.6364ZM161.759 17.6364L162.47 18.3395L164.154 16.6364H161.759V17.6364ZM137.349 42.3182V43.3182H137.767L138.06 43.0213L137.349 42.3182ZM136.668 42.3182V41.3182H136.276L135.988 41.5846L136.668 42.3182ZM119.895 70H118.895V71H119.895V70ZM119.895 0.181816V-0.818184H118.895V0.181816H119.895ZM127.94 0.181816H128.94V-0.818184H127.94V0.181816ZM127.94 70V71H128.94V70H127.94ZM153.168 70L152.383 70.6196L152.683 71H153.168V70ZM132.713 44.0909L132.015 43.3753L131.37 44.0041L131.928 44.7106L132.713 44.0909ZM138.44 38.5L139.224 37.879L138.535 37.0097L137.742 37.7844L138.44 38.5ZM163.395 70V71H165.463L164.179 69.379L163.395 70ZM128.395 50.8954L128.258 40.9408L126.259 40.9682L126.395 50.9228L128.395 50.8954ZM127.259 41.9545H128.895V39.9545H127.259V41.9545ZM129.608 41.6554L152.517 18.3372L151.091 16.9355L128.182 40.2537L129.608 41.6554ZM151.804 18.6364H161.759V16.6364H151.804V18.6364ZM161.048 16.9332L136.638 41.615L138.06 43.0213L162.47 18.3395L161.048 16.9332ZM137.349 41.3182H136.668V43.3182H137.349V41.3182ZM135.988 41.5846L126.715 50.1755L128.075 51.6427L137.347 43.0517L135.988 41.5846ZM120.895 70V0.181816H118.895V70H120.895ZM119.895 1.18182H127.94V-0.818184H119.895V1.18182ZM126.94 0.181816V70H128.94V0.181816H126.94ZM127.94 69H119.895V71H127.94V69ZM153.952 69.3804L133.498 43.4713L131.928 44.7106L152.383 70.6196L153.952 69.3804ZM133.412 44.8065L139.139 39.2156L137.742 37.7844L132.015 43.3753L133.412 44.8065ZM137.657 39.121L162.611 70.621L164.179 69.379L139.224 37.879L137.657 39.121ZM163.395 69H153.168V71H163.395V69ZM178.855 67.75L178.329 68.6004L178.335 68.6042L178.855 67.75ZM170.435 58.3409L169.534 58.7759L169.537 58.782L170.435 58.3409ZM170.435 30.0455L169.533 29.6122L169.532 29.6144L170.435 30.0455ZM178.685 20.4318L179.231 21.2696L179.232 21.2688L178.685 20.4318ZM199.173 18.3182L199.497 17.3719L199.173 18.3182ZM206.435 22.75L205.751 23.4795L205.755 23.4833L206.435 22.75ZM211.651 30.7955L212.583 30.4339L211.651 30.7955ZM213.594 46.5455V47.5455H214.594V46.5455H213.594ZM173.23 46.5455H172.23V47.5455H173.23V46.5455ZM173.23 39.5909V38.5909H172.23V39.5909H173.23ZM205.412 39.5909V40.5909H206.412V39.5909H205.412ZM203.639 31.6818L202.745 32.129L202.748 32.136L203.639 31.6818ZM198.662 26.1932L198.13 27.0402L198.134 27.0427L198.662 26.1932ZM182.776 26.5682L183.336 27.3965L183.338 27.3953L182.776 26.5682ZM177.423 32.7045L176.527 32.2606L177.423 32.7045ZM177.594 55.5114L176.698 55.9556L176.702 55.9645L177.594 55.5114ZM183.355 61.75L182.851 62.6138L182.857 62.6173L183.355 61.75ZM197.639 62.9773L197.967 63.9221L197.974 63.9196L197.639 62.9773ZM202.105 60.25L202.799 60.9701L202.806 60.9636L202.105 60.25ZM205.003 55.6818L205.273 54.719L204.389 54.4708L204.067 55.3307L205.003 55.6818ZM212.776 57.8636L213.731 58.16L214.035 57.1786L213.046 56.9008L212.776 57.8636ZM208.651 64.8182L209.366 65.517L209.37 65.5129L208.651 64.8182ZM201.491 69.4545L201.85 70.3881L201.856 70.3856L201.491 69.4545ZM191.912 70.0909C187.017 70.0909 182.852 69.0119 179.375 66.8958L178.335 68.6042C182.177 70.9426 186.716 72.0909 191.912 72.0909V70.0909ZM179.381 66.8996C175.913 64.7533 173.231 61.7625 171.332 57.8998L169.537 58.782C171.593 62.9648 174.525 66.2467 178.329 68.6004L179.381 66.8996ZM171.335 57.9059C169.458 54.0199 168.503 49.4691 168.503 44.2273H166.503C166.503 49.7127 167.503 54.571 169.534 58.7759L171.335 57.9059ZM168.503 44.2273C168.503 38.9858 169.457 34.4104 171.337 30.4766L169.532 29.6144C167.503 33.8623 166.503 38.7415 166.503 44.2273H168.503ZM171.336 30.4787C173.241 26.5153 175.874 23.4568 179.231 21.2696L178.139 19.594C174.45 21.9978 171.583 25.3484 169.533 29.6122L171.336 30.4787ZM179.232 21.2688C182.596 19.0691 186.538 17.9545 191.094 17.9545V15.9545C186.195 15.9545 181.864 17.1582 178.137 19.5948L179.232 21.2688ZM191.094 17.9545C193.708 17.9545 196.292 18.3898 198.85 19.2644L199.497 17.3719C196.737 16.4284 193.934 15.9545 191.094 15.9545V17.9545ZM198.85 19.2644C201.366 20.1247 203.666 21.5247 205.751 23.4795L207.119 22.0205C204.84 19.8844 202.299 18.3298 199.497 17.3719L198.85 19.2644ZM205.755 23.4833C207.805 25.3839 209.467 27.929 210.718 31.157L212.583 30.4339C211.244 26.9801 209.428 24.1615 207.115 22.0167L205.755 23.4833ZM210.718 31.157C211.956 34.349 212.594 38.3316 212.594 43.1364H214.594C214.594 38.1684 213.936 33.9237 212.583 30.4339L210.718 31.157ZM212.594 43.1364V46.5455H214.594V43.1364H212.594ZM213.594 45.5455H173.23V47.5455H213.594V45.5455ZM174.23 46.5455V39.5909H172.23V46.5455H174.23ZM173.23 40.5909H205.412V38.5909H173.23V40.5909ZM206.412 39.5909C206.412 36.5 205.793 33.7045 204.53 31.2276L202.748 32.136C203.849 34.2955 204.412 36.7727 204.412 39.5909H206.412ZM204.534 31.2346C203.294 28.7544 201.509 26.7842 199.19 25.3437L198.134 27.0427C200.133 28.284 201.667 29.9728 202.745 32.129L204.534 31.2346ZM199.194 25.3462C196.875 23.8907 194.161 23.1818 191.094 23.1818V25.1818C193.844 25.1818 196.176 25.8138 198.13 27.0402L199.194 25.3462ZM191.094 23.1818C187.716 23.1818 184.742 24.023 182.213 25.7411L183.338 27.3953C185.491 25.9315 188.062 25.1818 191.094 25.1818V23.1818ZM182.215 25.7399C179.753 27.4056 177.854 29.5838 176.527 32.2606L178.319 33.1485C179.493 30.7798 181.162 28.8671 183.336 27.3965L182.215 25.7399ZM176.527 32.2606C175.207 34.9249 174.548 37.7818 174.548 40.8182H176.548C176.548 38.0818 177.139 35.5297 178.319 33.1485L176.527 32.2606ZM174.548 40.8182V45.4545H176.548V40.8182H174.548ZM174.548 45.4545C174.548 49.5203 175.249 53.0336 176.698 55.9556L178.49 55.0671C177.211 52.4891 176.548 49.2979 176.548 45.4545H174.548ZM176.702 55.9645C178.169 58.8493 180.218 61.0777 182.851 62.6138L183.859 60.8862C181.583 59.5587 179.791 57.6279 178.485 55.0582L176.702 55.9645ZM182.857 62.6173C185.485 64.1255 188.514 64.8636 191.912 64.8636V62.8636C188.81 62.8636 186.135 62.1926 183.853 60.8827L182.857 62.6173ZM191.912 64.8636C194.118 64.8636 196.141 64.5552 197.967 63.9221L197.312 62.0324C195.729 62.5812 193.933 62.8636 191.912 62.8636V64.8636ZM197.974 63.9196C199.828 63.261 201.441 62.2789 202.799 60.9701L201.411 59.5299C200.269 60.6302 198.905 61.4663 197.304 62.035L197.974 63.9196ZM202.806 60.9636C204.171 59.6235 205.212 57.9727 205.939 56.0329L204.067 55.3307C203.43 57.0273 202.54 58.422 201.405 59.5364L202.806 60.9636ZM204.733 56.6446L212.505 58.8264L213.046 56.9008L205.273 54.719L204.733 56.6446ZM211.821 57.5672C211.049 60.0531 209.755 62.2351 207.931 64.1234L209.37 65.5129C211.41 63.4013 212.866 60.9469 213.731 58.16L211.821 57.5672ZM207.935 64.1193C206.112 65.9852 203.849 67.4562 201.127 68.5235L201.856 70.3856C204.815 69.2256 207.325 67.6057 209.366 65.517L207.935 64.1193ZM201.133 68.521C198.424 69.5614 195.355 70.0909 191.912 70.0909V72.0909C195.56 72.0909 198.877 71.5295 201.85 70.3881L201.133 68.521ZM225.832 70H224.832V71H225.832V70ZM225.832 17.6364V16.6364H224.832V17.6364H225.832ZM233.605 17.6364H234.605V16.6364H233.605V17.6364ZM233.605 25.5455H232.605V26.5455H233.605V25.5455ZM234.151 25.5455V26.5455H234.848L235.089 25.8912L234.151 25.5455ZM239.332 19.2386L238.79 18.3984L239.332 19.2386ZM252.014 16.9545H253.014V16.0496L252.114 15.9595L252.014 16.9545ZM252.014 25.1364L251.772 26.1065L253.014 26.4171V25.1364H252.014ZM250.139 24.8295L249.975 25.8159L249.988 25.8181L250.001 25.8199L250.139 24.8295ZM240.287 26.1932L240.754 27.0772L240.758 27.0753L240.287 26.1932ZM235.582 30.5568L234.733 30.0287L234.731 30.0315L235.582 30.5568ZM233.878 70V71H234.878V70H233.878ZM226.832 70V17.6364H224.832V70H226.832ZM225.832 18.6364H233.605V16.6364H225.832V18.6364ZM232.605 17.6364V25.5455H234.605V17.6364H232.605ZM233.605 26.5455H234.151V24.5455H233.605V26.5455ZM235.089 25.8912C235.963 23.5198 237.542 21.5846 239.875 20.0788L238.79 18.3984C236.123 20.1199 234.248 22.3893 233.212 25.1997L235.089 25.8912ZM239.875 20.0788C242.204 18.5753 244.832 17.8182 247.787 17.8182V15.8182C244.469 15.8182 241.461 16.6747 238.79 18.3984L239.875 20.0788ZM247.787 17.8182C248.366 17.8182 249.096 17.8293 249.977 17.8519L250.028 15.8526C249.137 15.8298 248.389 15.8182 247.787 15.8182V17.8182ZM249.977 17.8519C250.857 17.8745 251.498 17.9079 251.915 17.9496L252.114 15.9595C251.621 15.9103 250.921 15.8755 250.028 15.8526L249.977 17.8519ZM251.014 16.9545V25.1364H253.014V16.9545H251.014ZM252.257 24.1662C251.922 24.0825 251.24 23.9734 250.277 23.8391L250.001 25.8199C250.993 25.9584 251.561 26.0538 251.772 26.1065L252.257 24.1662ZM250.304 23.8431C249.289 23.6741 248.223 23.5909 247.105 23.5909V25.5909C248.124 25.5909 249.08 25.6668 249.975 25.8159L250.304 23.8431ZM247.105 23.5909C244.416 23.5909 241.978 24.1564 239.816 25.3111L240.758 27.0753C242.596 26.0936 244.704 25.5909 247.105 25.5909V23.5909ZM239.82 25.3091C237.689 26.4357 235.988 28.0117 234.733 30.0287L236.432 31.085C237.495 29.3746 238.93 28.0416 240.754 27.0772L239.82 25.3091ZM234.731 30.0315C233.489 32.0448 232.878 34.3323 232.878 36.8636H234.878C234.878 34.6677 235.403 32.7506 236.433 31.0821L234.731 30.0315ZM232.878 36.8636V70H234.878V36.8636H232.878ZM233.878 69H225.832V71H233.878V69ZM264.679 89.2955L264.887 88.3174L264.877 88.3152L264.867 88.3133L264.679 89.2955ZM262.463 88.6818L261.502 88.4047L261.272 89.2041L262.016 89.5762L262.463 88.6818ZM264.509 81.5909L264.756 80.6221L263.817 80.3817L263.548 81.3138L264.509 81.5909ZM269.69 82.1364L269.6 81.1405L269.69 82.1364ZM273.679 80.125L272.972 79.4179L272.965 79.4247L272.958 79.4316L273.679 80.125ZM276.918 74.3636L277.856 74.7086L277.857 74.7079L276.918 74.3636ZM278.418 70.2727L279.357 70.617L279.483 70.2722L279.356 69.9275L278.418 70.2727ZM259.054 17.6364V16.6364H257.621L258.115 17.9816L259.054 17.6364ZM267.781 17.6364L268.726 17.309L268.493 16.6364H267.781V17.6364ZM282.236 59.3636L281.291 59.691L281.524 60.3636H282.236V59.3636ZM282.781 59.3636V60.3636H283.493L283.726 59.691L282.781 59.3636ZM297.236 17.6364V16.6364H296.524L296.291 17.309L297.236 17.6364ZM305.963 17.6364L306.901 17.9837L307.4 16.6364H305.963V17.6364ZM283.736 77.6364L282.798 77.289L282.798 77.2896L283.736 77.6364ZM280.02 84.3523L279.252 83.7121L279.248 83.7169L280.02 84.3523ZM274.872 88.3409L274.468 87.4262L274.464 87.428L274.872 88.3409ZM268.327 88.6364C267.017 88.6364 265.872 88.527 264.887 88.3174L264.471 90.2736C265.622 90.5185 266.91 90.6364 268.327 90.6364V88.6364ZM264.867 88.3133C263.799 88.1088 263.184 87.924 262.91 87.7874L262.016 89.5762C262.561 89.8487 263.422 90.073 264.491 90.2776L264.867 88.3133ZM263.424 88.959L265.469 81.8681L263.548 81.3138L261.502 88.4047L263.424 88.959ZM264.261 82.5597C266.291 83.079 268.136 83.2818 269.781 83.1323L269.6 81.1405C268.245 81.2637 266.636 81.1028 264.756 80.6221L264.261 82.5597ZM269.781 83.1323C271.547 82.9717 273.093 82.1758 274.4 80.8184L272.958 79.4316C271.946 80.4833 270.833 81.0283 269.6 81.1405L269.781 83.1323ZM274.386 80.8321C275.718 79.5001 276.859 77.4218 277.856 74.7086L275.979 74.0187C275.022 76.6237 274.004 78.3862 272.972 79.4179L274.386 80.8321ZM277.857 74.7079L279.357 70.617L277.479 69.9285L275.979 74.0194L277.857 74.7079ZM279.356 69.9275L259.992 17.2911L258.115 17.9816L277.479 70.618L279.356 69.9275ZM259.054 18.6364H267.781V16.6364H259.054V18.6364ZM266.836 17.9637L281.291 59.691L283.181 59.0363L268.726 17.309L266.836 17.9637ZM282.236 60.3636H282.781V58.3636H282.236V60.3636ZM283.726 59.691L298.181 17.9637L296.291 17.309L281.836 59.0363L283.726 59.691ZM297.236 18.6364H305.963V16.6364H297.236V18.6364ZM305.025 17.289L282.798 77.289L284.674 77.9837L306.901 17.9837L305.025 17.289ZM282.798 77.2896C281.828 79.9129 280.64 82.0455 279.252 83.7121L280.788 84.9925C282.354 83.1136 283.644 80.7689 284.674 77.9832L282.798 77.2896ZM279.248 83.7169C277.861 85.4026 276.267 86.6311 274.468 87.4262L275.276 89.2556C277.386 88.3234 279.225 86.8928 280.792 84.9876L279.248 83.7169ZM274.464 87.428C272.678 88.2263 270.639 88.6364 268.327 88.6364V90.6364C270.878 90.6364 273.202 90.1828 275.28 89.2538L274.464 87.428ZM347.537 70V71H348.243L348.479 70.3345L347.537 70ZM338.673 70L337.735 69.6553L337.241 71H338.673V70ZM364.31 0.181816V-0.818184H363.612L363.371 -0.16287L364.31 0.181816ZM373.037 0.181816L373.976 -0.16287L373.735 -0.818184H373.037V0.181816ZM398.673 70V71H400.106L399.612 69.6553L398.673 70ZM389.81 70L388.867 70.3345L389.104 71H389.81V70ZM368.946 11.2273L369.888 10.8927L369.652 10.2273H368.946V11.2273ZM368.401 11.2273V10.2273H367.694L367.458 10.8927L368.401 11.2273ZM350.81 42.7273V41.7273H349.81V42.7273H350.81ZM386.537 42.7273H387.537V41.7273H386.537V42.7273ZM386.537 50.2273V51.2273H387.537V50.2273H386.537ZM350.81 50.2273H349.81V51.2273H350.81V50.2273ZM347.537 69H338.673V71H347.537V69ZM339.612 70.3447L365.248 0.526503L363.371 -0.16287L337.735 69.6553L339.612 70.3447ZM364.31 1.18182H373.037V-0.818184H364.31V1.18182ZM372.098 0.526503L397.735 70.3447L399.612 69.6553L373.976 -0.16287L372.098 0.526503ZM398.673 69H389.81V71H398.673V69ZM390.752 69.6655L369.888 10.8927L368.004 11.5618L388.867 70.3345L390.752 69.6655ZM368.946 10.2273H368.401V12.2273H368.946V10.2273ZM367.458 10.8927L346.595 69.6655L348.479 70.3345L369.343 11.5618L367.458 10.8927ZM350.81 43.7273H386.537V41.7273H350.81V43.7273ZM385.537 42.7273V50.2273H387.537V42.7273H385.537ZM386.537 49.2273H350.81V51.2273H386.537V49.2273ZM351.81 50.2273V42.7273H349.81V50.2273H351.81ZM408.457 89.6364H407.457V90.6364H408.457V89.6364ZM408.457 17.6364V16.6364H407.457V17.6364H408.457ZM416.23 17.6364H417.23V16.6364H416.23V17.6364ZM416.23 25.9545H415.23V26.9545H416.23V25.9545ZM417.185 25.9545V26.9545H417.727L418.023 26.4995L417.185 25.9545ZM419.639 22.4773L418.838 21.8793L418.836 21.8814L419.639 22.4773ZM424.207 18.6591L424.698 19.5304L424.701 19.5285L424.207 18.6591ZM443.98 20.2614L444.528 19.425L443.98 20.2614ZM451.855 29.6364L452.761 29.2138L451.855 29.6364ZM451.855 58.375L452.761 58.7976L452.762 58.7957L451.855 58.375ZM444.014 67.7841L444.565 68.6188L444.569 68.6161L444.014 67.7841ZM424.378 69.4205L423.888 70.2923L423.896 70.2965L424.378 69.4205ZM419.707 65.5682L418.907 66.1682L418.912 66.1742L419.707 65.5682ZM417.185 61.9545L418.035 61.4282L417.742 60.9545H417.185V61.9545ZM416.503 61.9545V60.9545H415.503V61.9545H416.503ZM416.503 89.6364V90.6364H417.503V89.6364H416.503ZM418.105 54.2841L417.171 54.6421L417.172 54.6445L418.105 54.2841ZM423.185 61.3409L422.577 62.1351L422.582 62.1389L423.185 61.3409ZM439.787 61.2045L440.406 61.99L440.407 61.9892L439.787 61.2045ZM444.901 53.9773L443.966 53.6216L443.965 53.6254L444.901 53.9773ZM444.935 33.8636L443.998 34.214L444.001 34.2226L444.935 33.8636ZM439.855 26.8068L439.241 27.5962L439.25 27.603L439.855 26.8068ZM423.116 26.6705L423.709 27.4764L423.714 27.4724L423.116 26.6705ZM418.071 33.5568L419.003 33.9182L419.004 33.9158L418.071 33.5568ZM409.457 89.6364V17.6364H407.457V89.6364H409.457ZM408.457 18.6364H416.23V16.6364H408.457V18.6364ZM415.23 17.6364V25.9545H417.23V17.6364H415.23ZM416.23 26.9545H417.185V24.9545H416.23V26.9545ZM418.023 26.4995C418.598 25.615 419.403 24.4744 420.442 23.0731L418.836 21.8814C417.785 23.2983 416.953 24.4759 416.346 25.4096L418.023 26.4995ZM420.441 23.0752C421.406 21.7811 422.811 20.5934 424.698 19.5304L423.717 17.7878C421.65 18.952 420.009 20.3098 418.838 21.8793L420.441 23.0752ZM424.701 19.5285C426.495 18.5093 429.008 17.9545 432.321 17.9545V15.9545C428.816 15.9545 425.919 16.5362 423.713 17.7896L424.701 19.5285ZM432.321 17.9545C436.555 17.9545 440.247 19.0102 443.432 21.0977L444.528 19.425C440.986 17.1035 436.905 15.9545 432.321 15.9545V17.9545ZM443.432 21.0977C446.623 23.1894 449.132 26.163 450.949 30.059L452.761 29.2138C450.805 25.0189 448.064 21.7424 444.528 19.425L443.432 21.0977ZM450.949 30.059C452.761 33.945 453.685 38.5674 453.685 43.9545H455.685C455.685 38.3416 454.722 33.4186 452.761 29.2138L450.949 30.059ZM453.685 43.9545C453.685 49.3882 452.76 54.0453 450.948 57.9543L452.762 58.7957C454.723 54.5683 455.685 49.6118 455.685 43.9545H453.685ZM450.949 57.9524C449.131 61.8508 446.631 64.8375 443.46 66.952L444.569 68.6161C448.079 66.2761 450.806 62.9901 452.761 58.7976L450.949 57.9524ZM443.463 66.9494C440.301 69.0364 436.644 70.0909 432.457 70.0909V72.0909C436.998 72.0909 441.046 70.9409 444.565 68.6188L443.463 66.9494ZM432.457 70.0909C429.191 70.0909 426.683 69.548 424.86 68.5444L423.896 70.2965C426.118 71.5202 428.997 72.0909 432.457 72.0909V70.0909ZM424.868 68.5486C422.931 67.4606 421.491 66.259 420.503 64.9621L418.912 66.1742C420.106 67.741 421.779 69.1076 423.888 70.2923L424.868 68.5486ZM420.507 64.9682C419.425 63.5248 418.604 62.3469 418.035 61.4282L416.334 62.4809C416.947 63.4713 417.808 64.7024 418.907 66.1682L420.507 64.9682ZM417.185 60.9545H416.503V62.9545H417.185V60.9545ZM415.503 61.9545V89.6364H417.503V61.9545H415.503ZM416.503 88.6364H408.457V90.6364H416.503V88.6364ZM415.366 43.8182C415.366 47.8688 415.96 51.4829 417.171 54.6421L419.039 53.9261C417.932 51.0398 417.366 47.6766 417.366 43.8182H415.366ZM417.172 54.6445C418.388 57.7905 420.183 60.303 422.577 62.135L423.792 60.5468C421.732 58.9698 420.141 56.7777 419.038 53.9237L417.172 54.6445ZM422.582 62.1389C425.009 63.9717 427.957 64.8636 431.366 64.8636V62.8636C428.321 62.8636 425.815 62.0738 423.787 60.5429L422.582 62.1389ZM431.366 64.8636C434.914 64.8636 437.95 63.925 440.406 61.99L439.168 60.4191C437.124 62.0295 434.546 62.8636 431.366 62.8636V64.8636ZM440.407 61.9892C442.838 60.0684 444.644 57.5021 445.837 54.3292L443.965 53.6254C442.885 56.4979 441.281 58.7498 439.167 60.4199L440.407 61.9892ZM445.835 54.333C447.043 51.1588 447.639 47.6497 447.639 43.8182H445.639C445.639 47.4412 445.076 50.7048 443.966 53.6216L445.835 54.333ZM447.639 43.8182C447.639 40.0333 447.055 36.5908 445.868 33.5047L444.001 34.2226C445.087 37.0456 445.639 40.2394 445.639 43.8182H447.639ZM445.871 33.5133C444.699 30.3798 442.9 27.8649 440.46 26.0107L439.25 27.603C441.356 29.2032 442.943 31.3929 443.998 34.214L445.871 33.5133ZM440.469 26.0175C438.011 24.1056 434.953 23.1818 431.366 23.1818V25.1818C434.598 25.1818 437.199 26.008 439.241 27.5962L440.469 26.0175ZM431.366 23.1818C427.918 23.1818 424.948 24.059 422.519 25.8685L423.714 27.4724C425.739 25.9637 428.269 25.1818 431.366 25.1818V23.1818ZM422.524 25.8646C420.121 27.63 418.332 30.0914 417.138 33.1978L419.004 33.9158C420.082 31.1132 421.657 28.9837 423.709 27.4763L422.524 25.8646ZM417.139 33.1954C415.948 36.2667 415.366 39.8145 415.366 43.8182H417.366C417.366 40.0037 417.921 36.7105 419.003 33.9182L417.139 33.1954ZM466.957 89.6364H465.957V90.6364H466.957V89.6364ZM466.957 17.6364V16.6364H465.957V17.6364H466.957ZM474.73 17.6364H475.73V16.6364H474.73V17.6364ZM474.73 25.9545H473.73V26.9545H474.73V25.9545ZM475.685 25.9545V26.9545H476.227L476.523 26.4995L475.685 25.9545ZM478.139 22.4773L477.338 21.8793L477.336 21.8814L478.139 22.4773ZM482.707 18.6591L483.198 19.5304L483.201 19.5285L482.707 18.6591ZM502.48 20.2614L503.028 19.425L502.48 20.2614ZM510.355 29.6364L511.261 29.2138L510.355 29.6364ZM510.355 58.375L511.261 58.7976L511.262 58.7957L510.355 58.375ZM502.514 67.7841L503.065 68.6188L503.069 68.6161L502.514 67.7841ZM482.878 69.4205L482.388 70.2923L482.396 70.2965L482.878 69.4205ZM478.207 65.5682L477.407 66.1682L477.412 66.1742L478.207 65.5682ZM475.685 61.9545L476.535 61.4282L476.242 60.9545H475.685V61.9545ZM475.003 61.9545V60.9545H474.003V61.9545H475.003ZM475.003 89.6364V90.6364H476.003V89.6364H475.003ZM476.605 54.2841L475.671 54.6421L475.672 54.6445L476.605 54.2841ZM481.685 61.3409L481.077 62.1351L481.082 62.1389L481.685 61.3409ZM498.287 61.2045L498.906 61.99L498.907 61.9892L498.287 61.2045ZM503.401 53.9773L502.466 53.6216L502.465 53.6254L503.401 53.9773ZM503.435 33.8636L502.498 34.214L502.501 34.2226L503.435 33.8636ZM498.355 26.8068L497.741 27.5962L497.75 27.603L498.355 26.8068ZM481.616 26.6705L482.209 27.4764L482.214 27.4724L481.616 26.6705ZM476.571 33.5568L477.503 33.9182L477.504 33.9158L476.571 33.5568ZM467.957 89.6364V17.6364H465.957V89.6364H467.957ZM466.957 18.6364H474.73V16.6364H466.957V18.6364ZM473.73 17.6364V25.9545H475.73V17.6364H473.73ZM474.73 26.9545H475.685V24.9545H474.73V26.9545ZM476.523 26.4995C477.098 25.615 477.903 24.4744 478.942 23.0731L477.336 21.8814C476.285 23.2983 475.453 24.4759 474.846 25.4096L476.523 26.4995ZM478.941 23.0752C479.906 21.7811 481.311 20.5934 483.198 19.5304L482.217 17.7878C480.15 18.952 478.509 20.3098 477.338 21.8793L478.941 23.0752ZM483.201 19.5285C484.995 18.5093 487.508 17.9545 490.821 17.9545V15.9545C487.316 15.9545 484.419 16.5362 482.213 17.7896L483.201 19.5285ZM490.821 17.9545C495.055 17.9545 498.747 19.0102 501.932 21.0977L503.028 19.425C499.486 17.1035 495.405 15.9545 490.821 15.9545V17.9545ZM501.932 21.0977C505.123 23.1894 507.632 26.163 509.449 30.059L511.261 29.2138C509.305 25.0189 506.564 21.7424 503.028 19.425L501.932 21.0977ZM509.449 30.059C511.261 33.945 512.185 38.5674 512.185 43.9545H514.185C514.185 38.3416 513.222 33.4186 511.261 29.2138L509.449 30.059ZM512.185 43.9545C512.185 49.3882 511.26 54.0453 509.448 57.9543L511.262 58.7957C513.223 54.5683 514.185 49.6118 514.185 43.9545H512.185ZM509.449 57.9524C507.631 61.8508 505.131 64.8375 501.96 66.952L503.069 68.6161C506.579 66.2761 509.307 62.9901 511.261 58.7976L509.449 57.9524ZM501.963 66.9494C498.801 69.0364 495.144 70.0909 490.957 70.0909V72.0909C495.498 72.0909 499.546 70.9409 503.065 68.6188L501.963 66.9494ZM490.957 70.0909C487.691 70.0909 485.183 69.548 483.36 68.5444L482.396 70.2965C484.618 71.5202 487.497 72.0909 490.957 72.0909V70.0909ZM483.368 68.5486C481.431 67.4606 479.991 66.259 479.003 64.9621L477.412 66.1742C478.606 67.741 480.279 69.1076 482.388 70.2923L483.368 68.5486ZM479.007 64.9682C477.925 63.5248 477.104 62.3469 476.535 61.4282L474.834 62.4809C475.447 63.4713 476.308 64.7024 477.407 66.1682L479.007 64.9682ZM475.685 60.9545H475.003V62.9545H475.685V60.9545ZM474.003 61.9545V89.6364H476.003V61.9545H474.003ZM475.003 88.6364H466.957V90.6364H475.003V88.6364ZM473.866 43.8182C473.866 47.8688 474.46 51.4829 475.671 54.6421L477.539 53.9261C476.432 51.0398 475.866 47.6766 475.866 43.8182H473.866ZM475.672 54.6445C476.888 57.7905 478.683 60.303 481.077 62.135L482.292 60.5468C480.232 58.9698 478.641 56.7777 477.538 53.9237L475.672 54.6445ZM481.082 62.1389C483.509 63.9717 486.457 64.8636 489.866 64.8636V62.8636C486.821 62.8636 484.315 62.0738 482.287 60.5429L481.082 62.1389ZM489.866 64.8636C493.414 64.8636 496.45 63.925 498.906 61.99L497.668 60.4191C495.624 62.0295 493.046 62.8636 489.866 62.8636V64.8636ZM498.907 61.9892C501.338 60.0684 503.144 57.5021 504.337 54.3292L502.465 53.6254C501.385 56.4979 499.781 58.7498 497.667 60.4199L498.907 61.9892ZM504.335 54.333C505.543 51.1588 506.139 47.6497 506.139 43.8182H504.139C504.139 47.4412 503.576 50.7048 502.466 53.6216L504.335 54.333ZM506.139 43.8182C506.139 40.0333 505.555 36.5908 504.368 33.5047L502.501 34.2226C503.587 37.0456 504.139 40.2394 504.139 43.8182H506.139ZM504.371 33.5133C503.199 30.3798 501.4 27.8649 498.96 26.0107L497.75 27.603C499.856 29.2032 501.443 31.3929 502.498 34.214L504.371 33.5133ZM498.969 26.0175C496.511 24.1056 493.453 23.1818 489.866 23.1818V25.1818C493.098 25.1818 495.699 26.008 497.741 27.5962L498.969 26.0175ZM489.866 23.1818C486.418 23.1818 483.448 24.059 481.019 25.8685L482.214 27.4724C484.239 25.9637 486.769 25.1818 489.866 25.1818V23.1818ZM481.024 25.8646C478.621 27.63 476.832 30.0914 475.638 33.1978L477.504 33.9158C478.582 31.1132 480.157 28.9837 482.209 27.4763L481.024 25.8646ZM475.639 33.1954C474.448 36.2667 473.866 39.8145 473.866 43.8182H475.866C475.866 40.0037 476.421 36.7105 477.503 33.9182L475.639 33.1954Z" fill="#F79E1B"/>
</g>
<defs>
<filter id="filter0_d_115_1880" x="0.45459" y="0.181824" width="516.73" height="97.4545" filterUnits="userSpaceOnUse" color-interpolation-filters="sRGB">
<feFlood flood-opacity="0" result="BackgroundImageFix"/>
<feColorMatrix in="SourceAlpha" type="matrix" values="0 0 0 0 0 0 0 0 0 0 0 0 0 0 0 0 0 0 127 0" result="hardAlpha"/>
<feOffset dy="4"/>
<feGaussianBlur stdDeviation="2"/>
<feComposite in2="hardAlpha" operator="out"/>
<feColorMatrix type="matrix" values="0 0 0 0 0 0 0 0 0 0 0 0 0 0 0 0 0 0 0.25 0"/>
<feBlend mode="normal" in2="BackgroundImageFix" result="effect1_dropShadow_115_1880"/>
<feBlend mode="normal" in="SourceGraphic" in2="effect1_dropShadow_115_1880" result="shape"/>
</filter>
</defs>
</svg>
