<svg width="683" height="51" viewBox="0 0 683 51" fill="none" xmlns="http://www.w3.org/2000/svg">
<path d="M52.768 49.424C51.616 50.1493 50.4 50.512 49.12 50.512C47.84 50.512 46.8373 50.128 46.112 49.36C45.4293 48.592 45.0027 47.312 44.832 45.52L42.592 11.28L29.024 47.504C28.5547 48.8693 27.616 49.552 26.208 49.552C24.8 49.552 23.8613 48.8693 23.392 47.504L10.016 11.28L7.776 45.328C7.648 47.1627 7.28533 48.5067 6.688 49.36C6.09067 50.1707 5.10933 50.576 3.744 50.576C2.37867 50.576 1.14133 50.0213 0.0320001 48.912C0.885334 48.1867 1.376 46.8853 1.504 45.008L4.192 8.912C4.192 8.656 4.192 8.42133 4.192 8.208C4.192 6.8 3.85067 5.69066 3.168 4.88C5.00267 3.77067 6.92267 3.216 8.928 3.216C10.9333 3.216 12.4907 3.77067 13.6 4.88C14.7093 5.98933 15.648 7.73867 16.416 10.128L26.72 37.968L37.344 10.256C38.1973 7.61066 39.264 5.776 40.544 4.752C41.8667 3.728 43.424 3.216 45.216 3.216C47.008 3.216 48.672 3.6 50.208 4.368C49.5253 5.30666 49.184 6.48 49.184 7.888C49.184 8.10133 49.184 8.336 49.184 8.592L51.68 44.88C51.7653 47.0987 52.128 48.6133 52.768 49.424ZM82.2695 23.952C80.4775 21.6907 78.2375 20.56 75.5495 20.56C72.9042 20.56 70.8775 21.5413 69.4695 23.504C68.0615 25.4667 67.3575 28.2827 67.3575 31.952C67.3575 37.2 68.2748 40.976 70.1095 43.28C71.9442 45.5413 74.1842 46.672 76.8295 46.672C79.4748 46.672 81.4802 45.6693 82.8455 43.664C84.2535 41.6587 84.9575 38.8427 84.9575 35.216C84.9575 29.9253 84.0615 26.1707 82.2695 23.952ZM60.5735 33.616C60.5735 28.1973 62.0668 24.016 65.0535 21.072C68.0402 18.0853 71.7308 16.592 76.1255 16.592C80.5628 16.592 84.2748 18.0853 87.2615 21.072C90.2482 24.0587 91.7415 28.24 91.7415 33.616C91.7415 38.992 90.2482 43.1733 87.2615 46.16C84.2748 49.104 80.5842 50.576 76.1895 50.576C71.7948 50.576 68.0828 49.104 65.0535 46.16C62.0668 43.1733 60.5735 38.992 60.5735 33.616ZM120.283 23.504C120.71 22.3947 120.923 21.3493 120.923 20.368C120.923 19.344 120.624 18.4693 120.027 17.744C121.136 16.976 122.288 16.592 123.483 16.592C124.678 16.592 125.616 16.9333 126.299 17.616C127.024 18.2987 127.387 19.152 127.387 20.176C127.387 21.1573 127.11 22.3947 126.555 23.888L118.107 45.072C117.339 47.0773 116.528 48.4853 115.675 49.296C114.822 50.1067 113.606 50.512 112.027 50.512C110.448 50.512 109.211 50.1067 108.315 49.296C107.419 48.4853 106.651 47.0773 106.011 45.072L98.651 22.8C98.0537 21.0933 97.1577 20.0907 95.963 19.792C96.1337 18.8533 96.6243 18.0853 97.435 17.488C98.2883 16.8907 99.227 16.592 100.251 16.592C102.854 16.592 104.582 18.2133 105.435 21.456L112.155 46.032L120.283 23.504ZM138.091 2.256C139.328 2.256 140.352 2.64 141.163 3.408C142.016 4.13333 142.443 5.11466 142.443 6.352C142.443 7.58933 141.91 8.72 140.843 9.744C139.776 10.7253 138.56 11.216 137.195 11.216C135.872 11.216 134.806 10.832 133.995 10.064C133.184 9.296 132.779 8.272 132.779 6.992C132.779 5.66933 133.355 4.56 134.507 3.664C135.659 2.72533 136.854 2.256 138.091 2.256ZM141.163 22.032V45.264C141.163 46.8 141.76 47.824 142.955 48.336C141.846 49.8293 140.48 50.576 138.859 50.576C135.958 50.576 134.507 48.784 134.507 45.2V21.968C134.507 20.4747 133.91 19.4293 132.715 18.832C133.824 17.3387 135.19 16.592 136.811 16.592C139.712 16.592 141.163 18.4053 141.163 22.032ZM167.233 29.84C168.897 29.712 169.729 28.752 169.729 26.96C169.729 25.168 169.238 23.696 168.257 22.544C167.318 21.3493 165.974 20.752 164.225 20.752C162.476 20.752 160.876 21.6267 159.425 23.376C158.017 25.1253 157.142 27.6 156.801 30.8L167.233 29.84ZM156.609 34.192C156.652 38.0747 157.526 40.9547 159.233 42.832C160.982 44.6667 163.436 45.584 166.593 45.584C169.793 45.584 172.588 44.3893 174.977 42C175.702 42.384 176.065 43.0453 176.065 43.984C176.065 45.5627 174.977 47.056 172.801 48.464C170.625 49.872 168.065 50.576 165.121 50.576C160.513 50.576 156.801 49.2107 153.985 46.48C151.169 43.7067 149.761 39.7813 149.761 34.704C149.761 29.6267 151.297 25.3387 154.369 21.84C157.441 18.3413 161.089 16.592 165.313 16.592C168.641 16.592 171.35 17.7227 173.441 19.984C175.532 22.2027 176.577 24.7413 176.577 27.6C176.577 29.6907 176.022 31.2267 174.913 32.208C173.846 33.1893 172.054 33.7013 169.537 33.744L156.609 34.192ZM203.801 3.728H227.929C230.83 3.728 232.281 4.88 232.281 7.184C232.281 8.208 231.875 9.12533 231.065 9.936C229.785 9.296 228.057 8.976 225.881 8.976H218.137V45.264C218.137 46.8 218.713 47.824 219.865 48.336C218.841 49.8293 217.497 50.576 215.833 50.576C212.889 50.576 211.417 48.784 211.417 45.2V8.976H201.689C198.83 8.976 197.401 7.824 197.401 5.52C197.401 4.496 197.785 3.6 198.553 2.832C199.79 3.42933 201.539 3.728 203.801 3.728ZM266.785 27.792V45.264C266.785 46.8 267.382 47.824 268.576 48.336C267.467 49.8293 266.102 50.576 264.481 50.576C261.579 50.576 260.129 48.784 260.129 45.2V28.432C260.129 24.2933 258.315 22.224 254.689 22.224C252.769 22.224 250.934 23.0347 249.185 24.656C247.478 26.2773 246.283 28.4747 245.601 31.248V45.264C245.601 46.8 246.198 47.824 247.393 48.336C246.283 49.8293 244.918 50.576 243.297 50.576C240.395 50.576 238.945 48.784 238.945 45.2V6.224C238.945 4.73066 238.347 3.68533 237.153 3.088C238.177 1.63733 239.542 0.911999 241.249 0.911999C244.15 0.911999 245.601 2.704 245.601 6.288V24.144C246.71 21.84 248.289 20.0053 250.337 18.64C252.385 17.2747 254.774 16.592 257.505 16.592C260.235 16.592 262.454 17.5307 264.161 19.408C265.91 21.2853 266.785 24.08 266.785 27.792ZM292.733 29.84C294.397 29.712 295.229 28.752 295.229 26.96C295.229 25.168 294.738 23.696 293.757 22.544C292.818 21.3493 291.474 20.752 289.725 20.752C287.976 20.752 286.376 21.6267 284.925 23.376C283.517 25.1253 282.642 27.6 282.301 30.8L292.733 29.84ZM282.109 34.192C282.152 38.0747 283.026 40.9547 284.733 42.832C286.482 44.6667 288.936 45.584 292.093 45.584C295.293 45.584 298.088 44.3893 300.477 42C301.202 42.384 301.565 43.0453 301.565 43.984C301.565 45.5627 300.477 47.056 298.301 48.464C296.125 49.872 293.565 50.576 290.621 50.576C286.013 50.576 282.301 49.2107 279.485 46.48C276.669 43.7067 275.261 39.7813 275.261 34.704C275.261 29.6267 276.797 25.3387 279.869 21.84C282.941 18.3413 286.589 16.592 290.813 16.592C294.141 16.592 296.85 17.7227 298.941 19.984C301.032 22.2027 302.077 24.7413 302.077 27.6C302.077 29.6907 301.522 31.2267 300.413 32.208C299.346 33.1893 297.554 33.7013 295.037 33.744L282.109 34.192ZM314.682 41.68C314.682 44.4107 316.175 45.776 319.162 45.776C322.149 45.776 324.602 44.5173 326.522 42V34.768C322.469 34.9813 319.482 35.728 317.562 37.008C315.642 38.2453 314.682 39.8027 314.682 41.68ZM333.242 27.28V43.536C333.242 45.9253 334.309 47.3333 336.442 47.76C335.375 49.6373 333.733 50.576 331.514 50.576C328.655 50.576 327.013 48.976 326.586 45.776C324.111 48.976 320.805 50.576 316.666 50.576C313.935 50.576 311.717 49.8507 310.01 48.4C308.303 46.9493 307.45 44.944 307.45 42.384C307.45 39.2267 309.071 36.688 312.314 34.768C315.557 32.8053 320.293 31.7387 326.522 31.568V27.088C326.522 24.784 326.095 23.0987 325.242 22.032C324.431 20.9227 323.151 20.368 321.402 20.368C319.695 20.368 318.394 20.752 317.498 21.52C316.602 22.2453 316.154 23.1413 316.154 24.208C316.154 25.232 316.453 26.064 317.05 26.704C315.983 27.6427 314.746 28.112 313.338 28.112C311.93 28.112 310.821 27.7707 310.01 27.088C309.242 26.3627 308.858 25.3813 308.858 24.144C308.858 22.0107 310.095 20.2187 312.57 18.768C315.045 17.3173 318.031 16.592 321.53 16.592C325.071 16.592 327.909 17.5093 330.042 19.344C332.175 21.1787 333.242 23.824 333.242 27.28ZM351.23 21.904V41.296C351.23 42.832 351.507 43.9413 352.062 44.624C352.659 45.264 353.619 45.584 354.942 45.584C357.545 45.584 359.934 44.496 362.11 42.32C363.049 42.4907 363.518 43.2587 363.518 44.624C363.518 45.9893 362.537 47.3333 360.574 48.656C358.654 49.936 356.265 50.576 353.406 50.576C350.59 50.576 348.393 49.8507 346.814 48.4C345.278 46.9067 344.51 44.7093 344.51 41.808V21.904C342.761 21.8613 341.481 21.584 340.67 21.072C339.859 20.5173 339.454 19.8133 339.454 18.96C339.454 18.1067 339.774 17.4453 340.414 16.976C341.609 17.1467 342.739 17.232 343.806 17.232H344.51V13.008C344.51 11.472 343.913 10.448 342.718 9.936C343.742 8.44267 345.086 7.696 346.75 7.696C349.737 7.696 351.23 9.488 351.23 13.072V17.232H361.598C361.854 17.616 361.982 18 361.982 18.384C361.982 20.7307 358.654 21.904 351.998 21.904H351.23ZM385.483 29.84C387.147 29.712 387.979 28.752 387.979 26.96C387.979 25.168 387.488 23.696 386.507 22.544C385.568 21.3493 384.224 20.752 382.475 20.752C380.726 20.752 379.126 21.6267 377.675 23.376C376.267 25.1253 375.392 27.6 375.051 30.8L385.483 29.84ZM374.859 34.192C374.902 38.0747 375.776 40.9547 377.483 42.832C379.232 44.6667 381.686 45.584 384.843 45.584C388.043 45.584 390.838 44.3893 393.227 42C393.952 42.384 394.315 43.0453 394.315 43.984C394.315 45.5627 393.227 47.056 391.051 48.464C388.875 49.872 386.315 50.576 383.371 50.576C378.763 50.576 375.051 49.2107 372.235 46.48C369.419 43.7067 368.011 39.7813 368.011 34.704C368.011 29.6267 369.547 25.3387 372.619 21.84C375.691 18.3413 379.339 16.592 383.563 16.592C386.891 16.592 389.6 17.7227 391.691 19.984C393.782 22.2027 394.827 24.7413 394.827 27.6C394.827 29.6907 394.272 31.2267 393.163 32.208C392.096 33.1893 390.304 33.7013 387.787 33.744L374.859 34.192ZM409.288 22.032V23.312C410.995 18.832 413.917 16.592 418.056 16.592C420.104 16.592 421.704 17.1253 422.856 18.192C424.008 19.2587 424.584 20.5813 424.584 22.16C424.584 23.696 424.179 24.8907 423.368 25.744C422.6 26.5547 421.576 26.96 420.296 26.96C420.253 26.96 419.72 26.896 418.696 26.768C418.824 26.128 418.888 25.4453 418.888 24.72C418.888 23.952 418.589 23.2907 417.992 22.736C417.437 22.1387 416.584 21.84 415.432 21.84C414.28 21.84 413.085 22.48 411.848 23.76C410.653 24.9973 409.8 26.96 409.288 29.648V45.264C409.288 46.8 409.885 47.824 411.08 48.336C409.971 49.8293 408.605 50.576 406.984 50.576C404.083 50.576 402.632 48.784 402.632 45.2V21.968C402.632 20.4747 402.035 19.4293 400.84 18.832C401.949 17.3387 403.315 16.592 404.936 16.592C407.837 16.592 409.288 18.4053 409.288 22.032ZM498.683 7.76C498.683 6.39466 498.235 5.34933 497.339 4.624C498.363 3.68533 499.579 3.216 500.987 3.216C503.803 3.216 505.211 4.60267 505.211 7.376C505.211 7.84533 505.083 8.76266 504.827 10.128L495.355 45.392C494.502 48.848 492.646 50.576 489.787 50.576C486.971 50.576 485.179 48.848 484.411 45.392L475.771 12.816L467.003 45.392C466.576 47.2693 465.915 48.6133 465.019 49.424C464.123 50.192 462.928 50.576 461.435 50.576C459.942 50.576 458.768 50.2133 457.915 49.488C457.104 48.72 456.464 47.3547 455.995 45.392L446.651 9.744C446.096 7.61067 445.2 6.26667 443.963 5.712C445.03 4.048 446.544 3.216 448.507 3.216C449.787 3.216 450.832 3.64267 451.643 4.496C452.454 5.30666 453.072 6.736 453.499 8.784L461.755 43.472L471.291 7.248C471.718 5.75467 472.315 4.70933 473.083 4.112C473.894 3.51467 474.939 3.216 476.219 3.216C478.864 3.216 480.507 4.56 481.147 7.248L490.235 43.664L498.427 9.872C498.598 9.104 498.683 8.4 498.683 7.76ZM527.171 29.84C528.835 29.712 529.667 28.752 529.667 26.96C529.667 25.168 529.176 23.696 528.195 22.544C527.256 21.3493 525.912 20.752 524.163 20.752C522.413 20.752 520.813 21.6267 519.363 23.376C517.955 25.1253 517.08 27.6 516.739 30.8L527.171 29.84ZM516.547 34.192C516.589 38.0747 517.464 40.9547 519.171 42.832C520.92 44.6667 523.373 45.584 526.531 45.584C529.731 45.584 532.525 44.3893 534.915 42C535.64 42.384 536.003 43.0453 536.003 43.984C536.003 45.5627 534.915 47.056 532.739 48.464C530.563 49.872 528.003 50.576 525.059 50.576C520.451 50.576 516.739 49.2107 513.923 46.48C511.107 43.7067 509.699 39.7813 509.699 34.704C509.699 29.6267 511.235 25.3387 514.307 21.84C517.379 18.3413 521.027 16.592 525.251 16.592C528.579 16.592 531.288 17.7227 533.379 19.984C535.469 22.2027 536.515 24.7413 536.515 27.6C536.515 29.6907 535.96 31.2267 534.851 32.208C533.784 33.1893 531.992 33.7013 529.475 33.744L516.547 34.192ZM550.784 39.76C550.784 43.9413 553.002 46.032 557.44 46.032C560.426 46.032 562.773 44.88 564.48 42.576C566.229 40.272 567.104 37.2427 567.104 33.488C567.104 29.6907 566.272 26.7893 564.608 24.784C562.986 22.736 560.981 21.712 558.592 21.712C555.178 21.712 552.576 23.504 550.784 27.088V39.76ZM550.848 6.288V21.328C553.152 18.1707 556.224 16.592 560.064 16.592C563.946 16.592 567.232 18 569.92 20.816C572.608 23.632 573.951 27.664 573.951 32.912C573.951 38.16 572.352 42.4053 569.152 45.648C565.994 48.8907 562.005 50.5333 557.184 50.576C548.437 50.576 544.064 46.9707 544.064 39.76L544.128 6.224C544.128 4.688 543.53 3.64266 542.336 3.088C543.402 1.63733 544.789 0.911999 546.496 0.911999C549.397 0.911999 550.848 2.704 550.848 6.288ZM604.924 23.376C604.924 24.4427 604.561 25.296 603.836 25.936C603.11 26.5333 602.172 26.832 601.02 26.832C599.91 26.832 598.908 26.512 598.012 25.872C598.225 25.4453 598.332 24.8053 598.332 23.952C598.332 23.0987 597.884 22.3307 596.988 21.648C596.092 20.9653 594.769 20.624 593.02 20.624C591.313 20.624 589.948 21.008 588.924 21.776C587.9 22.544 587.388 23.504 587.388 24.656C587.388 25.7653 588.006 26.7893 589.244 27.728C590.524 28.624 592.06 29.4773 593.852 30.288C595.644 31.056 597.436 31.888 599.228 32.784C601.062 33.68 602.598 34.832 603.836 36.24C605.116 37.648 605.756 39.2053 605.756 40.912C605.756 43.6427 604.476 45.9467 601.916 47.824C599.398 49.6587 596.22 50.576 592.38 50.576C588.582 50.576 585.468 49.872 583.036 48.464C580.604 47.0133 579.366 45.1787 579.324 42.96C579.324 41.552 579.75 40.464 580.604 39.696C581.457 38.8853 582.502 38.48 583.74 38.48C585.02 38.48 586.065 38.9493 586.876 39.888C586.236 40.656 585.916 41.5947 585.916 42.704C585.916 43.8133 586.449 44.7307 587.516 45.456C588.625 46.1813 590.182 46.544 592.188 46.544C594.236 46.544 595.878 46.1173 597.116 45.264C598.353 44.4107 598.972 43.344 598.972 42.064C598.972 40.784 598.332 39.6747 597.052 38.736C595.814 37.7547 594.3 36.88 592.508 36.112C590.758 35.344 588.988 34.5333 587.196 33.68C585.404 32.8267 583.868 31.7387 582.588 30.416C581.35 29.0933 580.732 27.6 580.732 25.936C580.732 23.3333 581.905 21.136 584.252 19.344C586.641 17.5093 589.5 16.592 592.828 16.592C596.156 16.592 598.993 17.232 601.34 18.512C603.729 19.7493 604.924 21.3707 604.924 23.376ZM617.966 2.256C619.203 2.256 620.227 2.64 621.038 3.408C621.891 4.13333 622.318 5.11466 622.318 6.352C622.318 7.58933 621.785 8.72 620.718 9.744C619.651 10.7253 618.435 11.216 617.07 11.216C615.747 11.216 614.681 10.832 613.87 10.064C613.059 9.296 612.654 8.272 612.654 6.992C612.654 5.66933 613.23 4.56 614.382 3.664C615.534 2.72533 616.729 2.256 617.966 2.256ZM621.038 22.032V45.264C621.038 46.8 621.635 47.824 622.83 48.336C621.721 49.8293 620.355 50.576 618.734 50.576C615.833 50.576 614.382 48.784 614.382 45.2V21.968C614.382 20.4747 613.785 19.4293 612.59 18.832C613.699 17.3387 615.065 16.592 616.686 16.592C619.587 16.592 621.038 18.4053 621.038 22.032ZM638.98 21.904V41.296C638.98 42.832 639.257 43.9413 639.812 44.624C640.409 45.264 641.369 45.584 642.692 45.584C645.295 45.584 647.684 44.496 649.86 42.32C650.799 42.4907 651.268 43.2587 651.268 44.624C651.268 45.9893 650.287 47.3333 648.324 48.656C646.404 49.936 644.015 50.576 641.156 50.576C638.34 50.576 636.143 49.8507 634.564 48.4C633.028 46.9067 632.26 44.7093 632.26 41.808V21.904C630.511 21.8613 629.231 21.584 628.42 21.072C627.609 20.5173 627.204 19.8133 627.204 18.96C627.204 18.1067 627.524 17.4453 628.164 16.976C629.359 17.1467 630.489 17.232 631.556 17.232H632.26V13.008C632.26 11.472 631.663 10.448 630.468 9.936C631.492 8.44267 632.836 7.696 634.5 7.696C637.487 7.696 638.98 9.488 638.98 13.072V17.232H649.348C649.604 17.616 649.732 18 649.732 18.384C649.732 20.7307 646.404 21.904 639.748 21.904H638.98ZM673.233 29.84C674.897 29.712 675.729 28.752 675.729 26.96C675.729 25.168 675.238 23.696 674.257 22.544C673.318 21.3493 671.974 20.752 670.225 20.752C668.476 20.752 666.876 21.6267 665.425 23.376C664.017 25.1253 663.142 27.6 662.801 30.8L673.233 29.84ZM662.609 34.192C662.652 38.0747 663.526 40.9547 665.233 42.832C666.982 44.6667 669.436 45.584 672.593 45.584C675.793 45.584 678.588 44.3893 680.977 42C681.702 42.384 682.065 43.0453 682.065 43.984C682.065 45.5627 680.977 47.056 678.801 48.464C676.625 49.872 674.065 50.576 671.121 50.576C666.513 50.576 662.801 49.2107 659.985 46.48C657.169 43.7067 655.761 39.7813 655.761 34.704C655.761 29.6267 657.297 25.3387 660.369 21.84C663.441 18.3413 667.089 16.592 671.313 16.592C674.641 16.592 677.35 17.7227 679.441 19.984C681.532 22.2027 682.577 24.7413 682.577 27.6C682.577 29.6907 682.022 31.2267 680.913 32.208C679.846 33.1893 678.054 33.7013 675.537 33.744L662.609 34.192Z" fill="white"/>
</svg>
