<svg width="343" height="233" viewBox="0 0 343 233" fill="none" xmlns="http://www.w3.org/2000/svg">
<path fill-rule="evenodd" clip-rule="evenodd" d="M89.408 58.5154C95.645 58.4987 101.805 59.8918 107.428 62.5905C113.051 65.2891 117.991 69.2237 121.88 74.1001C130.278 84.6473 136.891 96.4992 141.456 109.185C143.583 114.49 145.542 119.798 147.418 124.893L147.443 124.958L148.59 128.068C150.825 134.106 152.977 139.777 155.198 144.647C156.992 148.938 159.384 152.955 162.302 156.578C163.359 157.978 164.707 159.131 166.255 159.958C167.802 160.784 169.51 161.264 171.261 161.364H171.323C173.074 161.264 174.782 160.785 176.329 159.959C177.876 159.133 179.225 157.981 180.282 156.581C183.197 152.965 185.588 148.956 187.383 144.672C189.604 139.799 191.737 134.131 193.991 128.093L195.137 124.984L195.163 124.918C197.042 119.838 198.998 114.515 201.124 109.21C205.689 96.5155 212.303 84.6549 220.704 74.1001C224.593 69.2239 229.533 65.2895 235.156 62.5908C240.779 59.8921 246.939 58.499 253.176 58.5154C266.932 58.5952 279.872 65.8197 291.367 76.8179C303.122 88.6158 312.921 102.212 320.396 117.095C327.186 129.8 332.33 143.319 335.701 157.325C336.774 161.57 337.174 165.957 336.887 170.326C336.805 171.486 336.439 172.607 335.821 173.592C335.63 173.878 335.37 174.112 335.065 174.271C334.76 174.429 334.419 174.508 334.075 174.499V176.517C334.741 176.527 335.4 176.374 335.993 176.071C336.587 175.768 337.097 175.324 337.479 174.778C338.307 173.521 338.806 172.077 338.93 170.577C339.248 165.986 338.839 161.374 337.718 156.911C334.31 142.73 329.106 129.041 322.232 116.177C314.65 101.094 304.711 87.3176 292.789 75.3665C281.109 64.1868 267.658 56.5813 253.187 56.4979C246.655 56.4791 240.203 57.9335 234.311 60.753C228.419 63.5725 223.238 67.6845 219.155 72.7829C210.607 83.4992 203.875 95.5451 199.227 108.441C197.086 113.779 195.119 119.116 193.24 124.214L192.071 127.378C189.836 133.42 187.717 139.026 185.518 143.823C183.803 147.935 181.519 151.785 178.733 155.26C177.936 156.512 176.837 157.542 175.537 158.255C174.236 158.969 172.777 159.343 171.294 159.343C169.811 159.343 168.351 158.969 167.051 158.255C165.751 157.542 164.652 156.512 163.855 155.26C161.069 151.785 158.785 147.935 157.07 143.823C154.893 139.026 152.756 133.42 150.517 127.378L149.345 124.207C147.465 119.127 145.495 113.771 143.358 108.434C138.71 95.5379 131.977 83.4919 123.43 72.7757C119.345 67.6781 114.164 63.5672 108.271 60.749C102.378 57.9307 95.9255 56.4776 89.3935 56.4979C74.9119 56.5813 61.4753 64.1868 49.7913 75.3665C37.8737 87.3129 27.9373 101.083 20.3563 116.159C13.4821 129.023 8.27779 142.712 4.86956 156.893C3.74965 161.356 3.34065 165.968 3.65762 170.558C3.78272 172.058 4.28173 173.503 5.10905 174.76C5.49149 175.306 6.00161 175.749 6.59489 176.052C7.18816 176.355 7.84657 176.508 8.51265 176.498V174.481C8.16806 174.491 7.82664 174.413 7.52062 174.254C7.21461 174.095 6.95409 173.861 6.76368 173.574C6.146 172.589 5.77967 171.468 5.69688 170.308C5.40825 165.941 5.80494 161.555 6.87253 157.31C10.2447 143.309 15.3879 129.795 22.1778 117.095C29.653 102.212 39.452 88.6163 51.2064 76.8179C62.709 65.8197 75.6666 58.5952 89.408 58.5154ZM89.408 133.137C92.5888 133.089 95.6845 132.102 98.306 130.3C100.928 128.498 102.958 125.961 104.142 123.008C105.326 120.056 105.611 116.819 104.961 113.705C104.311 110.591 102.754 107.738 100.488 105.506C98.2216 103.274 95.3459 101.761 92.2224 101.159C89.0988 100.556 85.8668 100.89 82.9325 102.118C79.9982 103.347 77.4925 105.416 75.7304 108.064C73.9682 110.713 73.0283 113.823 73.0286 117.004C73.0622 121.314 74.8055 125.434 77.8755 128.459C80.9455 131.484 85.0909 133.167 89.4008 133.137H89.408ZM253.321 133.137C250.141 133.089 247.045 132.102 244.423 130.3C241.802 128.498 239.772 125.961 238.588 123.008C237.404 120.056 237.119 116.819 237.769 113.705C238.419 110.591 239.975 107.738 242.241 105.506C244.508 103.274 247.384 101.761 250.507 101.159C253.631 100.556 256.863 100.89 259.797 102.118C262.731 103.347 265.237 105.416 266.999 108.064C268.761 110.713 269.701 113.823 269.701 117.004C269.684 119.14 269.247 121.251 268.415 123.217C267.582 125.183 266.371 126.966 264.849 128.465C263.327 129.963 261.525 131.146 259.546 131.948C257.567 132.75 255.449 133.154 253.314 133.137H253.321Z" fill="#CD7FCD"/>
<path d="M171.258 162.445H173.322V160.406H171.269L171.258 162.445ZM171.258 162.445H169.193V164.513H171.261L171.258 162.445ZM171.316 162.445V164.51H173.384V162.441L171.316 162.445ZM171.316 162.445V160.38H169.262V162.434L171.316 162.445ZM335.465 175.874V173.81H333.4V175.874H335.465ZM335.465 177.939H333.4V180H335.465V177.939ZM7.112 177.939V180H9.17666V177.935L7.112 177.939ZM7.112 175.874H9.17666V173.81H7.112V175.874ZM123.009 71.738C118.927 66.5366 113.715 62.3323 107.768 59.4435C101.821 56.5548 95.294 55.0574 88.6823 55.0647L88.7186 59.194C94.7324 59.1909 100.667 60.5624 106.07 63.2038C111.473 65.8451 116.2 69.6863 119.892 74.434L123.009 71.738ZM143.107 108.249C138.433 95.0686 131.645 82.7372 123.009 71.738L119.881 74.434C128.213 85.0858 134.76 97.0193 139.268 109.769L143.107 108.249ZM149.142 124.385C147.247 119.171 145.266 113.71 143.107 108.249L139.265 109.765C141.398 115.168 143.361 120.575 145.259 125.796L149.142 124.385ZM149.167 124.468L149.142 124.403L145.259 125.807L145.284 125.88L149.167 124.468ZM150.324 127.647L149.167 124.468L145.284 125.88L146.442 129.066L150.324 127.647ZM156.932 144.487C154.73 139.574 152.578 133.834 150.324 127.647L146.446 129.062C148.699 135.231 150.894 141.113 153.166 146.178L156.932 144.487ZM163.776 156.197C160.961 152.631 158.657 148.69 156.932 144.487L153.166 146.178C155.053 150.749 157.574 155.032 160.655 158.9L163.776 156.197ZM171.269 160.38C169.79 160.274 168.354 159.845 167.06 159.122C165.767 158.399 164.648 157.4 163.783 156.197L160.662 158.9C161.909 160.551 163.503 161.908 165.331 162.878C167.159 163.847 169.177 164.404 171.243 164.51L171.269 160.38ZM171.283 160.38H171.269V164.51H171.298L171.283 160.38ZM171.316 160.38H171.287L171.29 164.51H171.316V160.38ZM178.791 156.197C177.926 157.4 176.807 158.399 175.513 159.122C174.22 159.845 172.783 160.274 171.305 160.38L171.33 164.51C173.397 164.404 175.415 163.847 177.243 162.878C179.07 161.908 180.664 160.551 181.911 158.9L178.791 156.197ZM185.634 144.487C183.909 148.69 181.606 152.631 178.791 156.197L181.911 158.9C184.995 155.032 187.522 150.75 189.411 146.178L185.634 144.487ZM192.238 127.647C189.981 133.816 187.837 139.574 185.634 144.487L189.401 146.178C191.672 141.098 193.867 135.242 196.121 129.062L192.238 127.647ZM193.403 124.483L192.245 127.662L196.124 129.077L197.282 125.891L193.403 124.483ZM193.428 124.414L193.403 124.483L197.285 125.894L197.311 125.825L193.428 124.414ZM199.459 108.285C197.3 113.75 195.319 119.211 193.425 124.421L197.307 125.833C199.205 120.611 201.168 115.205 203.302 109.802L199.459 108.285ZM219.565 71.738C210.929 82.7373 204.141 95.0687 199.466 108.249L203.309 109.765C207.816 97.0161 214.363 85.0826 222.693 74.4304L219.565 71.738ZM253.891 55.0647C247.279 55.0574 240.753 56.5548 234.806 59.4435C228.858 62.3323 223.647 66.5366 219.565 71.738L222.693 74.4304C226.384 69.6827 231.111 65.8451 236.514 63.2038C241.917 60.5624 247.852 59.1909 253.866 59.194L253.891 55.0647ZM293.831 74.3723C282.049 62.9387 268.496 55.1518 253.891 55.0647L253.866 59.194C266.976 59.2702 279.56 66.277 290.953 77.3369L293.831 74.3723ZM323.516 116.137C315.893 100.733 305.873 86.6359 293.831 74.3723L290.953 77.3369C302.674 89.2923 312.425 103.03 319.844 118.039L323.516 116.137ZM339.119 157.844C335.693 143.341 330.45 129.328 323.516 116.137L319.844 118.024C326.611 130.888 331.731 144.553 335.084 158.697L339.119 157.844ZM340.342 171.836C340.662 167.137 340.25 162.416 339.119 157.844L335.077 158.697C336.107 162.822 336.501 167.08 336.245 171.324L340.342 171.836ZM338.89 176.139C339.722 174.847 340.221 173.368 340.342 171.836L336.245 171.324C336.199 172.164 335.96 172.978 335.549 173.712L338.89 176.139ZM335.458 177.917C336.132 177.926 336.798 177.769 337.397 177.459C337.996 177.148 338.509 176.695 338.89 176.139L335.549 173.715C335.525 173.749 335.498 173.781 335.469 173.81H335.505H335.44L335.458 177.917ZM337.522 177.917V175.853H333.408V177.917H337.522ZM337.218 174.924C337.028 175.216 336.767 175.454 336.458 175.616C336.15 175.778 335.806 175.858 335.458 175.849V180C336.458 180.008 337.446 179.773 338.335 179.315C339.225 178.857 339.989 178.189 340.563 177.369L337.218 174.924ZM338.306 171.578C338.22 172.765 337.847 173.913 337.218 174.924L340.56 177.348C341.592 175.773 342.216 173.966 342.374 172.09L338.306 171.578ZM337.109 158.269C338.19 162.617 338.594 167.106 338.306 171.578L342.407 172.09C342.756 167.163 342.333 162.212 341.155 157.416L337.109 158.269ZM321.68 117.095C328.536 130.123 333.722 143.962 337.116 158.287L341.158 157.434C337.69 142.751 332.38 128.564 325.356 115.212L321.68 117.095ZM292.394 75.86C304.276 87.9721 314.161 101.893 321.68 117.102L325.356 115.212C317.631 99.6006 307.477 85.3184 295.271 72.8919L292.394 75.86ZM253.88 57.1294C267.734 57.2128 280.804 64.6115 292.394 75.86L295.271 72.8919C283.293 61.2659 269.24 53.0908 253.902 53L253.88 57.1294ZM221.129 73.0951C225.015 68.1187 229.984 64.0941 235.66 61.3275C241.335 58.5609 247.567 57.1251 253.88 57.1294L253.902 53C246.992 52.9911 240.169 54.552 233.95 57.5647C227.731 60.5775 222.277 64.9635 218.001 70.3918L221.129 73.0951ZM201.389 109.018C205.98 96.0534 212.646 83.9209 221.129 73.0951L218.001 70.399C209.212 81.573 202.304 94.1047 197.547 107.501L201.389 109.018ZM195.37 125.114C197.267 119.889 199.241 114.45 201.389 109.018L197.547 107.501C195.37 112.995 193.381 118.488 191.487 123.706L195.37 125.114ZM194.19 128.358L195.37 125.114L191.487 123.706L190.308 126.939L194.19 128.358ZM187.528 145.336C189.767 140.347 191.937 134.541 194.19 128.358L190.311 126.943C188.054 133.133 185.928 138.808 183.758 143.634L187.528 145.336ZM180.34 157.55C183.288 153.833 185.7 149.72 187.506 145.333L183.74 143.642C182.092 147.661 179.894 151.432 177.209 154.847L180.34 157.55ZM171.269 162.445C173.047 162.346 174.783 161.856 176.35 161.01C177.918 160.164 179.281 158.982 180.34 157.55L177.219 154.847C176.544 155.827 175.66 156.646 174.632 157.246C173.603 157.846 172.455 158.211 171.269 158.316V162.445ZM162.197 157.55C163.257 158.982 164.619 160.164 166.187 161.01C167.755 161.856 169.49 162.346 171.269 162.445V158.316C170.083 158.211 168.934 157.846 167.906 157.246C166.877 156.646 165.993 155.827 165.318 154.847L162.197 157.55ZM155.031 145.333C156.837 149.72 159.249 153.833 162.197 157.55L165.318 154.847C162.632 151.432 160.434 147.661 158.786 143.642L155.031 145.333ZM148.409 128.358C150.662 134.527 152.835 140.332 155.071 145.336L158.837 143.645C156.66 138.808 154.544 133.123 152.284 126.954L148.409 128.358ZM147.226 125.092L148.409 128.358L152.288 126.943L151.108 123.699L147.226 125.092ZM141.206 108.996C143.35 114.439 145.328 119.882 147.226 125.092L151.108 123.681C149.214 118.467 147.218 112.973 145.049 107.476L141.206 108.996ZM121.463 73.0733C129.947 83.8989 136.615 96.0313 141.206 108.996L145.049 107.479C140.287 94.0877 133.376 81.561 124.587 70.3918L121.463 73.0733ZM88.7077 57.1294C95.0209 57.1257 101.252 58.5617 106.926 61.3283C112.601 64.0949 117.57 68.1192 121.456 73.0951L124.583 70.399C120.308 64.9694 114.854 60.5821 108.635 57.568C102.416 54.554 95.5934 52.992 88.6823 53L88.7077 57.1294ZM50.194 75.86C61.7837 64.6115 74.8683 57.2164 88.7077 57.1366L88.6823 53C73.3298 53.0908 59.2909 61.2696 47.3166 72.8919L50.194 75.86ZM20.9042 117.095C28.4258 101.888 38.3119 87.97 50.194 75.86L47.3166 72.8919C35.1118 85.3161 24.9572 99.603 17.2321 115.212L20.9042 117.095ZM5.47189 158.29C8.86475 143.966 14.0497 130.123 20.9042 117.095L17.2285 115.208C10.2057 128.562 4.89745 142.75 1.42966 157.434L5.47189 158.29ZM4.27446 171.596C3.98702 167.125 4.39091 162.639 5.47189 158.29L1.42966 157.434C0.250121 162.23 -0.172266 167.181 0.177805 172.108L4.27446 171.596ZM5.36303 174.942C4.73448 173.931 4.36091 172.783 4.27446 171.596L0.177805 172.108C0.336088 173.984 0.959656 175.791 1.99209 177.366L5.36303 174.942ZM7.12652 175.867C6.77799 175.876 6.43288 175.796 6.12415 175.634C5.81541 175.472 5.55336 175.234 5.36303 174.942L2.02112 177.366C2.59314 178.184 3.35525 178.851 4.24199 179.31C5.12873 179.769 6.1136 180.006 7.112 180L7.12652 175.867ZM5.06186 175.867V177.932L9.17666 177.935V175.867H5.06186ZM3.69389 176.154C4.07551 176.71 4.58849 177.163 5.18729 177.473C5.7861 177.783 6.45221 177.941 7.12652 177.932V173.806H7.04669H7.0866C7.05692 173.777 7.03018 173.746 7.00678 173.712L3.69389 176.154ZM2.24246 171.85C2.36378 173.383 2.86241 174.861 3.69389 176.154L7.0358 173.73C6.62369 172.997 6.38535 172.179 6.33912 171.339L2.24246 171.85ZM3.45078 157.866C2.32096 162.438 1.90843 167.158 2.22795 171.858L6.3246 171.342C6.06848 167.098 6.4625 162.84 7.493 158.715L3.45078 157.866ZM19.0681 116.137C12.1273 129.334 6.88002 143.354 3.45078 157.866L7.493 158.715C10.8456 144.571 15.9659 130.91 22.733 118.046L19.0681 116.137ZM48.7535 74.3723C36.7116 86.6361 26.6919 100.733 19.0681 116.137L22.7439 118.024C30.1627 103.021 39.9127 89.2878 51.6309 77.3369L48.7535 74.3723ZM88.6968 55.0647C74.0918 55.1518 60.5391 62.9387 48.7571 74.3723L51.6309 77.3369C63.0247 66.277 75.6122 59.2738 88.7186 59.194L88.6968 55.0647ZM103.157 117.015C103.157 120.849 101.634 124.526 98.9225 127.237C96.2115 129.948 92.5345 131.472 88.7004 131.472V135.601C91.1411 135.601 93.5579 135.12 95.8128 134.186C98.0677 133.252 100.117 131.883 101.842 130.157C103.568 128.431 104.937 126.383 105.871 124.128C106.805 121.873 107.286 119.456 107.286 117.015H103.157ZM88.7004 102.559C90.5989 102.559 92.4787 102.933 94.2326 103.659C95.9865 104.386 97.5801 105.451 98.9225 106.793C100.265 108.136 101.33 109.729 102.056 111.483C102.783 113.237 103.157 115.117 103.157 117.015H107.286C107.286 112.086 105.328 107.359 101.842 103.873C98.3569 100.388 93.6296 98.4298 88.7004 98.4298V102.559ZM74.2442 117.015C74.2442 113.181 75.7673 109.504 78.4783 106.793C81.1894 104.082 84.8664 102.559 88.7004 102.559V98.4298C83.7712 98.4298 79.0439 100.388 75.5585 103.873C72.073 107.359 70.1149 112.086 70.1149 117.015H74.2442ZM88.7004 131.472C84.8664 131.472 81.1894 129.948 78.4783 127.237C75.7673 124.526 74.2442 120.849 74.2442 117.015H70.1149C70.1149 119.456 70.5956 121.873 71.5296 124.128C72.4636 126.383 73.8326 128.431 75.5585 130.157C79.0439 133.643 83.7712 135.601 88.7004 135.601V131.472ZM235.433 117.015C235.433 121.941 237.388 126.666 240.87 130.151C244.351 133.636 249.074 135.596 254 135.601V131.472C250.166 131.472 246.489 129.948 243.778 127.237C241.067 124.526 239.544 120.849 239.544 117.015H235.433ZM254 98.4298C249.071 98.4298 244.344 100.388 240.858 103.873C237.373 107.359 235.414 112.086 235.414 117.015H239.544C239.545 113.182 241.068 109.506 243.779 106.796C246.49 104.085 250.167 102.563 254 102.563V98.4298ZM272.586 117.015C272.586 112.086 270.627 107.359 267.142 103.873C263.657 100.388 258.929 98.4298 254 98.4298V102.559C257.834 102.559 261.511 104.082 264.222 106.793C266.933 109.504 268.456 113.181 268.456 117.015H272.586ZM254 135.601C256.441 135.601 258.857 135.12 261.112 134.186C263.367 133.252 265.416 131.883 267.142 130.157C268.868 128.431 270.237 126.383 271.171 124.128C272.105 121.873 272.586 119.456 272.586 117.015H268.474C268.474 118.915 268.1 120.797 267.372 122.552C266.645 124.307 265.578 125.901 264.234 127.244C262.89 128.586 261.294 129.651 259.538 130.376C257.782 131.102 255.9 131.474 254 131.472V135.601Z" fill="#CD7FCD"/>
</svg>
