<svg width="257" height="55" viewBox="0 0 257 55" fill="none" xmlns="http://www.w3.org/2000/svg">
<path d="M47.1659 8.12081C47.187 7.54922 47.182 6.97875 47.151 6.40937C47.1156 5.7814 46.9957 5.22971 46.7912 4.75431C46.5214 4.12413 46.1687 3.54646 45.7331 3.02131C45.2865 2.48068 44.7702 2.06277 44.1842 1.76758C42.8752 1.10644 41.4645 1.01744 39.952 1.50058C39.8735 1.50832 39.8044 1.49008 39.7447 1.44585C40.6027 1.01578 41.5529 0.896932 42.5955 1.0893C43.4191 1.24187 44.1217 1.48953 44.7033 1.83226C45.5767 2.34746 46.3268 3.26343 46.9537 4.58018C46.9703 4.61556 46.9863 4.65204 47.0018 4.68963C47.3445 5.51993 47.4291 6.37344 47.2555 7.25016C47.2312 7.37067 47.2185 7.5144 47.2174 7.68134C47.2163 7.82949 47.1991 7.97598 47.1659 8.12081Z" fill="#B69725"/>
<path d="M38.0515 2.90361C38.6154 2.33977 39.2489 1.87211 39.9521 1.50063C41.4645 1.01749 42.8752 1.10649 44.1842 1.76763C44.7702 2.06282 45.2865 2.48073 45.7331 3.02136C46.1687 3.54651 46.5214 4.12418 46.7912 4.75436C46.9957 5.22976 47.1157 5.78145 47.1511 6.40942C47.182 6.9788 47.187 7.54927 47.166 8.12086C47.0267 9.77481 46.266 11.0297 44.8841 11.8854C44.8692 11.8944 44.8565 11.9066 44.8471 11.9212C44.8376 11.9358 44.8317 11.9524 44.8296 11.9697C44.8275 11.9869 44.8294 12.0044 44.8351 12.0209C44.8408 12.0373 44.8502 12.0522 44.8625 12.0645C45.3987 12.5974 45.8553 13.1756 46.2323 13.7991C46.6104 14.4238 46.8713 15.1021 47.0151 15.834C47.1168 16.3536 47.1726 16.8793 47.1826 17.4111C47.1947 18.0103 47.1759 18.5366 47.1262 18.9899C47.0001 20.1485 46.5679 21.2231 45.8293 22.2137C45.1605 23.1104 44.349 23.7698 43.3948 24.1922C43.3726 24.202 43.3536 24.2181 43.3401 24.2387C43.3266 24.2592 43.3191 24.2834 43.3185 24.3083C43.2091 31.8915 43.1826 39.4747 43.239 47.0578C43.2445 47.7765 43.2202 48.4946 43.166 49.2121C43.0875 50.2535 42.7453 51.1397 42.1394 51.8705C41.6121 52.5073 40.8691 53.028 39.9106 53.4326C38.5518 54.0064 37.1008 54.1463 35.5574 53.8522C34.7967 53.7085 34.0831 53.4481 33.4164 53.0711C33.077 52.8787 32.784 52.6565 32.5375 52.4044C32.2799 52.1402 32.0493 51.8483 31.8459 51.5288C31.8359 51.5125 31.8218 51.499 31.8051 51.4896C31.7883 51.4802 31.7694 51.4751 31.7501 51.475C31.7308 51.4748 31.7117 51.4795 31.6945 51.4886C31.6773 51.4977 31.6627 51.511 31.6519 51.5272C31.2495 52.1363 30.7276 52.6399 30.0864 53.0379C29.716 53.2668 29.3628 53.4614 29.0267 53.6217C28.6043 53.824 28.2108 53.9302 27.8459 53.9401C24.9371 54.0208 20.5286 54.0208 14.6204 53.9401C13.8277 53.929 13.2085 53.8306 12.763 53.6449C12.0433 53.3442 11.3871 52.944 10.7945 52.4442C10.747 52.4044 10.7022 52.3503 10.6602 52.2817C10.5087 52.0285 10.4219 52.0833 10.3998 52.4459C10.3755 52.8738 10.3749 53.3547 10.3982 53.8887C10.3986 53.8999 10.3968 53.9112 10.393 53.9217C10.3891 53.9323 10.3832 53.9419 10.3757 53.9501C10.3681 53.9583 10.359 53.9648 10.3489 53.9694C10.3388 53.9739 10.3279 53.9764 10.3169 53.9766C9.52861 54.0042 8.77073 53.9843 8.04326 53.9169C7.63862 53.8804 7.28981 53.7737 6.99683 53.5968C6.20191 53.117 5.62757 52.4536 5.27378 51.6068C5.11568 51.2298 5.02999 50.7544 5.01673 50.1806C5.00788 49.7737 5.00291 49.2856 5.0018 48.7162C4.99627 43.3398 5.00346 37.9639 5.02336 32.5885C5.02668 31.6576 5.15879 30.7461 5.41971 29.8539C5.63198 29.1319 5.97859 28.4818 6.45952 27.9036L7.8625 26.625C9.19694 25.8445 10.6757 25.5935 12.2987 25.8721C13.0305 25.997 13.648 26.2342 14.1511 26.5836C15.4424 27.4802 16.1107 28.7389 16.156 30.3597C16.1565 30.3823 16.1659 30.4038 16.1824 30.4196C16.1988 30.4354 16.2209 30.4443 16.2439 30.4442L18.8807 30.4227C18.8913 30.4227 18.9018 30.4206 18.9116 30.4163C18.9213 30.4121 18.93 30.4059 18.9372 30.3981C18.9443 30.3902 18.9498 30.381 18.9532 30.371C18.9567 30.361 18.9579 30.3503 18.957 30.3398C18.9183 29.8467 18.8973 29.3525 18.894 28.8572C18.8752 25.5404 18.8818 22.2237 18.9139 18.9069C18.9316 17.1037 18.9791 16.0009 19.0565 15.5985C19.355 14.0495 20.1759 12.7643 21.5192 11.7427C21.5266 11.7371 21.5325 11.7298 21.5364 11.7214C21.5404 11.7131 21.5423 11.7039 21.5419 11.6946C21.5416 11.6854 21.5391 11.6763 21.5345 11.6683C21.53 11.6602 21.5236 11.6533 21.5159 11.6482C20.2821 10.8522 19.5176 9.70627 19.2224 8.21041C18.9614 6.88703 19.0726 5.63164 19.5557 4.44424C20.1483 2.9893 21.1826 1.99261 22.6585 1.45419C24.2218 0.88482 25.6745 0.925724 27.0167 1.57691C28.36 2.22921 29.276 3.26403 29.7647 4.68139C29.8432 4.90914 29.868 5.13745 29.8393 5.3663C29.8381 5.37494 29.8389 5.38374 29.8418 5.39198C29.8447 5.40022 29.8495 5.40765 29.8558 5.41365C29.8621 5.41966 29.8698 5.42406 29.8782 5.4265C29.8866 5.42893 29.8954 5.42933 29.904 5.42766C32.2423 5.01749 34.5789 4.97271 36.9139 5.29333C36.9468 5.29772 36.9802 5.28926 37.0068 5.26975C37.0334 5.25024 37.0513 5.22122 37.0565 5.18885C37.1936 4.35414 37.5253 3.59239 38.0515 2.90361ZM22.6701 4.64491C22.4568 4.67697 22.344 4.79913 22.3318 5.01141C21.7171 5.98874 21.6204 6.98598 22.0416 8.00312C22.548 9.22257 23.4545 9.96221 24.7613 10.222C25.1682 10.3027 25.4087 10.3912 25.4827 10.4874C25.643 10.6941 25.5767 11.0175 25.2837 11.4575C25.1168 11.7085 24.9167 11.9301 24.6834 12.1225C24.3053 12.4354 23.9145 12.834 23.5109 13.3182C23.0267 13.8986 22.6895 14.3403 22.4993 14.6433C22.2395 15.0556 22.0416 15.4968 21.9056 15.9666C21.805 16.316 21.7492 16.7892 21.7381 17.3862C21.6629 21.6891 21.6292 25.9871 21.637 30.2801C21.637 30.2892 21.6388 30.2983 21.6424 30.3067C21.646 30.3152 21.6512 30.3229 21.6578 30.3293C21.6645 30.3358 21.6723 30.3409 21.681 30.3444C21.6896 30.3479 21.6989 30.3497 21.7083 30.3497C23.5203 30.363 25.3313 30.3906 27.1411 30.4326C27.3191 30.4371 27.5679 30.5222 27.8874 30.688C27.9338 30.7179 28.0963 30.7881 28.3749 30.8986C30.5474 31.7632 31.9377 33.274 32.5458 35.431C32.7027 35.9871 32.7846 36.7256 32.7912 37.6466C32.8022 39.0374 32.7978 40.4647 32.7779 41.9285C32.7775 41.9486 32.7811 41.9686 32.7886 41.9873C32.796 42.0059 32.8072 42.023 32.8214 42.0373C32.8356 42.0517 32.8526 42.0631 32.8713 42.0709C32.8901 42.0787 32.9102 42.0827 32.9305 42.0827L40.4479 42.1126C40.4813 42.1126 40.5134 42.0995 40.537 42.0761C40.5607 42.0528 40.5739 42.0212 40.5739 41.9882L40.5673 30.7643C40.648 28.8329 40.648 26.9014 40.5673 24.9699C40.5665 24.9475 40.5572 24.9263 40.5415 24.9105C40.5258 24.8948 40.5048 24.8858 40.4827 24.8854C37.5419 24.8323 34.601 24.8135 31.6602 24.829C30.4905 24.8356 29.8841 24.8351 29.8409 24.8273C28.9731 24.6703 28.648 24.0114 28.8658 22.8505C28.9432 22.4437 29.1179 22.1828 29.3899 22.0678C29.6254 21.9694 29.9471 21.934 30.355 21.9617C30.8912 21.9981 31.2102 22.0164 31.3119 22.0164C34.0692 22.0153 36.8266 22.0263 39.5839 22.0496C40.5723 22.0584 41.1754 22.0402 41.3932 21.9948C41.9902 21.8721 42.543 21.5858 43.0516 21.1358C43.6607 20.5952 44.0681 19.9727 44.2738 19.2685C44.4451 18.6814 44.4943 17.9661 44.4214 17.1225C44.3119 15.8555 43.8448 14.7096 43.02 13.6847C42.3224 12.8168 41.6281 12.0733 40.9371 11.4542C40.6408 11.19 40.5153 10.8821 40.5607 10.5305C40.566 10.4863 40.5905 10.4362 40.6303 10.3879C40.7343 10.2563 40.7265 10.1518 40.6071 10.0744C40.4822 9.99482 40.4175 9.95281 40.4131 9.94839C38.8443 8.6228 37.0731 7.87045 35.0996 7.69134C33.9653 7.58742 32.863 7.62611 31.7928 7.80743C30.5524 8.01749 29.3799 8.46967 28.2754 9.16398C28.2112 9.20437 28.1376 9.22731 28.0617 9.2305C27.9857 9.2337 27.9102 9.21706 27.8426 9.18222C27.1505 8.82622 26.9686 8.16951 27.297 7.21207C27.3556 7.04181 27.4396 6.88537 27.5491 6.74275C27.6397 6.62556 27.6574 6.4564 27.6021 6.23529C27.5966 6.21318 27.5496 6.05674 27.4612 5.76597C27.1726 4.8207 26.5579 4.20875 25.6171 3.93015C24.5048 3.59958 23.5225 3.83783 22.6701 4.64491ZM39.7381 5.18388C39.4971 5.56641 39.4639 5.9694 39.6386 6.39284C39.7271 6.61064 39.8702 6.65596 40.0681 6.52882C41.0035 5.92849 41.7834 6.11257 42.4081 7.08106C42.7564 7.61948 42.8675 8.22202 42.7414 8.88869C42.695 9.13634 42.6718 9.29444 42.6718 9.36299C42.6729 9.77316 42.8686 9.8417 43.2589 9.56862C43.9598 9.07664 44.3661 8.34751 44.4778 7.38123C44.6558 6.72672 44.5933 6.09543 44.2904 5.48736C43.7088 4.31986 42.8056 3.76597 41.5806 3.82567C41.1483 3.84778 40.7823 3.97769 40.4827 4.21539C40.1643 4.46967 39.9161 4.7925 39.7381 5.18388ZM9.52087 29.1126C8.81772 29.3105 8.37549 29.7621 8.19417 30.4675C8.01175 30.8611 7.91501 31.1535 7.90396 31.3447C7.79451 33.2088 7.73923 35.0744 7.73812 36.9418C7.73818 36.9655 7.74657 36.9884 7.76177 37.0063C7.77697 37.0242 7.79799 37.0361 7.82104 37.0396C8.08527 37.0838 8.34564 37.0695 8.60213 36.9965C8.62533 36.9903 8.64607 36.9768 8.66151 36.9578C8.67695 36.9388 8.68634 36.9152 8.68837 36.8903C8.84426 35.2165 9.43464 33.7522 10.4595 32.4973C10.8321 32.0418 11.2832 31.6709 11.8127 31.3845C12.3976 31.0683 13.0129 30.8163 13.6585 30.6283C13.6712 30.6249 13.6831 30.619 13.6935 30.6109C13.7039 30.6028 13.7126 30.5927 13.719 30.5811C13.7255 30.5695 13.7296 30.5568 13.7312 30.5435C13.7328 30.5303 13.7318 30.5168 13.7282 30.5039C13.3899 29.2845 12.5679 28.6665 11.2622 28.6499C10.5612 28.641 9.9808 28.7953 9.52087 29.1126ZM12.3816 34.6963C12.0245 35.1386 11.7575 35.6222 11.5806 36.1474C11.4556 36.5189 11.3816 37.0562 11.3584 37.7593C11.2478 41.0518 11.2251 44.3453 11.2904 47.6399C11.2992 48.1153 11.3738 48.5172 11.5142 48.8456C12.2108 50.4763 13.564 51.2624 15.5739 51.2038C16.8818 51.1662 20.2461 51.1789 25.6668 51.2419C25.8415 51.2441 26.0499 51.2381 26.292 51.2237C26.5021 51.2115 26.7116 51.2038 26.9205 51.2005C27.2986 51.196 27.6049 51.1507 27.8393 51.0645C28.9449 50.6576 29.6707 49.8583 30.0167 48.6665C30.145 48.2287 30.2091 47.7063 30.2091 47.0993C30.2091 44.0313 30.2058 40.9633 30.1991 37.8953C30.1958 36.6184 29.779 35.5051 28.9487 34.5554C28.0997 33.5858 27.0549 33.0822 25.8144 33.0446C22.8105 32.9528 19.397 32.9644 15.5739 33.0794C15.082 32.9832 14.6569 33.0026 14.2987 33.1374C13.6364 33.3884 13.03 33.8323 12.4794 34.4691C12.4219 34.5355 12.3893 34.6112 12.3816 34.6963ZM8.55787 40.2097C8.55785 40.1944 8.55482 40.1793 8.54896 40.1653C8.5431 40.1512 8.53453 40.1384 8.52373 40.1276C8.51293 40.1169 8.50012 40.1084 8.48602 40.1025C8.47193 40.0967 8.45683 40.0938 8.44159 40.0938L7.80809 40.0949C7.79284 40.0949 7.77775 40.0979 7.76368 40.1038C7.7496 40.1097 7.73682 40.1182 7.72606 40.129C7.7153 40.1398 7.70677 40.1526 7.70096 40.1667C7.69515 40.1808 7.69218 40.1959 7.6922 40.2112L7.70112 45.319C7.70115 45.3342 7.70418 45.3493 7.71004 45.3634C7.7159 45.3774 7.72447 45.3902 7.73527 45.401C7.74606 45.4117 7.75888 45.4203 7.77297 45.4261C7.78706 45.4319 7.80216 45.4349 7.81741 45.4348L8.45091 45.4337C8.46615 45.4337 8.48124 45.4307 8.49532 45.4248C8.50939 45.419 8.52217 45.4104 8.53293 45.3996C8.5437 45.3888 8.55222 45.376 8.55803 45.3619C8.56384 45.3478 8.56682 45.3327 8.56679 45.3174L8.55787 40.2097ZM34.8774 50.8423C36.182 51.5299 37.5386 51.5366 38.9471 50.8622C39.627 50.536 40.1035 50.0407 40.3766 49.3763C40.5358 48.9882 40.6154 48.3431 40.6154 47.4409C40.6154 46.5852 40.6154 45.7195 40.6154 44.8439C40.6154 44.8153 40.6042 44.7879 40.5843 44.7677C40.5644 44.7475 40.5374 44.7361 40.5093 44.7361L33.1394 44.6963C33.1135 44.6963 33.0885 44.7063 33.0696 44.7242C33.0508 44.7421 33.0396 44.7666 33.0383 44.7925C32.9731 45.8461 32.9438 46.85 32.9504 47.8041C32.9548 48.5017 33.1328 49.1164 33.4844 49.6482C33.7962 50.1181 34.2605 50.5161 34.8774 50.8423ZM9.58223 51.1656C9.20855 50.562 8.96366 49.9147 8.84757 49.2237C8.79782 48.934 8.69666 48.5863 8.54409 48.1806C8.53389 48.1527 8.51816 48.1285 8.49894 48.1111C8.47972 48.0937 8.4579 48.0838 8.4363 48.0827L7.83099 48.0496C7.82004 48.0488 7.80907 48.0507 7.79876 48.0553C7.78845 48.0598 7.77903 48.0668 7.77109 48.0758C7.76315 48.0848 7.75686 48.0957 7.75261 48.1078C7.74836 48.1198 7.74625 48.1327 7.74641 48.1457L7.77461 50.7693C7.77682 50.9727 7.87798 51.0838 8.07809 51.1026L9.5358 51.2452C9.60213 51.2508 9.61761 51.2242 9.58223 51.1656Z" fill="#0D0D0B"/>
<path d="M39.7447 1.4458C39.8044 1.49002 39.8735 1.50827 39.952 1.50053C39.2488 1.87201 38.6153 2.33967 38.0515 2.90351C38.0426 2.79406 38.0753 2.70451 38.1493 2.63486C38.2301 2.55968 38.2732 2.51932 38.2787 2.51379C38.6778 2.03839 39.1665 1.6824 39.7447 1.4458Z" fill="#B69725"/>
<path d="M40.3096 30.6317C37.455 30.583 34.6004 30.556 31.7458 30.5504C31.7347 30.5504 31.0907 30.541 29.8138 30.5222C29.0852 30.5112 28.3572 30.5222 27.6297 30.5554C27.3102 30.3896 27.0614 30.3044 26.8834 30.3C25.0736 30.258 23.2626 30.2304 21.4506 30.2171C21.4412 30.2171 21.432 30.2153 21.4233 30.2118C21.4147 30.2083 21.4068 30.2032 21.4002 30.1967C21.3936 30.1902 21.3883 30.1825 21.3847 30.1741C21.3811 30.1656 21.3793 30.1566 21.3793 30.1474C21.3715 25.8545 21.4053 21.5565 21.4805 17.2536C21.4915 16.6566 21.5473 16.1834 21.6479 15.834C21.7839 15.3641 21.9818 14.923 22.2416 14.5106C22.4318 14.2077 22.769 13.766 23.2532 13.1856C23.6568 12.7013 24.0476 12.3028 24.4257 11.9899C24.659 11.7975 24.8591 11.5759 25.0261 11.3249C25.319 10.8849 25.3854 10.5615 25.2251 10.3547C25.151 10.2586 24.9105 10.1701 24.5037 10.0894C23.1969 9.82959 22.2903 9.08995 21.7839 7.87049C21.3627 6.85336 21.4594 5.85612 22.0741 4.87878L22.4125 4.51228C23.2649 3.70521 24.2472 3.46696 25.3594 3.79752C26.3002 4.07613 26.9149 4.68807 27.2035 5.63335C27.2919 5.92411 27.3389 6.08055 27.3445 6.10266C27.3997 6.32378 27.3821 6.49293 27.2914 6.61013C27.1819 6.75275 27.0979 6.90919 27.0393 7.07945C26.711 8.03688 26.8928 8.6936 27.5849 9.04959C27.6526 9.08443 27.7281 9.10108 27.804 9.09788C27.8799 9.09468 27.9536 9.07175 28.0178 9.03136C29.1222 8.33705 30.2947 7.88487 31.5352 7.67481C32.6054 7.49349 33.7076 7.45479 34.842 7.55872C36.8154 7.73782 38.5866 8.49017 40.1554 9.81577C40.1598 9.82019 40.2245 9.8622 40.3494 9.9418C40.4688 10.0192 40.4766 10.1237 40.3727 10.2552C40.3328 10.3036 40.3084 10.3537 40.303 10.3979C40.2577 10.7494 40.3832 11.0573 40.6795 11.3216C41.3704 11.9407 42.0647 12.6842 42.7624 13.5521C43.5871 14.577 44.0542 15.7229 44.1637 16.9899C44.2367 17.8335 44.1875 18.5488 44.0161 19.1358C43.8105 19.8401 43.4031 20.4625 42.7939 21.0032C42.2853 21.4531 41.7325 21.7395 41.1355 21.8622C40.9177 21.9075 40.3146 21.9258 39.3262 21.9169C36.5689 21.8937 33.8116 21.8827 31.0543 21.8838C30.9525 21.8838 30.6336 21.8655 30.0974 21.829C29.6894 21.8014 29.3677 21.8368 29.1322 21.9352C28.8602 22.0501 28.6855 22.3111 28.6081 22.7179C28.3903 23.8788 28.7154 24.5377 29.5833 24.6947C29.6264 24.7024 30.2328 24.703 31.4025 24.6964C34.3434 24.6809 37.2842 24.6997 40.2251 24.7527C40.2471 24.7532 40.2681 24.7622 40.2838 24.7779C40.2996 24.7936 40.3088 24.8149 40.3096 24.8373C40.3903 26.7688 40.3903 28.7002 40.3096 30.6317ZM38.4489 14.5331C38.4501 14.3946 38.3963 14.2612 38.2992 14.1624C38.2021 14.0636 38.0697 14.0074 37.9311 14.0062L32.326 13.9573C32.1875 13.9561 32.0542 14.0099 31.9553 14.1071C31.8565 14.2042 31.8003 14.3365 31.7991 14.4751L31.7491 20.2062C31.7479 20.3448 31.8018 20.4781 31.8989 20.5769C31.996 20.6757 32.1284 20.7319 32.2669 20.7331L37.872 20.782C38.0105 20.7833 38.1439 20.7294 38.2427 20.6323C38.3415 20.5352 38.3977 20.4028 38.3989 20.2642L38.4489 14.5331ZM40.2135 19.1839C40.3516 19.2945 40.5092 19.3476 40.6861 19.3431C41.7331 19.3177 42.3494 18.8661 42.5352 17.9882C42.6391 17.5007 42.6551 17.0562 42.5833 16.6549C42.4915 16.1452 42.1952 15.7704 41.6944 15.5305C41.0996 15.2453 40.5888 15.263 40.162 15.5836C39.8337 15.8301 39.633 16.2221 39.5601 16.7594C39.4948 17.2469 39.5142 17.7384 39.6181 18.2337C39.6977 18.6107 39.8961 18.9274 40.2135 19.1839Z" fill="white"/>
<path d="M44.4777 7.3812C44.4943 6.35964 44.2262 5.53377 43.6734 4.90359C43.1107 4.26346 42.3992 3.97877 41.5391 4.04953C41.0095 4.09265 40.5739 4.31652 40.2323 4.72117C40.0875 4.89253 39.9443 5.065 39.8028 5.23858C39.7641 5.28612 39.7425 5.26788 39.7381 5.18385C39.9161 4.79248 40.1643 4.46965 40.4827 4.21536C40.7823 3.97766 41.1483 3.84776 41.5805 3.82565C42.8055 3.76594 43.7088 4.31984 44.2903 5.48734C44.5933 6.09541 44.6557 6.7267 44.4777 7.3812Z" fill="#767775"/>
<path d="M44.4778 7.38118C44.3661 8.34746 43.9598 9.07659 43.2589 9.56858C42.8686 9.84165 42.6729 9.77311 42.6718 9.36294C42.6718 9.29439 42.695 9.13629 42.7415 8.88864C42.8675 8.22197 42.7564 7.61943 42.4081 7.08101C41.7835 6.11252 41.0035 5.92844 40.0682 6.52877C39.8703 6.65591 39.7271 6.61059 39.6386 6.39279C39.464 5.96935 39.4971 5.56636 39.7381 5.18383C39.7426 5.26786 39.7641 5.2861 39.8028 5.23856C39.9443 5.06498 40.0875 4.89251 40.2323 4.72114C40.574 4.3165 41.0096 4.09262 41.5391 4.0495C42.3993 3.97875 43.1107 4.26343 43.6735 4.90357C44.2263 5.53375 44.4944 6.35962 44.4778 7.38118Z" fill="white"/>
<path d="M22.6701 4.64478L22.3318 5.01127C22.3439 4.799 22.4567 4.67684 22.6701 4.64478Z" fill="#767775"/>
<path d="M38.1887 14.1387L32.5836 14.0898C32.2952 14.0872 32.0592 14.3191 32.0567 14.6076L32.0317 17.4731L32.0067 20.3387C32.0042 20.6272 32.236 20.8631 32.5245 20.8656L38.1296 20.9145C38.4181 20.9171 38.654 20.6852 38.6565 20.3967L38.7066 14.6656C38.7091 14.3771 38.4772 14.1412 38.1887 14.1387Z" fill="#0E0F0D"/>
<path d="M40.4711 19.3165C40.1538 19.06 39.9553 18.7433 39.8757 18.3663C39.7718 17.871 39.7524 17.3795 39.8177 16.892C39.8906 16.3547 40.0913 15.9627 40.4197 15.7162C40.8464 15.3956 41.3572 15.3779 41.952 15.6631C42.4528 15.903 42.7491 16.2778 42.8409 16.7875C42.9127 17.1888 42.8967 17.6333 42.7928 18.1208C42.6071 18.9987 41.9907 19.4503 40.9437 19.4757C40.7668 19.4801 40.6093 19.4271 40.4711 19.3165Z" fill="#12110E"/>
<path d="M7.86246 26.6248L6.45948 27.9035C6.45727 27.7067 6.51033 27.5546 6.61868 27.4474C6.85417 27.2152 7.15489 26.9632 7.52084 26.6912C7.62697 26.6116 7.74085 26.5895 7.86246 26.6248Z" fill="#B69725"/>
<path d="M8.19412 30.4674C8.53906 29.919 8.9813 29.4674 9.52082 29.1125C9.98074 28.7952 10.5612 28.6409 11.2621 28.6498C12.5678 28.6664 13.3898 29.2844 13.7281 30.5038C13.7317 30.5167 13.7327 30.5302 13.7312 30.5434C13.7296 30.5566 13.7255 30.5694 13.719 30.581C13.7125 30.5925 13.7038 30.6027 13.6934 30.6108C13.683 30.6189 13.6712 30.6248 13.6585 30.6282C13.0128 30.8162 12.3975 31.0682 11.8127 31.3844C11.2831 31.6708 10.832 32.0417 10.4595 32.4972C9.43459 33.752 8.84421 35.2164 8.68832 36.8902C8.68628 36.9151 8.6769 36.9387 8.66146 36.9577C8.64602 36.9767 8.62527 36.9902 8.60208 36.9964C8.34558 37.0693 8.08522 37.0837 7.82099 37.0395C7.79794 37.0359 7.77692 37.0241 7.76172 37.0062C7.74651 36.9882 7.73813 36.9654 7.73807 36.9416C7.73917 35.0743 7.79445 33.2086 7.90391 31.3446C7.91496 31.1534 8.0117 30.8609 8.19412 30.4674Z" fill="white"/>
<path d="M9.52082 29.1124C8.9813 29.4673 8.53906 29.919 8.19412 30.4673C8.37544 29.762 8.81767 29.3103 9.52082 29.1124Z" fill="#767775"/>
<path d="M40.5673 30.7642L40.5739 41.9881C40.5739 42.0211 40.5606 42.0527 40.537 42.0761C40.5133 42.0994 40.4813 42.1125 40.4479 42.1125L32.9304 42.0826C32.9101 42.0826 32.89 42.0786 32.8713 42.0708C32.8525 42.063 32.8356 42.0516 32.8214 42.0373C32.8072 42.0229 32.796 42.0059 32.7885 41.9872C32.7811 41.9685 32.7774 41.9485 32.7779 41.9284C32.7978 40.4646 32.8022 39.0373 32.7911 37.6465C32.7845 36.7255 32.7027 35.987 32.5457 35.4309C31.9376 33.2739 30.5474 31.7631 28.3749 30.8986C28.0963 30.788 27.9338 30.7178 27.8873 30.6879C28.6148 30.6548 29.3428 30.6437 30.0714 30.6548C31.3484 30.6736 31.9924 30.683 32.0034 30.683C34.858 30.6885 37.7127 30.7156 40.5673 30.7642Z" fill="#FECE07"/>
<path d="M15.5739 33.0793C14.8376 33.1612 14.1156 33.4503 13.4081 33.9467C12.8298 34.3513 12.4877 34.6012 12.3815 34.6963C12.3893 34.6111 12.4219 34.5354 12.4794 34.4691C13.03 33.8323 13.6364 33.3884 14.2986 33.1374C14.6568 33.0025 15.0819 32.9832 15.5739 33.0793Z" fill="#767775"/>
<path d="M12.3815 34.6962C12.4877 34.6012 12.8299 34.3513 13.4081 33.9466C14.1157 33.4502 14.8376 33.1611 15.5739 33.0793C19.397 32.9643 22.8105 32.9527 25.8144 33.0445C27.0548 33.0821 28.0996 33.5857 28.9487 34.5553C29.779 35.505 30.1958 36.6183 30.1991 37.8952C30.2058 40.9632 30.2091 44.0312 30.2091 47.0992C30.2091 47.7062 30.145 48.2286 30.0167 48.6664C29.6707 49.8582 28.9448 50.6575 27.8393 51.0644C27.6049 51.1506 27.2986 51.196 26.9205 51.2004C26.7116 51.2037 26.5021 51.2114 26.292 51.2236C26.0499 51.238 25.8415 51.244 25.6668 51.2418C20.2461 51.1788 16.8818 51.1661 15.5739 51.2037C13.564 51.2623 12.2107 50.4762 11.5142 48.8455C11.3738 48.5171 11.2992 48.1152 11.2903 47.6398C11.2251 44.3452 11.2478 41.0517 11.3583 37.7592C11.3815 37.0561 11.4556 36.5188 11.5806 36.1473C11.7574 35.6222 12.0244 35.1385 12.3815 34.6962ZM17.5026 48.0345C17.8177 48.2568 18.2251 48.3734 18.7248 48.3845C19.8691 48.4088 20.7807 48.416 21.4595 48.406C22.4125 48.3927 22.9111 48.3828 22.9553 48.3762C23.4893 48.2955 23.9437 48.045 24.3185 47.6249C24.4733 47.4524 24.5573 47.2507 24.5706 47.0196C24.6701 45.3126 24.69 43.6061 24.6303 41.9002C24.617 41.5088 24.5336 41.2076 24.3799 40.9964C24.1101 40.6249 23.7315 40.4204 23.2439 40.3828C21.9039 40.2789 20.2793 40.2463 18.3699 40.2849C17.8426 40.296 17.46 40.3789 17.2223 40.5337C16.8431 40.778 16.6391 41.1562 16.6104 41.668C16.5396 42.9384 16.5336 44.448 16.5922 46.1971C16.6065 46.6426 16.6734 46.9837 16.7928 47.2203C16.9553 47.5431 17.1919 47.8145 17.5026 48.0345Z" fill="white"/>
<path d="M8.44151 40.0937L7.80801 40.0948C7.7439 40.0949 7.69202 40.1469 7.69213 40.2111L7.70104 45.3188C7.70115 45.383 7.75322 45.4348 7.81733 45.4347L8.45083 45.4336C8.51494 45.4335 8.56682 45.3814 8.56671 45.3173L8.5578 40.2095C8.55769 40.1454 8.50562 40.0936 8.44151 40.0937Z" fill="#F4CF3D"/>
<path d="M17.5026 48.0345C17.1919 47.8145 16.9553 47.5431 16.7928 47.2202C16.6734 46.9836 16.6065 46.6426 16.5921 46.197C16.5335 44.448 16.5396 42.9383 16.6104 41.668C16.6391 41.1561 16.8431 40.778 17.2223 40.5337C17.46 40.3789 17.8425 40.296 18.3699 40.2849C20.2792 40.2462 21.9039 40.2788 23.2439 40.3828C23.7314 40.4204 24.1101 40.6249 24.3799 40.9964C24.5335 41.2075 24.617 41.5088 24.6303 41.9002C24.69 43.6061 24.6701 45.3126 24.5706 47.0196C24.5573 47.2506 24.4733 47.4524 24.3185 47.6249C23.9437 48.045 23.4893 48.2954 22.9553 48.3761C22.9111 48.3828 22.4125 48.3927 21.4594 48.406C20.7806 48.4159 19.8691 48.4087 18.7248 48.3844C18.2251 48.3734 17.8177 48.2567 17.5026 48.0345ZM22.0707 43.407C22.0709 43.3948 22.0687 43.3827 22.0642 43.3713C22.0597 43.36 22.053 43.3497 22.0446 43.3409C22.0361 43.3321 22.0259 43.3251 22.0147 43.3203C22.0035 43.3155 21.9915 43.3129 21.9793 43.3127L19.3064 43.2707C19.2817 43.2703 19.258 43.2797 19.2403 43.2969C19.2226 43.314 19.2124 43.3375 19.212 43.3621L19.1832 45.1993C19.183 45.2115 19.1852 45.2236 19.1897 45.235C19.1942 45.2463 19.2008 45.2567 19.2093 45.2654C19.2178 45.2742 19.228 45.2812 19.2392 45.286C19.2503 45.2909 19.2624 45.2935 19.2746 45.2936L21.9475 45.3356C21.9722 45.336 21.9959 45.3266 22.0136 45.3095C22.0313 45.2923 22.0415 45.2689 22.0419 45.2442L22.0707 43.407Z" fill="#0E0F0D"/>
<path d="M21.9793 43.3127L19.3064 43.2707C19.2551 43.2699 19.2128 43.3109 19.212 43.3621L19.1832 45.1994C19.1824 45.2507 19.2233 45.2929 19.2746 45.2937L21.9475 45.3357C21.9988 45.3365 22.0411 45.2956 22.0419 45.2443L22.0707 43.4071C22.0715 43.3558 22.0306 43.3135 21.9793 43.3127Z" fill="white"/>
<path d="M33.4843 49.6481C33.1327 49.1163 32.9547 48.5016 32.9503 47.804C32.9437 46.8498 32.973 45.846 33.0382 44.7924C33.0395 44.7664 33.0507 44.7419 33.0695 44.724C33.0884 44.7061 33.1134 44.6961 33.1394 44.6962L40.5092 44.736C40.5373 44.736 40.5643 44.7473 40.5842 44.7675C40.6041 44.7878 40.6153 44.8152 40.6153 44.8438C40.6153 45.7194 40.6153 46.5851 40.6153 47.4408C40.6153 48.3429 40.5357 48.988 40.3765 49.3761C40.1034 50.0406 39.6269 50.5359 38.947 50.862C37.5385 51.5364 36.1819 51.5298 34.8774 50.8421C34.2604 50.516 33.7961 50.1179 33.4843 49.6481Z" fill="white"/>
<path d="M9.58217 51.1656C9.61755 51.2242 9.60207 51.2507 9.53573 51.2452L8.07802 51.1025C7.87791 51.0838 7.77675 50.9726 7.77454 50.7692L7.74635 48.1457C7.74619 48.1326 7.7483 48.1197 7.75255 48.1077C7.75679 48.0956 7.76309 48.0848 7.77103 48.0757C7.77897 48.0667 7.78839 48.0597 7.7987 48.0552C7.809 48.0507 7.81998 48.0487 7.83092 48.0495L8.43623 48.0826C8.45783 48.0837 8.47966 48.0936 8.49888 48.111C8.51809 48.1285 8.53382 48.1527 8.54402 48.1805C8.69659 48.5862 8.79776 48.9339 8.84751 49.2236C8.9636 49.9146 9.20848 50.5619 9.58217 51.1656Z" fill="white"/>
<g filter="url(#filter0_d_210_154)">
<path d="M92.3384 43H81.3584C77.6084 43 74.8184 42.25 72.9884 40.75C71.1884 39.25 70.2884 36.94 70.2884 33.82V19.825C70.2884 16.705 71.1884 14.395 72.9884 12.895C74.8184 11.365 77.6084 10.6 81.3584 10.6H92.3384C92.9084 10.6 93.3134 10.735 93.5534 11.005C93.8234 11.245 93.9584 11.65 93.9584 12.22V17.665C93.9584 18.235 93.8234 18.655 93.5534 18.925C93.3134 19.165 92.9084 19.285 92.3384 19.285H83.2934C82.3634 19.285 81.6734 19.48 81.2234 19.87C80.7734 20.23 80.5484 20.785 80.5484 21.535V32.245C80.5484 32.995 80.7734 33.55 81.2234 33.91C81.6734 34.24 82.3634 34.405 83.2934 34.405H92.3384C92.9084 34.405 93.3134 34.54 93.5534 34.81C93.8234 35.05 93.9584 35.455 93.9584 36.025V41.38C93.9584 41.95 93.8234 42.37 93.5534 42.64C93.3134 42.88 92.9084 43 92.3384 43ZM110.785 20.05L108.67 26.89H115.735L113.62 20.05C113.5 19.78 113.365 19.585 113.215 19.465C113.095 19.345 112.945 19.285 112.765 19.285H111.64C111.46 19.285 111.295 19.345 111.145 19.465C111.025 19.585 110.905 19.78 110.785 20.05ZM108.22 41.38C108.22 41.95 108.085 42.37 107.815 42.64C107.575 42.88 107.17 43 106.6 43H99.9852C99.4152 43 98.9952 42.88 98.7252 42.64C98.4852 42.37 98.3652 41.95 98.3652 41.38V29.5C98.3652 28.6 98.5002 27.565 98.7702 26.395C99.0702 25.225 99.5202 23.86 100.12 22.3L104.035 12.085C104.215 11.575 104.485 11.2 104.845 10.96C105.235 10.72 105.73 10.6 106.33 10.6H118.435C119.005 10.6 119.47 10.72 119.83 10.96C120.22 11.2 120.505 11.575 120.685 12.085L124.6 22.3C125.2 23.86 125.635 25.225 125.905 26.395C126.205 27.565 126.355 28.6 126.355 29.5V41.38C126.355 41.95 126.22 42.37 125.95 42.64C125.71 42.88 125.305 43 124.735 43H117.94C117.34 43 116.89 42.88 116.59 42.64C116.32 42.37 116.185 41.95 116.185 41.38V35.08H108.22V41.38ZM142.081 18.7V24.46H145.456C146.236 24.46 146.761 24.265 147.031 23.875C147.301 23.455 147.436 22.945 147.436 22.345V20.815C147.436 20.215 147.301 19.72 147.031 19.33C146.761 18.91 146.236 18.7 145.456 18.7H142.081ZM140.461 43H133.531C132.961 43 132.541 42.88 132.271 42.64C132.031 42.37 131.911 41.95 131.911 41.38V12.22C131.911 11.65 132.031 11.245 132.271 11.005C132.541 10.735 132.961 10.6 133.531 10.6H148.516C151.876 10.6 154.186 11.305 155.446 12.715C156.736 14.095 157.381 15.895 157.381 18.115V20.185C157.381 21.445 157.186 22.525 156.796 23.425C156.436 24.295 155.791 24.925 154.861 25.315C156.481 25.495 157.786 26.155 158.776 27.295C159.796 28.435 160.306 29.95 160.306 31.84V41.38C160.306 41.95 160.171 42.37 159.901 42.64C159.661 42.88 159.256 43 158.686 43H151.711C151.141 43 150.721 42.88 150.451 42.64C150.211 42.37 150.091 41.95 150.091 41.38V34.495C150.091 33.835 149.956 33.355 149.686 33.055C149.446 32.725 149.011 32.56 148.381 32.56H142.081V41.38C142.081 41.95 141.946 42.37 141.676 42.64C141.436 42.88 141.031 43 140.461 43ZM175.524 18.7V24.46H178.899C179.679 24.46 180.204 24.265 180.474 23.875C180.744 23.455 180.879 22.945 180.879 22.345V20.815C180.879 20.215 180.744 19.72 180.474 19.33C180.204 18.91 179.679 18.7 178.899 18.7H175.524ZM173.904 43H166.974C166.404 43 165.984 42.88 165.714 42.64C165.474 42.37 165.354 41.95 165.354 41.38V12.22C165.354 11.65 165.474 11.245 165.714 11.005C165.984 10.735 166.404 10.6 166.974 10.6H181.959C185.319 10.6 187.629 11.305 188.889 12.715C190.179 14.095 190.824 15.895 190.824 18.115V20.185C190.824 21.445 190.629 22.525 190.239 23.425C189.879 24.295 189.234 24.925 188.304 25.315C189.924 25.495 191.229 26.155 192.219 27.295C193.239 28.435 193.749 29.95 193.749 31.84V41.38C193.749 41.95 193.614 42.37 193.344 42.64C193.104 42.88 192.699 43 192.129 43H185.154C184.584 43 184.164 42.88 183.894 42.64C183.654 42.37 183.534 41.95 183.534 41.38V34.495C183.534 33.835 183.399 33.355 183.129 33.055C182.889 32.725 182.454 32.56 181.824 32.56H175.524V41.38C175.524 41.95 175.389 42.37 175.119 42.64C174.879 42.88 174.474 43 173.904 43ZM199.696 43C199.126 43 198.706 42.88 198.436 42.64C198.196 42.37 198.076 41.95 198.076 41.38V36.025C198.076 35.455 198.196 35.05 198.436 34.81C198.706 34.54 199.126 34.405 199.696 34.405H204.151V19.285H199.696C199.126 19.285 198.706 19.165 198.436 18.925C198.196 18.655 198.076 18.235 198.076 17.665V12.22C198.076 11.65 198.196 11.245 198.436 11.005C198.706 10.735 199.126 10.6 199.696 10.6H218.866C219.436 10.6 219.841 10.735 220.081 11.005C220.351 11.245 220.486 11.65 220.486 12.22V17.665C220.486 18.235 220.351 18.655 220.081 18.925C219.841 19.165 219.436 19.285 218.866 19.285H214.501V34.405H218.866C219.436 34.405 219.841 34.54 220.081 34.81C220.351 35.05 220.486 35.455 220.486 36.025V41.38C220.486 41.95 220.351 42.37 220.081 42.64C219.841 42.88 219.436 43 218.866 43H199.696ZM234.637 43H227.662C227.092 43 226.672 42.88 226.402 42.64C226.162 42.37 226.042 41.95 226.042 41.38V12.22C226.042 11.65 226.162 11.245 226.402 11.005C226.672 10.735 227.092 10.6 227.662 10.6H234.637C235.207 10.6 235.612 10.735 235.852 11.005C236.122 11.245 236.257 11.65 236.257 12.22V22.57H238.057L242.692 12.085C242.902 11.545 243.187 11.17 243.547 10.96C243.907 10.72 244.372 10.6 244.942 10.6H251.872C252.382 10.6 252.727 10.735 252.907 11.005C253.087 11.245 253.072 11.605 252.862 12.085L248.272 22.57C249.952 22.66 251.287 23.26 252.277 24.37C253.297 25.45 253.807 26.89 253.807 28.69V41.38C253.807 41.95 253.672 42.37 253.402 42.64C253.162 42.88 252.757 43 252.187 43H245.257C244.687 43 244.267 42.88 243.997 42.64C243.757 42.37 243.637 41.95 243.637 41.38V32.605C243.637 32.125 243.517 31.75 243.277 31.48C243.037 31.21 242.677 31.075 242.197 31.075H236.257V41.38C236.257 41.95 236.122 42.37 235.852 42.64C235.612 42.88 235.207 43 234.637 43Z" fill="white"/>
<path d="M72.9884 40.75L72.0281 41.9024L72.0375 41.9101L72.9884 40.75ZM72.9884 12.895L73.9487 14.0473L73.9505 14.0458L72.9884 12.895ZM93.5534 11.005L92.4323 12.0015L92.4909 12.0675L92.5568 12.1261L93.5534 11.005ZM81.2234 19.87L82.1604 21.0413L82.1835 21.0229L82.2058 21.0035L81.2234 19.87ZM81.2234 33.91L80.2863 35.0813L80.3109 35.101L80.3363 35.1196L81.2234 33.91ZM93.5534 34.81L92.4323 35.8065L92.4909 35.8725L92.5568 35.9311L93.5534 34.81ZM93.5534 42.64L94.614 43.7007L94.614 43.7007L93.5534 42.64ZM92.3384 41.5H81.3584V44.5H92.3384V41.5ZM81.3584 41.5C77.7645 41.5 75.3837 40.7738 73.9393 39.5899L72.0375 41.9101C74.2531 43.7262 77.4522 44.5 81.3584 44.5V41.5ZM73.9487 39.5977C72.5954 38.47 71.7884 36.652 71.7884 33.82H68.7884C68.7884 37.228 69.7814 40.03 72.0281 41.9023L73.9487 39.5977ZM71.7884 33.82V19.825H68.7884V33.82H71.7884ZM71.7884 19.825C71.7884 16.993 72.5954 15.175 73.9487 14.0473L72.0281 11.7427C69.7814 13.615 68.7884 16.417 68.7884 19.825H71.7884ZM73.9505 14.0458C75.3939 12.839 77.7699 12.1 81.3584 12.1V9.1C77.4469 9.1 74.2429 9.89098 72.0262 11.7442L73.9505 14.0458ZM81.3584 12.1H92.3384V9.1H81.3584V12.1ZM92.3384 12.1C92.4226 12.1 92.4852 12.105 92.5292 12.1111C92.5733 12.1172 92.5935 12.1237 92.5953 12.1243C92.5965 12.1247 92.5768 12.1183 92.5448 12.0981C92.5117 12.0774 92.4716 12.0458 92.4323 12.0015L94.6745 10.0085C94.0203 9.27245 93.0927 9.1 92.3384 9.1V12.1ZM92.5568 12.1261C92.5126 12.0868 92.481 12.0467 92.4602 12.0136C92.4401 11.9816 92.4337 11.9618 92.4341 11.9631C92.4347 11.9649 92.4411 11.9851 92.4472 12.0292C92.4533 12.0732 92.4584 12.1358 92.4584 12.22H95.4584C95.4584 11.4657 95.2859 10.5381 94.5499 9.88389L92.5568 12.1261ZM92.4584 12.22V17.665H95.4584V12.22H92.4584ZM92.4584 17.665C92.4584 17.8372 92.4373 17.9229 92.4291 17.9485C92.4231 17.967 92.4348 17.9223 92.4927 17.8643L94.614 19.9857C95.2779 19.3218 95.4584 18.4387 95.4584 17.665H92.4584ZM92.4927 17.8643C92.5876 17.7694 92.664 17.7507 92.6435 17.7568C92.6332 17.7598 92.6043 17.7673 92.5517 17.7737C92.4993 17.7802 92.4291 17.785 92.3384 17.785V20.785C93.0515 20.785 93.9531 20.6466 94.614 19.9857L92.4927 17.8643ZM92.3384 17.785H83.2934V20.785H92.3384V17.785ZM83.2934 17.785C82.1956 17.785 81.0808 18.0086 80.241 18.7365L82.2058 21.0035C82.2659 20.9514 82.5312 20.785 83.2934 20.785V17.785ZM80.2863 18.6987C79.3788 19.4247 79.0484 20.4779 79.0484 21.535H82.0484C82.0484 21.3062 82.0831 21.1793 82.1072 21.1198C82.1272 21.0706 82.144 21.0544 82.1604 21.0413L80.2863 18.6987ZM79.0484 21.535V32.245H82.0484V21.535H79.0484ZM79.0484 32.245C79.0484 33.3021 79.3788 34.3552 80.2863 35.0813L82.1604 32.7387C82.144 32.7256 82.1272 32.7094 82.1072 32.6602C82.0831 32.6007 82.0484 32.4738 82.0484 32.245H79.0484ZM80.3363 35.1196C81.1647 35.7271 82.2374 35.905 83.2934 35.905V32.905C82.4894 32.905 82.182 32.7529 82.1104 32.7004L80.3363 35.1196ZM83.2934 35.905H92.3384V32.905H83.2934V35.905ZM92.3384 35.905C92.4226 35.905 92.4852 35.91 92.5292 35.9161C92.5733 35.9222 92.5935 35.9287 92.5953 35.9293C92.5965 35.9297 92.5768 35.9233 92.5448 35.9031C92.5117 35.8824 92.4716 35.8508 92.4323 35.8065L94.6745 33.8135C94.0203 33.0774 93.0927 32.905 92.3384 32.905V35.905ZM92.5568 35.9311C92.5126 35.8918 92.481 35.8517 92.4602 35.8186C92.4401 35.7866 92.4337 35.7668 92.4341 35.7681C92.4347 35.7699 92.4411 35.7901 92.4472 35.8342C92.4533 35.8782 92.4584 35.9408 92.4584 36.025H95.4584C95.4584 35.2707 95.2859 34.3431 94.5499 33.6889L92.5568 35.9311ZM92.4584 36.025V41.38H95.4584V36.025H92.4584ZM92.4584 41.38C92.4584 41.5522 92.4373 41.6379 92.4291 41.6635C92.4231 41.682 92.4348 41.6373 92.4927 41.5793L94.614 43.7007C95.2779 43.0368 95.4584 42.1537 95.4584 41.38H92.4584ZM92.4927 41.5793C92.5876 41.4844 92.664 41.4657 92.6435 41.4718C92.6332 41.4748 92.6043 41.4823 92.5517 41.4887C92.4993 41.4952 92.4291 41.5 92.3384 41.5V44.5C93.0515 44.5 93.9531 44.3616 94.614 43.7007L92.4927 41.5793ZM110.785 20.05L109.414 19.4408L109.378 19.522L109.352 19.6069L110.785 20.05ZM108.67 26.89L107.237 26.4469L106.636 28.39H108.67V26.89ZM115.735 26.89V28.39H117.769L117.168 26.4469L115.735 26.89ZM113.62 20.05L115.053 19.6069L115.027 19.522L114.991 19.4408L113.62 20.05ZM113.215 19.465L112.155 20.5257L112.213 20.5844L112.278 20.6363L113.215 19.465ZM111.145 19.465L110.208 18.2937L110.143 18.3456L110.085 18.4043L111.145 19.465ZM107.815 42.64L106.755 41.5793L106.755 41.5793L107.815 42.64ZM98.7252 42.64L97.6041 43.6365L97.6627 43.7025L97.7287 43.7611L98.7252 42.64ZM98.7702 26.395L97.3172 26.0224L97.3127 26.04L97.3086 26.0577L98.7702 26.395ZM100.12 22.3L101.52 22.8385L101.521 22.8368L100.12 22.3ZM104.035 12.085L105.436 12.6218L105.443 12.6031L105.45 12.5842L104.035 12.085ZM104.845 10.96L104.059 9.68251L104.036 9.6968L104.013 9.71192L104.845 10.96ZM119.83 10.96L118.998 12.2081L119.021 12.2232L119.044 12.2375L119.83 10.96ZM120.685 12.085L119.271 12.5842L119.277 12.6031L119.285 12.6218L120.685 12.085ZM124.6 22.3L123.2 22.8368L123.2 22.8385L124.6 22.3ZM125.905 26.395L124.444 26.7323L124.448 26.75L124.452 26.7676L125.905 26.395ZM125.95 42.64L127.011 43.7007L127.011 43.7007L125.95 42.64ZM116.59 42.64L115.53 43.7007L115.588 43.7594L115.653 43.8113L116.59 42.64ZM116.185 35.08H117.685V33.58H116.185V35.08ZM108.22 35.08V33.58H106.72V35.08H108.22ZM109.352 19.6069L107.237 26.4469L110.103 27.3331L112.218 20.4931L109.352 19.6069ZM108.67 28.39H115.735V25.39H108.67V28.39ZM117.168 26.4469L115.053 19.6069L112.187 20.4931L114.302 27.3331L117.168 26.4469ZM114.991 19.4408C114.821 19.0587 114.564 18.6229 114.152 18.2937L112.278 20.6363C112.247 20.6112 112.225 20.5895 112.213 20.5754C112.2 20.5615 112.195 20.5537 112.196 20.5551C112.197 20.5564 112.202 20.565 112.212 20.5828C112.222 20.6005 112.235 20.6256 112.249 20.6592L114.991 19.4408ZM114.276 18.4043C113.856 17.9846 113.316 17.785 112.765 17.785V20.785C112.686 20.785 112.577 20.7712 112.456 20.7227C112.333 20.6735 112.231 20.6019 112.155 20.5257L114.276 18.4043ZM112.765 17.785H111.64V20.785H112.765V17.785ZM111.64 17.785C111.096 17.785 110.605 17.9763 110.208 18.2937L112.082 20.6363C112.042 20.6688 111.979 20.7089 111.894 20.7397C111.808 20.7709 111.721 20.785 111.64 20.785V17.785ZM110.085 18.4043C109.772 18.7169 109.562 19.1083 109.414 19.4408L112.156 20.6592C112.196 20.5687 112.226 20.5145 112.243 20.4874C112.251 20.4746 112.253 20.4724 112.248 20.4781C112.244 20.4836 112.23 20.5011 112.206 20.5257L110.085 18.4043ZM106.72 41.38C106.72 41.5522 106.699 41.6379 106.691 41.6635C106.685 41.682 106.697 41.6373 106.755 41.5793L108.876 43.7007C109.54 43.0368 109.72 42.1537 109.72 41.38H106.72ZM106.755 41.5793C106.849 41.4844 106.926 41.4657 106.905 41.4718C106.895 41.4748 106.866 41.4823 106.814 41.4887C106.761 41.4952 106.691 41.5 106.6 41.5V44.5C107.313 44.5 108.215 44.3616 108.876 43.7007L106.755 41.5793ZM106.6 41.5H99.9852V44.5H106.6V41.5ZM99.9852 41.5C99.7997 41.5 99.6972 41.4798 99.6548 41.4677C99.6167 41.4568 99.657 41.4613 99.7218 41.5189L97.7287 43.7611C98.3939 44.3524 99.2499 44.5 99.9852 44.5V41.5ZM99.8463 41.6435C99.9039 41.7082 99.9084 41.7485 99.8975 41.7104C99.8854 41.668 99.8652 41.5655 99.8652 41.38H96.8652C96.8652 42.1153 97.0128 42.9714 97.6041 43.6365L99.8463 41.6435ZM99.8652 41.38V29.5H96.8652V41.38H99.8652ZM99.8652 29.5C99.8652 28.744 99.9794 27.8259 100.232 26.7323L97.3086 26.0577C97.021 27.3041 96.8652 28.456 96.8652 29.5H99.8652ZM100.223 26.7676C100.504 25.6705 100.934 24.3632 101.52 22.8385L98.7202 21.7615C98.1066 23.3568 97.6359 24.7794 97.3172 26.0224L100.223 26.7676ZM101.521 22.8368L105.436 12.6218L102.635 11.5482L98.7196 21.7632L101.521 22.8368ZM105.45 12.5842C105.549 12.3026 105.649 12.2272 105.677 12.2081L104.013 9.71192C103.322 10.1728 102.881 10.8474 102.621 11.5858L105.45 12.5842ZM105.631 12.2375C105.722 12.1816 105.924 12.1 106.33 12.1V9.1C105.537 9.1 104.748 9.25843 104.059 9.68251L105.631 12.2375ZM106.33 12.1H118.435V9.1H106.33V12.1ZM118.435 12.1C118.802 12.1 118.952 12.1771 118.998 12.2081L120.662 9.71193C119.989 9.26291 119.209 9.1 118.435 9.1V12.1ZM119.044 12.2375C119.091 12.2663 119.183 12.3368 119.271 12.5842L122.1 11.5858C121.827 10.8132 121.349 10.1337 120.616 9.68251L119.044 12.2375ZM119.285 12.6218L123.2 22.8368L126.001 21.7632L122.086 11.5482L119.285 12.6218ZM123.2 22.8385C123.784 24.3563 124.194 25.6514 124.444 26.7323L127.367 26.0577C127.076 24.7986 126.616 23.3637 126 21.7615L123.2 22.8385ZM124.452 26.7676C124.731 27.8544 124.855 28.7601 124.855 29.5H127.855C127.855 28.4399 127.68 27.2756 127.358 26.0224L124.452 26.7676ZM124.855 29.5V41.38H127.855V29.5H124.855ZM124.855 41.38C124.855 41.5522 124.834 41.6379 124.826 41.6635C124.82 41.682 124.832 41.6373 124.89 41.5793L127.011 43.7007C127.675 43.0368 127.855 42.1537 127.855 41.38H124.855ZM124.89 41.5793C124.984 41.4844 125.061 41.4657 125.04 41.4718C125.03 41.4748 125.001 41.4823 124.949 41.4887C124.896 41.4952 124.826 41.5 124.735 41.5V44.5C125.448 44.5 126.35 44.3616 127.011 43.7007L124.89 41.5793ZM124.735 41.5H117.94V44.5H124.735V41.5ZM117.94 41.5C117.735 41.5 117.608 41.479 117.539 41.4606C117.473 41.4431 117.484 41.4344 117.527 41.4687L115.653 43.8113C116.332 44.3545 117.18 44.5 117.94 44.5V41.5ZM117.651 41.5793C117.709 41.6373 117.72 41.682 117.715 41.6635C117.706 41.6379 117.685 41.5522 117.685 41.38H114.685C114.685 42.1537 114.866 43.0368 115.53 43.7007L117.651 41.5793ZM117.685 41.38V35.08H114.685V41.38H117.685ZM116.185 33.58H108.22V36.58H116.185V33.58ZM106.72 35.08V41.38H109.72V35.08H106.72ZM142.081 18.7V17.2H140.581V18.7H142.081ZM142.081 24.46H140.581V25.96H142.081V24.46ZM147.031 23.875L148.265 24.7288L148.279 24.7077L148.293 24.6861L147.031 23.875ZM147.031 19.33L145.77 20.1411L145.783 20.1627L145.798 20.1838L147.031 19.33ZM132.271 42.64L131.15 43.6365L131.209 43.7025L131.275 43.7611L132.271 42.64ZM132.271 11.005L131.211 9.94434L131.211 9.94434L132.271 11.005ZM155.446 12.715L154.328 13.7145L154.339 13.727L154.351 13.7393L155.446 12.715ZM156.796 23.425L155.42 22.8286L155.415 22.84L155.41 22.8515L156.796 23.425ZM154.861 25.315L154.281 23.9317L148.95 26.1674L154.696 26.8058L154.861 25.315ZM158.776 27.295L157.644 28.2785L157.651 28.2869L157.658 28.2952L158.776 27.295ZM159.901 42.64L160.962 43.7007L160.962 43.7007L159.901 42.64ZM150.451 42.64L149.33 43.6365L149.389 43.7025L149.455 43.7611L150.451 42.64ZM149.686 33.055L148.473 33.9373L148.519 34.0004L148.571 34.0584L149.686 33.055ZM142.081 32.56V31.06H140.581V32.56H142.081ZM141.676 42.64L140.616 41.5793L140.616 41.5793L141.676 42.64ZM140.581 18.7V24.46H143.581V18.7H140.581ZM142.081 25.96H145.456V22.96H142.081V25.96ZM145.456 25.96C146.408 25.96 147.571 25.7301 148.265 24.7288L145.798 23.0212C145.829 22.9769 145.863 22.9439 145.892 22.9228C145.919 22.9029 145.93 22.901 145.913 22.9076C145.869 22.9239 145.733 22.96 145.456 22.96V25.96ZM148.293 24.6861C148.748 23.9792 148.936 23.174 148.936 22.345H145.936C145.936 22.716 145.855 22.9308 145.77 23.0639L148.293 24.6861ZM148.936 22.345V20.815H145.936V22.345H148.936ZM148.936 20.815C148.936 19.9909 148.749 19.1763 148.265 18.4762L145.798 20.1838C145.853 20.2637 145.936 20.4391 145.936 20.815H148.936ZM148.293 18.5189C147.617 17.4665 146.446 17.2 145.456 17.2V20.2C145.723 20.2 145.846 20.2375 145.878 20.2502C145.89 20.2549 145.876 20.251 145.849 20.23C145.821 20.2079 145.793 20.1772 145.77 20.1411L148.293 18.5189ZM145.456 17.2H142.081V20.2H145.456V17.2ZM140.461 41.5H133.531V44.5H140.461V41.5ZM133.531 41.5C133.346 41.5 133.243 41.4798 133.201 41.4677C133.163 41.4568 133.203 41.4613 133.268 41.5189L131.275 43.7611C131.94 44.3524 132.796 44.5 133.531 44.5V41.5ZM133.392 41.6435C133.45 41.7082 133.454 41.7485 133.444 41.7104C133.431 41.668 133.411 41.5655 133.411 41.38H130.411C130.411 42.1153 130.559 42.9714 131.15 43.6365L133.392 41.6435ZM133.411 41.38V12.22H130.411V41.38H133.411ZM133.411 12.22C133.411 12.1293 133.416 12.059 133.423 12.0067C133.429 11.9541 133.436 11.9251 133.44 11.9149C133.446 11.8944 133.427 11.9708 133.332 12.0657L131.211 9.94434C130.55 10.6053 130.411 11.5069 130.411 12.22H133.411ZM133.332 12.0657C133.274 12.1236 133.229 12.1352 133.248 12.1293C133.273 12.1211 133.359 12.1 133.531 12.1V9.1C132.758 9.1 131.875 9.28044 131.211 9.94434L133.332 12.0657ZM133.531 12.1H148.516V9.1H133.531V12.1ZM148.516 12.1C151.759 12.1 153.508 12.7976 154.328 13.7145L156.565 11.7155C154.864 9.81237 151.993 9.1 148.516 9.1V12.1ZM154.351 13.7393C155.336 14.7936 155.881 16.2043 155.881 18.115H158.881C158.881 15.5857 158.137 13.3964 156.542 11.6907L154.351 13.7393ZM155.881 18.115V20.185H158.881V18.115H155.881ZM155.881 20.185C155.881 21.2959 155.709 22.1622 155.42 22.8286L158.173 24.0214C158.664 22.8878 158.881 21.5941 158.881 20.185H155.881ZM155.41 22.8515C155.213 23.328 154.875 23.6827 154.281 23.9317L155.441 26.6983C156.708 26.1673 157.66 25.262 158.182 23.9985L155.41 22.8515ZM154.696 26.8058C155.974 26.9478 156.922 27.4469 157.644 28.2785L159.909 26.3115C158.651 24.8631 156.989 24.0422 155.027 23.8242L154.696 26.8058ZM157.658 28.2952C158.378 29.0994 158.806 30.2284 158.806 31.84H161.806C161.806 29.6716 161.215 27.7706 159.894 26.2948L157.658 28.2952ZM158.806 31.84V41.38H161.806V31.84H158.806ZM158.806 41.38C158.806 41.5522 158.785 41.6379 158.777 41.6635C158.771 41.682 158.783 41.6373 158.841 41.5793L160.962 43.7007C161.626 43.0368 161.806 42.1537 161.806 41.38H158.806ZM158.841 41.5793C158.936 41.4844 159.012 41.4657 158.991 41.4718C158.981 41.4748 158.952 41.4823 158.9 41.4887C158.847 41.4952 158.777 41.5 158.686 41.5V44.5C159.399 44.5 160.301 44.3616 160.962 43.7007L158.841 41.5793ZM158.686 41.5H151.711V44.5H158.686V41.5ZM151.711 41.5C151.526 41.5 151.423 41.4798 151.381 41.4677C151.343 41.4568 151.383 41.4613 151.448 41.5189L149.455 43.7611C150.12 44.3524 150.976 44.5 151.711 44.5V41.5ZM151.572 41.6435C151.63 41.7082 151.634 41.7485 151.624 41.7104C151.611 41.668 151.591 41.5655 151.591 41.38H148.591C148.591 42.1153 148.739 42.9714 149.33 43.6365L151.572 41.6435ZM151.591 41.38V34.495H148.591V41.38H151.591ZM151.591 34.495C151.591 33.6855 151.435 32.756 150.801 32.0516L148.571 34.0584C148.52 34.0017 148.527 33.9767 148.546 34.0461C148.567 34.1192 148.591 34.2608 148.591 34.495H151.591ZM150.899 32.1727C150.249 31.2791 149.222 31.06 148.381 31.06V34.06C148.474 34.06 148.542 34.0662 148.588 34.0733C148.633 34.0803 148.651 34.0873 148.648 34.0862C148.644 34.0848 148.619 34.0745 148.583 34.048C148.545 34.0207 148.507 33.9833 148.473 33.9373L150.899 32.1727ZM148.381 31.06H142.081V34.06H148.381V31.06ZM140.581 32.56V41.38H143.581V32.56H140.581ZM140.581 41.38C140.581 41.5522 140.56 41.6379 140.552 41.6635C140.546 41.682 140.558 41.6373 140.616 41.5793L142.737 43.7007C143.401 43.0368 143.581 42.1537 143.581 41.38H140.581ZM140.616 41.5793C140.711 41.4844 140.787 41.4657 140.766 41.4718C140.756 41.4748 140.727 41.4823 140.675 41.4887C140.622 41.4952 140.552 41.5 140.461 41.5V44.5C141.174 44.5 142.076 44.3616 142.737 43.7007L140.616 41.5793ZM175.524 18.7V17.2H174.024V18.7H175.524ZM175.524 24.46H174.024V25.96H175.524V24.46ZM180.474 23.875L181.707 24.7288L181.722 24.7077L181.735 24.6861L180.474 23.875ZM180.474 19.33L179.212 20.1411L179.226 20.1627L179.24 20.1838L180.474 19.33ZM165.714 42.64L164.593 43.6365L164.651 43.7025L164.717 43.7611L165.714 42.64ZM165.714 11.005L164.653 9.94434L164.653 9.94434L165.714 11.005ZM188.889 12.715L187.77 13.7145L187.781 13.727L187.793 13.7393L188.889 12.715ZM190.239 23.425L188.862 22.8286L188.857 22.84L188.853 22.8515L190.239 23.425ZM188.304 25.315L187.724 23.9317L182.392 26.1674L188.138 26.8058L188.304 25.315ZM192.219 27.295L191.086 28.2785L191.093 28.2869L191.101 28.2952L192.219 27.295ZM193.344 42.64L194.404 43.7007L194.404 43.7007L193.344 42.64ZM183.894 42.64L182.773 43.6365L182.831 43.7025L182.897 43.7611L183.894 42.64ZM183.129 33.055L181.916 33.9373L181.962 34.0004L182.014 34.0584L183.129 33.055ZM175.524 32.56V31.06H174.024V32.56H175.524ZM175.119 42.64L174.058 41.5793L174.058 41.5793L175.119 42.64ZM174.024 18.7V24.46H177.024V18.7H174.024ZM175.524 25.96H178.899V22.96H175.524V25.96ZM178.899 25.96C179.85 25.96 181.014 25.7301 181.707 24.7288L179.24 23.0212C179.271 22.9769 179.306 22.9439 179.334 22.9228C179.361 22.9029 179.373 22.901 179.355 22.9076C179.311 22.9239 179.175 22.96 178.899 22.96V25.96ZM181.735 24.6861C182.19 23.9792 182.379 23.174 182.379 22.345H179.379C179.379 22.716 179.297 22.9308 179.212 23.0639L181.735 24.6861ZM182.379 22.345V20.815H179.379V22.345H182.379ZM182.379 20.815C182.379 19.9909 182.192 19.1763 181.707 18.4762L179.24 20.1838C179.296 20.2637 179.379 20.4391 179.379 20.815H182.379ZM181.735 18.5189C181.059 17.4665 179.888 17.2 178.899 17.2V20.2C179.165 20.2 179.288 20.2375 179.32 20.2502C179.332 20.2549 179.318 20.251 179.292 20.23C179.264 20.2079 179.235 20.1772 179.212 20.1411L181.735 18.5189ZM178.899 17.2H175.524V20.2H178.899V17.2ZM173.904 41.5H166.974V44.5H173.904V41.5ZM166.974 41.5C166.788 41.5 166.686 41.4798 166.643 41.4677C166.605 41.4568 166.645 41.4613 166.71 41.5189L164.717 43.7611C165.382 44.3524 166.238 44.5 166.974 44.5V41.5ZM166.835 41.6435C166.892 41.7082 166.897 41.7485 166.886 41.7104C166.874 41.668 166.854 41.5655 166.854 41.38H163.854C163.854 42.1153 164.001 42.9714 164.593 43.6365L166.835 41.6435ZM166.854 41.38V12.22H163.854V41.38H166.854ZM166.854 12.22C166.854 12.1293 166.859 12.059 166.865 12.0067C166.871 11.9541 166.879 11.9251 166.882 11.9149C166.888 11.8944 166.869 11.9708 166.774 12.0657L164.653 9.94434C163.992 10.6053 163.854 11.5069 163.854 12.22H166.854ZM166.774 12.0657C166.716 12.1236 166.672 12.1352 166.69 12.1293C166.716 12.1211 166.801 12.1 166.974 12.1V9.1C166.2 9.1 165.317 9.28044 164.653 9.94434L166.774 12.0657ZM166.974 12.1H181.959V9.1H166.974V12.1ZM181.959 12.1C185.202 12.1 186.951 12.7976 187.77 13.7145L190.007 11.7155C188.307 9.81237 185.436 9.1 181.959 9.1V12.1ZM187.793 13.7393C188.778 14.7936 189.324 16.2043 189.324 18.115H192.324C192.324 15.5857 191.579 13.3964 189.984 11.6907L187.793 13.7393ZM189.324 18.115V20.185H192.324V18.115H189.324ZM189.324 20.185C189.324 21.2959 189.151 22.1622 188.862 22.8286L191.615 24.0214C192.106 22.8878 192.324 21.5941 192.324 20.185H189.324ZM188.853 22.8515C188.655 23.328 188.317 23.6827 187.724 23.9317L188.884 26.6983C190.15 26.1673 191.102 25.262 191.625 23.9985L188.853 22.8515ZM188.138 26.8058C189.416 26.9478 190.364 27.4469 191.086 28.2785L193.351 26.3115C192.093 24.8631 190.431 24.0422 188.469 23.8242L188.138 26.8058ZM191.101 28.2952C191.82 29.0994 192.249 30.2284 192.249 31.84H195.249C195.249 29.6716 194.657 27.7706 193.337 26.2948L191.101 28.2952ZM192.249 31.84V41.38H195.249V31.84H192.249ZM192.249 41.38C192.249 41.5522 192.228 41.6379 192.219 41.6635C192.213 41.682 192.225 41.6373 192.283 41.5793L194.404 43.7007C195.068 43.0368 195.249 42.1537 195.249 41.38H192.249ZM192.283 41.5793C192.378 41.4844 192.454 41.4657 192.434 41.4718C192.424 41.4748 192.395 41.4823 192.342 41.4887C192.29 41.4952 192.219 41.5 192.129 41.5V44.5C192.842 44.5 193.743 44.3616 194.404 43.7007L192.283 41.5793ZM192.129 41.5H185.154V44.5H192.129V41.5ZM185.154 41.5C184.968 41.5 184.866 41.4798 184.823 41.4677C184.785 41.4568 184.825 41.4613 184.89 41.5189L182.897 43.7611C183.562 44.3524 184.418 44.5 185.154 44.5V41.5ZM185.015 41.6435C185.072 41.7082 185.077 41.7485 185.066 41.7104C185.054 41.668 185.034 41.5655 185.034 41.38H182.034C182.034 42.1153 182.181 42.9714 182.773 43.6365L185.015 41.6435ZM185.034 41.38V34.495H182.034V41.38H185.034ZM185.034 34.495C185.034 33.6855 184.878 32.756 184.244 32.0516L182.014 34.0584C181.963 34.0017 181.969 33.9767 181.988 34.0461C182.009 34.1192 182.034 34.2608 182.034 34.495H185.034ZM184.342 32.1727C183.692 31.2791 182.665 31.06 181.824 31.06V34.06C181.917 34.06 181.984 34.0662 182.03 34.0733C182.076 34.0803 182.093 34.0873 182.09 34.0862C182.087 34.0848 182.061 34.0745 182.025 34.048C181.988 34.0207 181.949 33.9833 181.916 33.9373L184.342 32.1727ZM181.824 31.06H175.524V34.06H181.824V31.06ZM174.024 32.56V41.38H177.024V32.56H174.024ZM174.024 41.38C174.024 41.5522 174.003 41.6379 173.994 41.6635C173.988 41.682 174 41.6373 174.058 41.5793L176.179 43.7007C176.843 43.0368 177.024 42.1537 177.024 41.38H174.024ZM174.058 41.5793C174.153 41.4844 174.229 41.4657 174.209 41.4718C174.199 41.4748 174.17 41.4823 174.117 41.4887C174.065 41.4952 173.994 41.5 173.904 41.5V44.5C174.617 44.5 175.518 44.3616 176.179 43.7007L174.058 41.5793ZM198.436 42.64L197.315 43.6365L197.374 43.7025L197.44 43.7611L198.436 42.64ZM198.436 34.81L199.497 35.8707L199.497 35.8707L198.436 34.81ZM204.151 34.405V35.905H205.651V34.405H204.151ZM204.151 19.285H205.651V17.785H204.151V19.285ZM198.436 18.925L197.315 19.9215L197.374 19.9875L197.44 20.0461L198.436 18.925ZM198.436 11.005L197.375 9.94434L197.375 9.94434L198.436 11.005ZM220.081 11.005L218.96 12.0015L219.019 12.0675L219.085 12.1261L220.081 11.005ZM220.081 18.925L221.142 19.9857L221.142 19.9857L220.081 18.925ZM214.501 19.285V17.785H213.001V19.285H214.501ZM214.501 34.405H213.001V35.905H214.501V34.405ZM220.081 34.81L218.96 35.8065L219.019 35.8725L219.085 35.9311L220.081 34.81ZM220.081 42.64L221.142 43.7007L221.142 43.7007L220.081 42.64ZM199.696 41.5C199.511 41.5 199.408 41.4798 199.366 41.4677C199.328 41.4568 199.368 41.4613 199.433 41.5189L197.44 43.7611C198.105 44.3524 198.961 44.5 199.696 44.5V41.5ZM199.557 41.6435C199.615 41.7082 199.619 41.7485 199.608 41.7104C199.596 41.668 199.576 41.5655 199.576 41.38H196.576C196.576 42.1153 196.724 42.9714 197.315 43.6365L199.557 41.6435ZM199.576 41.38V36.025H196.576V41.38H199.576ZM199.576 36.025C199.576 35.9343 199.581 35.864 199.587 35.8117C199.594 35.7591 199.601 35.7301 199.604 35.7199C199.61 35.6994 199.592 35.7758 199.497 35.8707L197.375 33.7493C196.714 34.4103 196.576 35.3119 196.576 36.025H199.576ZM199.497 35.8707C199.439 35.9286 199.394 35.9402 199.413 35.9343C199.438 35.9261 199.524 35.905 199.696 35.905V32.905C198.922 32.905 198.039 33.0854 197.375 33.7493L199.497 35.8707ZM199.696 35.905H204.151V32.905H199.696V35.905ZM205.651 34.405V19.285H202.651V34.405H205.651ZM204.151 17.785H199.696V20.785H204.151V17.785ZM199.696 17.785C199.511 17.785 199.408 17.7648 199.366 17.7527C199.328 17.7418 199.368 17.7463 199.433 17.8039L197.44 20.0461C198.105 20.6374 198.961 20.785 199.696 20.785V17.785ZM199.557 17.9285C199.615 17.9932 199.619 18.0335 199.608 17.9954C199.596 17.953 199.576 17.8505 199.576 17.665H196.576C196.576 18.4003 196.724 19.2564 197.315 19.9215L199.557 17.9285ZM199.576 17.665V12.22H196.576V17.665H199.576ZM199.576 12.22C199.576 12.1293 199.581 12.059 199.587 12.0067C199.594 11.9541 199.601 11.9251 199.604 11.9149C199.61 11.8944 199.592 11.9708 199.497 12.0657L197.375 9.94434C196.714 10.6053 196.576 11.5069 196.576 12.22H199.576ZM199.497 12.0657C199.439 12.1236 199.394 12.1352 199.413 12.1293C199.438 12.1211 199.524 12.1 199.696 12.1V9.1C198.922 9.1 198.039 9.28044 197.375 9.94434L199.497 12.0657ZM199.696 12.1H218.866V9.1H199.696V12.1ZM218.866 12.1C218.95 12.1 219.013 12.105 219.057 12.1111C219.101 12.1172 219.121 12.1237 219.123 12.1243C219.124 12.1247 219.105 12.1183 219.072 12.0981C219.039 12.0774 218.999 12.0458 218.96 12.0015L221.202 10.0085C220.548 9.27245 219.62 9.1 218.866 9.1V12.1ZM219.085 12.1261C219.04 12.0868 219.009 12.0467 218.988 12.0136C218.968 11.9816 218.961 11.9618 218.962 11.9631C218.962 11.9649 218.969 11.9851 218.975 12.0292C218.981 12.0732 218.986 12.1358 218.986 12.22H221.986C221.986 11.4657 221.814 10.5381 221.078 9.88389L219.085 12.1261ZM218.986 12.22V17.665H221.986V12.22H218.986ZM218.986 17.665C218.986 17.8372 218.965 17.9229 218.957 17.9485C218.951 17.967 218.962 17.9223 219.02 17.8643L221.142 19.9857C221.806 19.3218 221.986 18.4387 221.986 17.665H218.986ZM219.02 17.8643C219.115 17.7694 219.192 17.7507 219.171 17.7568C219.161 17.7598 219.132 17.7673 219.079 17.7737C219.027 17.7802 218.957 17.785 218.866 17.785V20.785C219.579 20.785 220.481 20.6466 221.142 19.9857L219.02 17.8643ZM218.866 17.785H214.501V20.785H218.866V17.785ZM213.001 19.285V34.405H216.001V19.285H213.001ZM214.501 35.905H218.866V32.905H214.501V35.905ZM218.866 35.905C218.95 35.905 219.013 35.91 219.057 35.9161C219.101 35.9222 219.121 35.9287 219.123 35.9293C219.124 35.9297 219.105 35.9233 219.072 35.9031C219.039 35.8824 218.999 35.8508 218.96 35.8065L221.202 33.8135C220.548 33.0774 219.62 32.905 218.866 32.905V35.905ZM219.085 35.9311C219.04 35.8918 219.009 35.8517 218.988 35.8186C218.968 35.7866 218.961 35.7668 218.962 35.7681C218.962 35.7699 218.969 35.7901 218.975 35.8342C218.981 35.8782 218.986 35.9408 218.986 36.025H221.986C221.986 35.2707 221.814 34.3431 221.078 33.6889L219.085 35.9311ZM218.986 36.025V41.38H221.986V36.025H218.986ZM218.986 41.38C218.986 41.5522 218.965 41.6379 218.957 41.6635C218.951 41.682 218.962 41.6373 219.02 41.5793L221.142 43.7007C221.806 43.0368 221.986 42.1537 221.986 41.38H218.986ZM219.02 41.5793C219.115 41.4844 219.192 41.4657 219.171 41.4718C219.161 41.4748 219.132 41.4823 219.079 41.4887C219.027 41.4952 218.957 41.5 218.866 41.5V44.5C219.579 44.5 220.481 44.3616 221.142 43.7007L219.02 41.5793ZM218.866 41.5H199.696V44.5H218.866V41.5ZM226.402 42.64L225.281 43.6365L225.34 43.7025L225.406 43.7611L226.402 42.64ZM226.402 11.005L225.342 9.94434L225.342 9.94434L226.402 11.005ZM235.852 11.005L234.731 12.0015L234.79 12.0675L234.856 12.1261L235.852 11.005ZM236.257 22.57H234.757V24.07H236.257V22.57ZM238.057 22.57V24.07H239.034L239.429 23.1765L238.057 22.57ZM242.692 12.085L244.064 12.6915L244.078 12.6604L244.09 12.6287L242.692 12.085ZM243.547 10.96L244.303 12.2557L244.342 12.233L244.379 12.2081L243.547 10.96ZM252.907 11.005L251.659 11.837L251.682 11.8717L251.707 11.905L252.907 11.005ZM252.862 12.085L254.236 12.6865L254.236 12.6862L252.862 12.085ZM248.272 22.57L246.898 21.9685L246.03 23.952L248.192 24.0679L248.272 22.57ZM252.277 24.37L251.158 25.3684L251.172 25.3844L251.187 25.3999L252.277 24.37ZM253.402 42.64L254.463 43.7007L254.463 43.7007L253.402 42.64ZM243.997 42.64L242.876 43.6365L242.935 43.7025L243.001 43.7611L243.997 42.64ZM236.257 31.075V29.575H234.757V31.075H236.257ZM235.852 42.64L234.792 41.5793L234.792 41.5793L235.852 42.64ZM234.637 41.5H227.662V44.5H234.637V41.5ZM227.662 41.5C227.477 41.5 227.374 41.4798 227.332 41.4677C227.294 41.4568 227.334 41.4613 227.399 41.5189L225.406 43.7611C226.071 44.3524 226.927 44.5 227.662 44.5V41.5ZM227.523 41.6435C227.581 41.7082 227.585 41.7485 227.574 41.7104C227.562 41.668 227.542 41.5655 227.542 41.38H224.542C224.542 42.1153 224.69 42.9714 225.281 43.6365L227.523 41.6435ZM227.542 41.38V12.22H224.542V41.38H227.542ZM227.542 12.22C227.542 12.1293 227.547 12.059 227.553 12.0067C227.56 11.9541 227.567 11.9251 227.57 11.9149C227.576 11.8944 227.558 11.9708 227.463 12.0657L225.342 9.94434C224.681 10.6053 224.542 11.5069 224.542 12.22H227.542ZM227.463 12.0657C227.405 12.1236 227.36 12.1352 227.379 12.1293C227.404 12.1211 227.49 12.1 227.662 12.1V9.1C226.888 9.1 226.005 9.28044 225.342 9.94434L227.463 12.0657ZM227.662 12.1H234.637V9.1H227.662V12.1ZM234.637 12.1C234.721 12.1 234.784 12.105 234.828 12.1111C234.872 12.1172 234.892 12.1237 234.894 12.1243C234.895 12.1247 234.876 12.1183 234.844 12.0981C234.81 12.0774 234.77 12.0458 234.731 12.0015L236.973 10.0085C236.319 9.27245 235.391 9.1 234.637 9.1V12.1ZM234.856 12.1261C234.811 12.0868 234.78 12.0467 234.759 12.0136C234.739 11.9816 234.732 11.9618 234.733 11.9631C234.733 11.9649 234.74 11.9851 234.746 12.0292C234.752 12.0732 234.757 12.1358 234.757 12.22H237.757C237.757 11.4657 237.585 10.5381 236.849 9.88389L234.856 12.1261ZM234.757 12.22V22.57H237.757V12.22H234.757ZM236.257 24.07H238.057V21.07H236.257V24.07ZM239.429 23.1765L244.064 12.6915L241.32 11.4785L236.685 21.9635L239.429 23.1765ZM244.09 12.6287C244.225 12.2832 244.332 12.239 244.303 12.2557L242.791 9.66433C242.043 10.101 241.58 10.8068 241.294 11.5413L244.09 12.6287ZM244.379 12.2081C244.426 12.1771 244.576 12.1 244.942 12.1V9.1C244.169 9.1 243.389 9.26292 242.715 9.71192L244.379 12.2081ZM244.942 12.1H251.872V9.1H244.942V12.1ZM251.872 12.1C252.006 12.1 252.021 12.1192 251.967 12.0981C251.936 12.086 251.884 12.0613 251.825 12.0155C251.764 11.9686 251.707 11.9083 251.659 11.837L254.155 10.173C253.565 9.28738 252.586 9.1 251.872 9.1V12.1ZM251.707 11.905C251.635 11.8089 251.587 11.7048 251.559 11.6052C251.533 11.509 251.53 11.4337 251.532 11.3926C251.535 11.3228 251.549 11.3435 251.488 11.4838L254.236 12.6862C254.498 12.0879 254.8 11.0282 254.107 10.105L251.707 11.905ZM251.488 11.4835L246.898 21.9685L249.646 23.1715L254.236 12.6865L251.488 11.4835ZM248.192 24.0679C249.53 24.1395 250.47 24.5968 251.158 25.3684L253.397 23.3716C252.105 21.9232 250.374 21.1805 248.352 21.0721L248.192 24.0679ZM251.187 25.3999C251.89 26.1448 252.307 27.1872 252.307 28.69H255.307C255.307 26.5928 254.704 24.7552 253.368 23.3401L251.187 25.3999ZM252.307 28.69V41.38H255.307V28.69H252.307ZM252.307 41.38C252.307 41.5522 252.286 41.6379 252.278 41.6635C252.272 41.682 252.284 41.6373 252.342 41.5793L254.463 43.7007C255.127 43.0368 255.307 42.1537 255.307 41.38H252.307ZM252.342 41.5793C252.436 41.4844 252.513 41.4657 252.492 41.4718C252.482 41.4748 252.453 41.4823 252.4 41.4887C252.348 41.4952 252.278 41.5 252.187 41.5V44.5C252.9 44.5 253.802 44.3616 254.463 43.7007L252.342 41.5793ZM252.187 41.5H245.257V44.5H252.187V41.5ZM245.257 41.5C245.072 41.5 244.969 41.4798 244.927 41.4677C244.889 41.4568 244.929 41.4613 244.994 41.5189L243.001 43.7611C243.666 44.3524 244.522 44.5 245.257 44.5V41.5ZM245.118 41.6435C245.176 41.7082 245.18 41.7485 245.169 41.7104C245.157 41.668 245.137 41.5655 245.137 41.38H242.137C242.137 42.1153 242.285 42.9714 242.876 43.6365L245.118 41.6435ZM245.137 41.38V32.605H242.137V41.38H245.137ZM245.137 32.605C245.137 31.8804 244.953 31.1077 244.398 30.4835L242.156 32.4765C242.142 32.4608 242.132 32.4456 242.125 32.4332C242.118 32.4212 242.117 32.416 242.119 32.4209C242.122 32.4324 242.137 32.4874 242.137 32.605H245.137ZM244.398 30.4835C243.788 29.7969 242.957 29.575 242.197 29.575V32.575C242.3 32.575 242.325 32.5899 242.3 32.5807C242.287 32.5757 242.264 32.5652 242.235 32.5461C242.207 32.5267 242.18 32.5029 242.156 32.4765L244.398 30.4835ZM242.197 29.575H236.257V32.575H242.197V29.575ZM234.757 31.075V41.38H237.757V31.075H234.757ZM234.757 41.38C234.757 41.5522 234.736 41.6379 234.728 41.6635C234.722 41.682 234.734 41.6373 234.792 41.5793L236.913 43.7007C237.577 43.0368 237.757 42.1537 237.757 41.38H234.757ZM234.792 41.5793C234.886 41.4844 234.963 41.4657 234.942 41.4718C234.932 41.4748 234.903 41.4823 234.85 41.4887C234.798 41.4952 234.728 41.5 234.637 41.5V44.5C235.35 44.5 236.252 44.3616 236.913 43.7007L234.792 41.5793Z" fill="black"/>
</g>
<defs>
<filter id="filter0_d_210_154" x="68.795" y="10.6" width="185.012" height="38.2234" filterUnits="userSpaceOnUse" color-interpolation-filters="sRGB">
<feFlood flood-opacity="0" result="BackgroundImageFix"/>
<feColorMatrix in="SourceAlpha" type="matrix" values="0 0 0 0 0 0 0 0 0 0 0 0 0 0 0 0 0 0 127 0" result="hardAlpha"/>
<feOffset dx="-0.83" dy="5.16"/>
<feGaussianBlur stdDeviation="0.331675"/>
<feComposite in2="hardAlpha" operator="out"/>
<feColorMatrix type="matrix" values="0 0 0 0 0 0 0 0 0 0 0 0 0 0 0 0 0 0 1 0"/>
<feBlend mode="normal" in2="BackgroundImageFix" result="effect1_dropShadow_210_154"/>
<feBlend mode="normal" in="SourceGraphic" in2="effect1_dropShadow_210_154" result="shape"/>
</filter>
</defs>
</svg>
