<svg width="110" height="48" viewBox="0 0 110 48" fill="none" xmlns="http://www.w3.org/2000/svg">
<path d="M46 4.34887C30.1567 0.419942 -10.4496 30.7493 4.09145 41.4225C10.9911 46.4869 19.5121 42.7561 22.2635 41.4225" stroke="#2F3F4A" stroke-width="2"/>
<path d="M49.3984 29.5157V33.6616M49.3984 43.9693V33.6616M49.3984 33.6616C51.2622 32.2796 55.5222 29.5157 57.6522 29.5157" stroke="#2F3F4A" stroke-width="2"/>
<path d="M41.3494 38.8929C41.1577 40.4567 40.9121 41.9446 40.6924 43.0768C20.3052 44.507 32.1977 35.0767 40.6924 30.1827C41.9602 30.9349 41.8104 35.1334 41.3494 38.8929ZM41.3494 38.8929C41.4854 40.6426 42.2975 44.1114 44.4579 43.9897" stroke="#2F3F4A" stroke-width="2"/>
<path d="M62.9766 29.2114V33.3573M62.9766 43.665V33.3573M62.9766 33.3573C64.8403 31.9754 69.1003 29.2114 71.2303 29.2114" stroke="#2F3F4A" stroke-width="2"/>
<path d="M89.4878 0V28.9857M89.4878 45.4907V28.9857M89.4878 28.9857C93.5267 28.2388 98.3836 26.5719 103.979 23.43C118.829 15.0926 91.8587 10.5232 76.5176 9.28072V43.9693V27.652C78.3664 28.9398 82.8088 30.2207 89.4878 28.9857ZM89.4878 28.9857L109 47.0122" stroke="#2F3F4A" stroke-width="1.5"/>
<circle cx="76.4869" cy="19.4743" r="4.03179" fill="black"/>
</svg>
