<svg width="253" height="95" viewBox="0 0 253 95" fill="none" xmlns="http://www.w3.org/2000/svg">
<rect width="253" height="95" fill="#2F6CA5"/>
<path d="M134.742 71.2891C134.727 71.3516 134.719 71.4141 134.719 71.4766C134.719 71.5234 134.719 71.5703 134.719 71.6172C134.719 72.0078 134.781 72.3359 134.906 72.6016C135.031 72.8516 135.164 73.0625 135.305 73.2344C135.461 73.3906 135.602 73.5234 135.727 73.6328C135.852 73.7266 135.914 73.8125 135.914 73.8906C135.914 74.1094 135.68 74.3125 135.211 74.5L128.906 77.1953C128.891 77.2109 128.836 77.2188 128.742 77.2188C128.617 77.2188 128.492 77.1094 128.367 76.8906C128.242 76.6719 128.117 76.3906 127.992 76.0469C127.883 75.7188 127.773 75.3672 127.664 74.9922C127.57 74.6016 127.484 74.2422 127.406 73.9141C126.422 75.0547 125.359 75.8906 124.219 76.4219C123.078 76.9531 121.945 77.2188 120.82 77.2188C119.508 77.2188 118.227 76.9297 116.977 76.3516C115.727 75.7734 114.617 74.9531 113.648 73.8906C112.68 72.8125 111.898 71.5156 111.305 70C110.727 68.4844 110.438 66.7812 110.438 64.8906C110.438 62.6562 110.758 60.6172 111.398 58.7734C112.055 56.9297 112.938 55.3438 114.047 54.0156C115.156 52.6875 116.445 51.6641 117.914 50.9453C119.398 50.2109 120.969 49.8438 122.625 49.8438C123.797 49.8438 124.906 50.0859 125.953 50.5703C127 51.0391 127.992 51.6484 128.93 52.3984C129.023 51.9297 129.078 51.5547 129.094 51.2734C129.109 50.9922 129.141 50.7734 129.188 50.6172C129.25 50.4609 129.359 50.3594 129.516 50.3125C129.672 50.25 129.93 50.2031 130.289 50.1719C131.414 50.0156 132.531 49.875 133.641 49.75C134.766 49.6094 135.938 49.5078 137.156 49.4453L134.742 71.2891ZM127.734 62.4531C127.891 61.5625 127.992 60.7266 128.039 59.9453C128.102 59.1484 128.148 58.4219 128.18 57.7656C127.93 57.5781 127.656 57.3828 127.359 57.1797C127.078 56.9766 126.766 56.7891 126.422 56.6172C126.094 56.4297 125.742 56.2812 125.367 56.1719C125.008 56.0625 124.625 56.0078 124.219 56.0078C123.375 56.0078 122.664 56.2812 122.086 56.8281C121.523 57.375 121.062 58.0469 120.703 58.8438C120.359 59.6406 120.109 60.4844 119.953 61.375C119.812 62.2656 119.742 63.0547 119.742 63.7422C119.742 66.2109 120.062 68.0234 120.703 69.1797C121.359 70.3203 122.266 70.8906 123.422 70.8906C123.891 70.8906 124.414 70.7578 124.992 70.4922C125.57 70.2266 126.156 69.8594 126.75 69.3906L127.734 62.4531ZM159.234 56.9219C158.906 56.8906 158.539 56.8594 158.133 56.8281C157.727 56.7812 157.297 56.7578 156.844 56.7578C156.156 56.7578 155.453 56.8203 154.734 56.9453C154.031 57.0547 153.375 57.2812 152.766 57.625C152.156 57.9688 151.633 58.4453 151.195 59.0547C150.758 59.6484 150.477 60.4219 150.352 61.375C150.242 62.5312 150.148 63.4844 150.07 64.2344C150.008 64.9688 149.961 65.5781 149.93 66.0625C149.898 66.5312 149.867 66.9141 149.836 67.2109C149.82 67.4922 149.805 67.7578 149.789 68.0078C149.789 68.0703 149.773 68.2422 149.742 68.5234C149.727 68.8047 149.695 69.1328 149.648 69.5078C149.602 69.8828 149.555 70.2891 149.508 70.7266C149.477 71.1641 149.438 71.5703 149.391 71.9453C149.344 72.3203 149.305 72.6484 149.273 72.9297C149.258 73.2109 149.25 73.3828 149.25 73.4453C149.25 73.5703 149.25 73.6797 149.25 73.7734C149.266 73.8516 149.273 73.9297 149.273 74.0078C149.273 74.1328 149.211 74.2422 149.086 74.3359C148.977 74.4141 148.719 74.5078 148.312 74.6172L142.102 76.8438C141.93 76.9062 141.703 76.9844 141.422 77.0781C141.141 77.1719 140.867 77.2188 140.602 77.2188C140.383 77.2188 140.188 77.1641 140.016 77.0547C139.859 76.9453 139.781 76.7578 139.781 76.4922L141.797 53.2656C141.844 52.75 141.898 52.3984 141.961 52.2109C142.039 52.0078 142.219 51.875 142.5 51.8125C143.922 51.5312 145.391 51.25 146.906 50.9688C148.422 50.6719 149.891 50.2969 151.312 49.8438C151.438 49.8438 151.508 49.8672 151.523 49.9141C151.555 49.9453 151.57 50 151.57 50.0781C151.57 50.1094 151.562 50.1562 151.547 50.2188C151.547 50.2812 151.523 50.4219 151.477 50.6406C151.445 50.8594 151.391 51.1953 151.312 51.6484C151.25 52.0859 151.156 52.7031 151.031 53.5C151.75 52.9375 152.539 52.4219 153.398 51.9531C154.273 51.4844 155.148 51.0859 156.023 50.7578C156.898 50.4141 157.742 50.1484 158.555 49.9609C159.367 49.7578 160.078 49.6562 160.688 49.6562L159.234 56.9219ZM180.422 56.9219C180.094 56.8906 179.727 56.8594 179.32 56.8281C178.914 56.7812 178.484 56.7578 178.031 56.7578C177.344 56.7578 176.641 56.8203 175.922 56.9453C175.219 57.0547 174.562 57.2812 173.953 57.625C173.344 57.9688 172.82 58.4453 172.383 59.0547C171.945 59.6484 171.664 60.4219 171.539 61.375C171.43 62.5312 171.336 63.4844 171.258 64.2344C171.195 64.9688 171.148 65.5781 171.117 66.0625C171.086 66.5312 171.055 66.9141 171.023 67.2109C171.008 67.4922 170.992 67.7578 170.977 68.0078C170.977 68.0703 170.961 68.2422 170.93 68.5234C170.914 68.8047 170.883 69.1328 170.836 69.5078C170.789 69.8828 170.742 70.2891 170.695 70.7266C170.664 71.1641 170.625 71.5703 170.578 71.9453C170.531 72.3203 170.492 72.6484 170.461 72.9297C170.445 73.2109 170.438 73.3828 170.438 73.4453C170.438 73.5703 170.438 73.6797 170.438 73.7734C170.453 73.8516 170.461 73.9297 170.461 74.0078C170.461 74.1328 170.398 74.2422 170.273 74.3359C170.164 74.4141 169.906 74.5078 169.5 74.6172L163.289 76.8438C163.117 76.9062 162.891 76.9844 162.609 77.0781C162.328 77.1719 162.055 77.2188 161.789 77.2188C161.57 77.2188 161.375 77.1641 161.203 77.0547C161.047 76.9453 160.969 76.7578 160.969 76.4922L162.984 53.2656C163.031 52.75 163.086 52.3984 163.148 52.2109C163.227 52.0078 163.406 51.875 163.688 51.8125C165.109 51.5312 166.578 51.25 168.094 50.9688C169.609 50.6719 171.078 50.2969 172.5 49.8438C172.625 49.8438 172.695 49.8672 172.711 49.9141C172.742 49.9453 172.758 50 172.758 50.0781C172.758 50.1094 172.75 50.1562 172.734 50.2188C172.734 50.2812 172.711 50.4219 172.664 50.6406C172.633 50.8594 172.578 51.1953 172.5 51.6484C172.438 52.0859 172.344 52.7031 172.219 53.5C172.938 52.9375 173.727 52.4219 174.586 51.9531C175.461 51.4844 176.336 51.0859 177.211 50.7578C178.086 50.4141 178.93 50.1484 179.742 49.9609C180.555 49.7578 181.266 49.6562 181.875 49.6562L180.422 56.9219ZM183.047 66.0625C183.25 63.9219 183.453 61.8047 183.656 59.7109C183.859 57.6172 184.039 55.4688 184.195 53.2656C184.227 52.75 184.273 52.3984 184.336 52.2109C184.414 52.0078 184.594 51.875 184.875 51.8125C186.203 51.5469 187.594 51.2734 189.047 50.9922C190.5 50.6953 191.906 50.3203 193.266 49.8672C193.312 49.8516 193.383 49.8438 193.477 49.8438C193.648 49.8438 193.734 49.9062 193.734 50.0312L191.625 72.8594C191.578 73.375 191.523 73.7344 191.461 73.9375C191.398 74.125 191.227 74.25 190.945 74.3125C189.617 74.7188 188.273 75.1719 186.914 75.6719C185.555 76.1719 184.117 76.6797 182.602 77.1953C182.555 77.2109 182.484 77.2188 182.391 77.2188C182.219 77.2188 182.133 77.1406 182.133 76.9844C182.133 76.9688 182.148 76.7578 182.18 76.3516C182.211 75.9453 182.25 75.4219 182.297 74.7812C182.359 74.1406 182.422 73.4219 182.484 72.625C182.547 71.8281 182.609 71.0312 182.672 70.2344C182.75 69.4375 182.82 68.6719 182.883 67.9375C182.945 67.2031 183 66.5781 183.047 66.0625ZM184.805 47.3594C184.852 46.6875 184.883 46.1719 184.898 45.8125C184.93 45.4531 184.953 45.1875 184.969 45.0156C184.984 44.8281 184.992 44.7109 184.992 44.6641C184.992 44.6172 184.992 44.5859 184.992 44.5703C185.008 44.5391 185.016 44.4922 185.016 44.4297C185.031 44.3516 185.047 44.2031 185.062 43.9844C185.078 43.75 185.102 43.4141 185.133 42.9766C185.164 42.5391 185.211 41.9375 185.273 41.1719C185.305 40.6562 185.352 40.3047 185.414 40.1172C185.492 39.9141 185.672 39.7812 185.953 39.7188C187.281 39.4531 188.672 39.1797 190.125 38.8984C191.578 38.6016 192.984 38.2266 194.344 37.7734C194.391 37.7578 194.461 37.75 194.555 37.75C194.602 37.8438 194.664 37.9062 194.742 37.9375L194.812 37.9844L194.297 44.4062C194.25 44.9219 194.188 45.2812 194.109 45.4844C194.047 45.6875 193.883 45.8125 193.617 45.8594C192.289 46.1094 190.945 46.3828 189.586 46.6797C188.227 46.9766 186.789 47.2734 185.273 47.5703C185.227 47.5859 185.156 47.5938 185.062 47.5938C184.891 47.5938 184.805 47.5156 184.805 47.3594ZM209.414 40.4219L208.57 48.5547C208.461 49.6484 208.344 50.7578 208.219 51.8828C208.109 53.0078 208 54.0859 207.891 55.1172C207.781 56.1484 207.68 57.1016 207.586 57.9766C207.492 58.8516 207.414 59.5703 207.352 60.1328L208.969 58.3516L211.594 55.2812C211.922 54.9062 212.242 54.5312 212.555 54.1562C212.867 53.7812 213.148 53.4531 213.398 53.1719C213.648 52.875 213.852 52.6328 214.008 52.4453C214.164 52.2422 214.258 52.125 214.289 52.0938L223.711 51.4375C223.758 51.4219 223.805 51.4141 223.852 51.4141C223.914 51.4141 223.969 51.4141 224.016 51.4141C224.281 51.4141 224.414 51.4844 224.414 51.625C224.414 51.7344 224.25 51.9766 223.922 52.3516L216.586 60.5547C216.258 60.9141 215.867 61.3359 215.414 61.8203C214.977 62.2891 214.484 62.8125 213.938 63.3906L217.359 67.4688L223.266 73.8203C223.312 73.8984 223.383 73.9609 223.477 74.0078C223.57 74.0391 223.656 74.0703 223.734 74.1016C223.828 74.1328 223.906 74.1719 223.969 74.2188C224.047 74.25 224.086 74.3047 224.086 74.3828C224.086 74.4453 224.07 74.4922 224.039 74.5234C224.023 74.5547 223.953 74.6172 223.828 74.7109C223.688 74.8203 223.438 74.9766 223.078 75.1797C222.734 75.3828 222.328 75.6094 221.859 75.8594C221.391 76.1094 220.891 76.3594 220.359 76.6094C219.828 76.875 219.312 77.1094 218.812 77.3125C218.312 77.5312 217.852 77.7031 217.43 77.8281C217.008 77.9688 216.68 78.0391 216.445 78.0391C216.258 78.0391 216.07 77.9922 215.883 77.8984C215.711 77.8047 215.516 77.6328 215.297 77.3828C215 77.0391 214.625 76.5859 214.172 76.0234C213.734 75.4766 213.258 74.875 212.742 74.2188C212.227 73.5469 211.695 72.8594 211.148 72.1562C210.617 71.4375 210.102 70.7578 209.602 70.1172C209.117 69.4609 208.672 68.875 208.266 68.3594C207.875 67.8281 207.57 67.4062 207.352 67.0938C207.273 67.1719 207.195 67.2344 207.117 67.2812C207.039 67.3125 206.961 67.3594 206.883 67.4219C206.82 67.4844 206.766 67.5625 206.719 67.6562C206.672 67.7344 206.648 67.8516 206.648 68.0078C206.648 68.0703 206.633 68.25 206.602 68.5469C206.57 68.8281 206.531 69.1719 206.484 69.5781C206.453 69.9688 206.414 70.3906 206.367 70.8438C206.32 71.2969 206.273 71.7266 206.227 72.1328C206.195 72.5234 206.164 72.8672 206.133 73.1641C206.102 73.4453 206.086 73.6172 206.086 73.6797C206.086 73.7891 206.086 73.8828 206.086 73.9609C206.102 74.0234 206.109 74.0859 206.109 74.1484C206.109 74.3203 206.047 74.4531 205.922 74.5469C205.812 74.625 205.531 74.7266 205.078 74.8516L198.938 76.8438C198.766 76.9062 198.539 76.9844 198.258 77.0781C197.977 77.1719 197.703 77.2188 197.438 77.2188C197.219 77.2188 197.023 77.1641 196.852 77.0547C196.695 76.9453 196.617 76.7422 196.617 76.4453L199.57 42.6719C199.57 42.5938 199.562 42.5234 199.547 42.4609C199.531 42.3828 199.523 42.3047 199.523 42.2266C199.523 42.0859 199.578 41.9609 199.688 41.8516C199.812 41.7266 200.086 41.6094 200.508 41.5L207.094 39.9297C207.266 39.8984 207.492 39.8281 207.773 39.7188C208.055 39.6094 208.328 39.5547 208.594 39.5547C208.797 39.5547 208.984 39.6016 209.156 39.6953C209.344 39.7891 209.438 39.9688 209.438 40.2344C209.438 40.2656 209.43 40.2969 209.414 40.3281C209.414 40.3594 209.414 40.3906 209.414 40.4219Z" fill="white"/>
<path d="M70.3113 14.5V45.9175M70.3113 63.8073V45.9175M70.3113 45.9175C74.6891 45.108 79.9535 43.3012 86.0187 39.8957C102.114 30.8588 72.8811 25.9061 56.2529 24.5594V62.1582V44.4719C58.2568 45.8678 63.072 47.2562 70.3113 45.9175ZM70.3113 45.9175L89 65" stroke="white" stroke-width="1.5"/>
<circle cx="56.2772" cy="35.5267" r="3.02424" fill="#2F6CA5"/>
<path d="M72.2451 13C40.366 34.5028 -4.26488 77.2084 72.2451 76.0083C100.749 76.0083 103.374 68.0072 101.124 64.0067" stroke="white" stroke-width="7"/>
<path d="M101.124 65.5068L32.5 62.5" stroke="white"/>
</svg>
